SplineFontDB: 3.0
FontName: CoelacanthExtraLt
FullName: CoelacanthExtraLt
FamilyName: Coelacanth
Weight: ExtraLight

StartChar: a
Encoding: 97 97 0
GlifName: a
Width: 413
VWidth: 1159
Flags: HMW
AnchorPoint: "Bottom" 203 -15 basechar 0
AnchorPoint: "Ogonek" 354 18 basechar 0
AnchorPoint: "Top" 201 465 basechar 0
LayerCount: 2
Fore
SplineSet
268.787 161.753 m 1
 261.31 163.23 255.31 163.23 247.833 163.23 c 1
 219.017 163.707 178.672342174 158.1482946 164.247 153.184 c 0
 122.753 139.615 87.259 119.753 87.259 79.121 c 3
 87.259 48.1496347656 98.581 23.983 132.489 23.983 c 3
 175.184 23.983 221.431 43.029 268.695 65.322 c 1
 266.741 78.276 266.741 94.753 266.741 114.138 c 3
 266.741 134.615 267.787 147.23 268.787 161.753 c 1
213.276 427.724 m 3
 235.707 427.724 301.162142566 377.819204539 311.23 359.954 c 0
 317.276 348.477 319.276 324.477 319.276 310 c 3
 319.276 242.092 314.276 180.046 314.276 114.138 c 3
 314.276 89.845 315.080983972 64.6321932312 320.276 50.69 c 0
 325.845 30.598 335.891 29.598 339.414 29.598 c 3
 350.368 29.598 372.276 44.276 388.707 60.431 c 1
 404.569 38.632 l 1
 373.201 16.908 327.034 -9.569 313.218 -9.569 c 3
 297.971 -9.569 278.31 2.523 271.172 41.368 c 1
 214.402 13.23 168.063 -9.954 105.816 -9.954 c 3
 54.293 -9.954 43.385 25.092 43.385 68.138 c 3
 43.385 87.799 47.6209544268 109.717560329 52.77 119.983 c 0
 60.201 133.983 65.155 138.368 78.017 146.23 c 0
 130 175.799 189.632 190 269.31 190.46 c 1
 270.787 231.954 272.264 293.787 272.264 293.787 c 3
 272.264 312.155 269.57522191 329.320167135 264.126 339.879 c 0
 256.511 352.494 208.356 389.08 186.08 389.08 c 3
 164.189 389.08 110.012 368.109 110.012 336.753 c 3
 110.012 329.184 115.535 318.092 116.535 313.569 c 1
 65.862 295.017 l 1
 62.339 305.017 58.293 319.77 58.293 327.862 c 3
 58.293 343.293 66.1087581653 359.191164584 84.339 372.678 c 0
 129.322 405.385 198.753 427.724 213.276 427.724 c 3
EndSplineSet
Substitution2: "case-1" A
Substitution2: "pcap-1" a.pcap
Substitution2: "smcp-1" a.smcp
EndChar

StartChar: b
Encoding: 98 98 1
GlifName: b
Width: 507
VWidth: 1159
Flags: HMW
AnchorPoint: "Bottom" 248 -15 basechar 0
AnchorPoint: "Top" 104 749 basechar 0
LayerCount: 2
Fore
SplineSet
113.15 327.707 m 1
 111.196 232.891 110.673 178.506 110.673 83.69 c 3
 110.673 78.644 112.288 72.598 119.288 67.075 c 0
 154.581 39.598 203.259 23.121 250.46 23.121 c 3
 339.385 23.121 416.126 94.569 416.126 194.31 c 3
 416.126 283.833 354.494 380.925 253.971 380.925 c 3
 195.661 380.925 126.489 340.569 113.15 327.707 c 1
4.908 681.569 m 1
 48.586 697.155 86.937 715.138 119.765 759 c 1
 141.242 745.862 l 1
 129.334 717 123.719 687.954 122.719 667 c 0
 116.288 556.07 113.15 502.126 113.15 361.322 c 1
 144.719 379.138 210.736 414.862 276.46 414.862 c 3
 385.276 414.862 463.661 313.092 463.661 216.799 c 3
 463.661 89.707 355.77 -11.862 224.31 -11.862 c 3
 145.138 -11.862 126.69 18.816 94.167 18.816 c 3
 79.753 18.816 66.184 -2.046 59.661 -10 c 1
 39.753 1.523 l 1
 43.184 10.385 51.954 25.339 55.954 35.77 c 0
 60.523 49 63.184 72.339 64.184 145 c 0
 66.184 288 68.184 367 68.184 510 c 3
 68.184 556.167 71.523 622.741 69.431 646.08 c 0
 66.816 669.264 63.155 668.879 53.264 668.879 c 3
 45.172 668.879 27.494 661.155 13.247 655.908 c 1
 4.908 681.569 l 1
EndSplineSet
Substitution2: "case-1" B
Substitution2: "pcap-1" b.pcap
Substitution2: "smcp-1" b.smcp
EndChar

StartChar: c
Encoding: 99 99 2
GlifName: c
Width: 421
VWidth: 1159
Flags: HMW
AnchorPoint: "Bottom" 228 -15 basechar 0
AnchorPoint: "Top" 231 465 basechar 0
LayerCount: 2
Fore
SplineSet
356.603 331.603 m 1
 319.557 353.511 269.465 369.695 236.419 369.695 c 3
 145.908 369.695 84.058 295.311028169 84.058 205.167 c 3
 84.058 88.673 171.322 26.167 255.874 26.167 c 3
 302.029 26.167 341.23 46.46 368.523 66.276 c 1
 383.569 43.615 l 1
 350.523 17.092 292.477 -11.954 233.908 -11.954 c 3
 184.908 -11.954 34.954 12.724 34.954 185.816 c 3
 34.954 309.2471841 144.046 412.523 264.138 412.523 c 3
 312.138 412.523 361.138 393 392.138 370.954 c 1
 391.615 356.833 385.368 348.339 356.603 331.603 c 1
EndSplineSet
Substitution2: "case-1" C
Substitution2: "pcap-1" c.pcap
Substitution2: "smcp-1" c.smcp
EndChar

StartChar: d
Encoding: 100 100 3
GlifName: d
Width: 511
VWidth: 1159
Flags: HMW
AnchorPoint: "Bottom" 224 -15 basechar 0
AnchorPoint: "Top" 390 734 basechar 0
AnchorPoint: "TopRight" 503.5 581 basechar 0
LayerCount: 2
Fore
SplineSet
381.034 57.77 m 1
 333.695 22.523 268.109 -7.862 197.477 -7.862 c 3
 97.477 -7.862 34.477 77.569 34.477 172 c 3
 34.477 252.954 75.23 321.477 133.092 360.908 c 0
 180.046 392.385 237 407.862 267.477 407.862 c 3
 297.724 407.862 366.172 385.138 383.034 382.661 c 1
 383.034 480.15 387.281 574.925 388.666 647.942 c 0
 389.62 674.436 384.051 681.758 375.16 681.758 c 3
 367.252 681.758 342.252 664.31 321.281 659.494 c 1
 314.712 687.201 l 1
 353.833 696.77 405.678 728.109 435.322 754.954 c 1
 455.799 743.247 l 1
 452.184 728.77 447.569 701.293 446.569 690.293 c 0
 430.862 533.862 427.477 355.431 427.477 185 c 3
 427.477 125.845 428.477 57.581 432.138 12.443 c 1
 433.184 4.167 438.937 1.489 442.322 1.489 c 1
 454.891 3.581 488.569 20.644 502 27.029 c 1
 513.862 4.322 l 1
 466.586 -18.063 419.327 -38.678 404.373 -38.678 c 3
 395.942 -38.678 384.08 -33.816 383.034 -12.138 c 1
 381.988 11.339 381.034 53.77 381.034 57.77 c 1
247.08 372.356 m 3
 217.925 372.356 174.046 354.54 150.23 338.247 c 0
 111.075 310.092 79.397 261.782 79.397 200.242 c 3
 79.397 115.489 132.058 29.213 228.334 29.213 c 3
 288.891 29.213 344.925 58.092 379.465 89.063 c 1
 379.988 167.356 381.557 248.649 382.511 327.942 c 1
 382.511 344.155 367.959 346.201 354.361 349.339 c 0
 320.252 360.109 259.942 372.356 247.08 372.356 c 3
EndSplineSet
Substitution2: "case-1" D
Substitution2: "pcap-1" d.pcap
Substitution2: "smcp-1" d.smcp
EndChar

StartChar: e
Encoding: 101 101 4
GlifName: e
Width: 409
VWidth: 1159
Flags: HMW
AnchorPoint: "Bottom" 213 -15 basechar 0
AnchorPoint: "Ogonek" 306.65 23 basechar 0
AnchorPoint: "Top" 217 465 basechar 0
LayerCount: 2
Fore
SplineSet
210.138 415 m 7
 268.138 415 327.998038401 366.584307838 349.615 314.322 c 0
 352.707 306.615 361.029 301.954 376.799 302.862 c 1
 377.753 278.862 l 1
 288.46 261.477 178.736 237.569 92.443 217.092 c 1
 91.489 207.753 90.012 197.891 90.012 188.552 c 3
 90.012 73.598 158.104 27.121 219.012 27.121 c 3
 271.736 27.121 318.368 52.46 350.661 79.276 c 1
 368.799 56.092 l 1
 327.276 22.138 268.23 -10.477 200.184 -10.477 c 3
 102.724 -10.477 39.339 65.368 39.339 178.092 c 3
 39.339 301.737593332 160.908506361 415 210.138 415 c 7
202.816 378.971 m 3
 162.649 378.971 108.937 321.881627118 95.874 243.615 c 1
 302.172 289.632 l 0
 307.787 290.632 l 1
 295.879 332.952432099 249.586 378.971 202.816 378.971 c 3
EndSplineSet
Substitution2: "case-1" E
Substitution2: "pcap-1" e.pcap
Substitution2: "smcp-1" e.smcp
EndChar

StartChar: f
Encoding: 102 102 5
GlifName: f
Width: 357
VWidth: 1159
Flags: HMW
AnchorPoint: "Bottom" 156 -15 basechar 0
AnchorPoint: "Top" 262 748 basechar 0
LayerCount: 2
Fore
SplineSet
340.397 762.201 m 3
 379.552 762.201 427.167 748.339 451.213 726.816 c 1
 450.69 712.695 444.058 704.109 418.431 684.758 c 1
 383.247 705.62 347 721.988 314.247 721.988 c 3
 229.373 721.988 174.765 636.189 169.535 501.339 c 0
 169.012 491.339 167.966 441.201 167.443 404.632 c 1
 223.736 405.678 274.075 405.678 330.368 406.724 c 1
 330.368 371.218 l 1
 274.552 372.264 222.736 372.787 166.92 373.833 c 1
 166.397 339.063 166.397 310.724 166.397 296.339 c 3
 165.92 210.046 166.443 129.23 169.058 45.414 c 0
 169.581 32.799 172.719 30.661 186.334 29.661 c 0
 210.857 28.661 233.38 27.707 257.903 26.23 c 1
 254.426 -4.569 l 1
 220.058 -0.046 171.029 1.477 136.661 1.477 c 3
 110.954 1.477 71.632 -1.523 45.925 -5.523 c 1
 43.494 24.753 l 1
 56.402 26.23 72.31 27.661 86.172 29.184 c 0
 110.017 33.799 112.109 40.121 113.155 72.414 c 0
 115.77 127.753 117.339 200.046 117.816 269.339 c 3
 117.816 291.724 117.293 332.54 117.293 373.833 c 1
 93.724 373.31 71.632 371.741 48.063 371.218 c 1
 48.063 406.724 l 1
 71.632 406.201 93.724 405.155 117.293 404.632 c 1
 117.293 441.724 117.293 484.816 117.293 496.339 c 3
 117.293 605.293 156.477 662.724 214.46 709.247 c 0
 245.351 733.862 285.213 762.201 340.397 762.201 c 3
EndSplineSet
Substitution2: "salt-1" f.alt
Substitution2: "case-1" F
Substitution2: "pcap-1" f.pcap
Substitution2: "smcp-1" f.smcp
EndChar

StartChar: g
Encoding: 103 103 6
GlifName: g
Width: 475
VWidth: 1159
Flags: HMW
AnchorPoint: "Bottom" 225 -318 basechar 0
AnchorPoint: "Top" 224 465 basechar 0
LayerCount: 2
Fore
SplineSet
123.719 -5.293 m 3
 123.719 -34.448 173.598 -44.833 222.816 -44.833 c 3
 251.431 -44.833 275.569 -41.695 305.138 -41.695 c 3
 412.293 -41.695 453.816 -104.695 453.816 -159.695 c 3
 453.816 -289.603 249.874 -337.862 176.816 -337.862 c 3
 57.23 -337.862 23.816 -265.092 23.816 -212.276 c 3
 23.816 -133.361191176 108.724 -85.6846617647 123.201 -76.477 c 1
 69.983 -47.523 68.431 -20.707 64.862 6 c 1
 98.247 30.1172 150.816 53.2804 187.201 65.816 c 1
 113.109 80.339 48.816 140.385 48.816 227.954 c 3
 48.816 347.184 146.167 412.138 236.816 412.138 c 3
 274.862 412.138 314.293 400.092 342.431 377 c 1
 366.523 383.954 387.615 386.046 415.23 386.046 c 3
 430.707 386.046 450.661 383.046 457.138 379.046 c 1
 443.908 337.218 l 1
 427.724 343.833 412.54 347.402 395.879 347.402 c 0
 386.109 347.402 378.293 347.402 366.092 344.494 c 1
 384.431 317.448 398.816 286.632 398.816 239.046 c 3
 398.816 137.092 312.724 92.477 243.247 63.908 c 0
 128.811 16.5882105263 123.719 7.97394736842 123.719 -5.293 c 3
221.649 379.247 m 3
 134.845 379.247 95.305 319.661 95.305 244.167 c 3
 95.305 156.322 160.937 103.69 240.046 91.569 c 1
 299.925 114 348.666 156.293 348.666 227.017 c 3
 348.666 292.293 318.143 379.247 221.649 379.247 c 3
59.322 -198.155 m 3
 59.322 -279.988 144.506 -291.896 195.121 -291.896 c 3
 239.138 -291.896 418.31 -260.526835052 418.31 -171.724 c 3
 418.31 -122.724 376.741 -89.753 305.661 -89.753 c 3
 279.092 -89.753 252 -92.368 225.431 -92.368 c 3
 199.862 -92.368 173.77 -90.845 158.724 -88.276 c 1
 88.477 -119.465571428 59.322 -161.235527472 59.322 -198.155 c 3
EndSplineSet
Substitution2: "case-1" G
Substitution2: "pcap-1" g.pcap
Substitution2: "smcp-1" g.smcp
EndChar

StartChar: h
Encoding: 104 104 7
GlifName: h
Width: 531
VWidth: 1159
Flags: HMW
AnchorPoint: "Bottom" 275 -15 basechar 0
AnchorPoint: "Top" 120 733 basechar 0
LayerCount: 2
Fore
SplineSet
139.535 321.414 m 1
 138.489 284.525613636 137.443 237.675977273 137.443 189 c 3
 137.443 125.23 138.103348417 66.5133868728 139.581 43.506 c 0
 140.627 34.23 152.516924065 31.360461319 159.656 30.092 c 0
 176.765 28.569 204.351 24.184 220.552 22.707 c 1
 216.075 -6.523 l 1
 179.46 -0.523 147.075 4.477 111.276 4.477 c 3
 83.661 4.477 51 -0.523 23.385 -4.523 c 1
 19.908 24.184 l 1
 37.586 26.661 47.9740343371 28.6620089575 64.603 30.615 c 0
 79.971 33.753 85.9338165241 41.3520918506 87.339 60.736 c 0
 90.431 116.552 92 203.753 92 274 c 3
 92 525.31 91.5962007359 625.005788225 90.431 647.465 c 0
 89.908 659.172 86.293 669.356 75.971 669.356 c 3
 71.402 669.356 42.063 654.77 26.816 652.339 c 1
 18.816 680.046 l 1
 60.799 691.046 108.874 717.615 143.288 752.092 c 1
 162.288 738 l 1
 155.811 723.046 148.660335828 694.098944929 147.334 682.184 c 0
 141.627 640.359497006 140.535 464.330419162 139.535 351.46 c 1
 196.351 389.00404 276.075 411.661 320.937 411.661 c 3
 402.523 411.661 438.951799228 358.4706899 443.523 301 c 0
 445 280.880457143 446 234.840609524 446 183 c 3
 446 122.184 445 63.368 445 45.414 c 0
 445 35.184 455.412924065 32.314461319 464.937 30.569 c 0
 476.322 29.046 506.184 25.661 517.615 22.23 c 1
 511.184 -6.523 l 1
 478.862 2.477 457.155 4.477 422.31 4.477 c 3
 391.356 4.477 361.879 -0.523 334.925 -6.523 c 1
 330.017 22.184 l 1
 345.787 24.661 356.606034337 26.1850089575 375.62 28.615 c 0
 392.896 32.707 395.644007658 39.9670612683 397.465 57.874 c 0
 398.511 78.167 399.511 124.184 399.511 143.477 c 3
 399.511 193.63015625 398.77888188 264.208754208 395.465 289.724 c 0
 388.373 340.632 357.787 374.586 299.925 374.586 c 3
 246.201 374.586 183.506 351.08475 139.535 321.414 c 1
EndSplineSet
Substitution2: "case-1" H
Substitution2: "pcap-1" h.pcap
Substitution2: "smcp-1" h.smcp
EndChar

StartChar: k
Encoding: 107 107 10
GlifName: k
Width: 486
VWidth: 1159
Flags: HMW
AnchorPoint: "Bottom" 242 -15 basechar 0
AnchorPoint: "Top" 123 739 basechar 0
LayerCount: 2
Fore
SplineSet
131.397 238.431 m 1
 174.937 265.816 238.339 306.586 280.31 338.971 c 0
 288.741 345.494 302.126 357.063 302.126 363.586 c 3
 302.126 374.431 285.758 372.954 267.172 375.431 c 1
 269.172 401 l 1
 290.879 399 320.155 399 342.385 399 c 3
 373.477 399 414.092 399.954 444.184 403 c 1
 446.184 374.816 l 1
 376.029 368.77 362.879 356.741 332.218 337.126 c 2
 203.075 256.431 l 1
 273.598 184.138 342.167 114.322 416.121 41.029 c 1
 437.845 33.184 462.506 27.092 487 23.707 c 1
 483.523 -5.523 l 1
 450.477 0.477 432.954 4.477 391.908 4.477 c 3
 363.339 4.477 333.247 -2.523 304.678 -4.523 c 1
 301.678 24.184 l 1
 342.925 29.184 342.925 32.23 355.356 33.23 c 1
 298.586 92.477 221.678 173.724 164.816 232.402 c 1
 132.443 213.046 l 1
 132.443 143.615 133.489 76.661 135.581 50.184 c 0
 136.627 32.322 140.857 33.23 156.581 29.661 c 0
 170.874 26.615 182.305 25.138 200.121 23.184 c 1
 194.167 -5.569 l 1
 162.552 -0.046 144.983 4.477 105.845 4.477 c 3
 81.092 4.477 51.77 -2.523 27.017 -4.523 c 1
 25.017 24.184 l 1
 37.448 25.661 50.833 28.138 60.833 30.138 c 0
 78.109 34.753 81.77 39.891 82.816 57.874 c 0
 85.431 114.644 87.523 203.276 87.523 274 c 3
 87.523 545.925 86.477 608.787 85.431 642.218 c 0
 84.908 658.218 81.293 672.218 71.448 672.218 c 3
 64.494 672.218 39.494 658.586 24.247 655.678 c 1
 16.247 682.908 l 1
 57.276 693.431 104.351 720 138.288 754 c 1
 157.811 739.908 l 1
 151.334 724.477 143.38 695.092 142.857 683.138 c 0
 137.627 609.092 131.397 361.477 131.397 238.431 c 1
EndSplineSet
Substitution2: "case-1" K
Substitution2: "pcap-1" k.pcap
Substitution2: "smcp-1" k.smcp
EndChar

StartChar: l
Encoding: 108 108 11
GlifName: l
Width: 248
VWidth: 1159
Flags: HMW
AnchorPoint: "Bottom" 119 -15 basechar 0
AnchorPoint: "TopRight" 242 581 basechar 0
AnchorPoint: "Top" 121 734 basechar 0
LayerCount: 2
Fore
SplineSet
149.506 300 m 3
 149.506 216.569 149.506 87.184 152.644 49.707 c 0
 153.69 33.276 162.673 32.138 179.874 30.138 c 0
 194.92 27.569 215.305 26.092 239.322 22.23 c 1
 234.799 -7 l 1
 199.138 -1 161.816 4 120.293 4 c 3
 95.063 4 45.247 -1 15.724 -5 c 1
 13.724 23.707 l 1
 28.54 25.184 48.31 28.138 64.08 29.661 c 0
 90.896 33.753 96.741 37.983 97.787 63.121 c 0
 100.402 118.46 101.971 204.707 101.971 274 c 3
 101.971 537.017 101.448 615.879 100.402 639.833 c 0
 99.879 665.373 96.264 673.649 86.896 673.649 c 3
 81.373 673.649 57.281 659.54 33.925 653.293 c 1
 25.925 680.523 l 1
 68.385 691.046 116.937 718.569 151.828 751.615 c 1
 170.828 736.092 l 1
 159.104 719.707 157.874 707.017 157.351 686 c 0
 152.121 611 149.506 424 149.506 300 c 3
EndSplineSet
Substitution2: "case-1" L
Substitution2: "pcap-1" l.pcap
Substitution2: "smcp-1" l.smcp
EndChar

StartChar: m
Encoding: 109 109 12
GlifName: m
Width: 791
VWidth: 1159
Flags: HMW
AnchorPoint: "Bottom" 390 -15 basechar 0
AnchorPoint: "Top" 407 465 basechar 0
LayerCount: 2
Fore
SplineSet
700.184 164.816 m 3
 700.184 112.046 701.753 63.276 701.753 46.845 c 0
 701.753 33.753 708.596924065 32.314461319 720.029 30.569 c 0
 731.891 29.046 768.092 26.138 780.477 23.184 c 1
 775.954 -6.046 l 1
 735.046 2.954 707.092 4.954 663.184 4.954 c 3
 638.431 4.954 607.109 -0.046 585.879 -6.046 c 1
 581.879 22.661 l 1
 594.787 25.615 605.621188388 26.887702467 619.126 29.569 c 0
 643.758 34.569 648.199194624 34.6095569889 650.034 68.368 c 0
 651.08 87.707 653.695 131.339 653.695 149.201 c 3
 653.695 196.578908257 652.636200986 247.171154873 650.557 266.569 c 0
 644.85 326.201 622.557 363.971 558.08 363.971 c 3
 509.816 363.971 460.753 349.410730769 418.259 329.339 c 1
 420.213 320.431 421.167 311.523 421.167 299.661 c 3
 421.167 272.793142857 420.644 225.505714286 420.644 186.816 c 3
 420.644 127.523 422.213 66.707 422.213 48.276 c 0
 422.213 35.661 429.056924065 31.837461319 441.92 30.092 c 0
 454.259 28.569 473.598 26.615 486.46 22.707 c 1
 481.46 -6.046 l 1
 444.845 2.954 431.799 4.954 392.184 4.954 c 3
 364.569 4.954 325.908 -0.046 301.816 -6.046 c 1
 297.339 22.184 l 1
 312.155 25.615 331.805188388 25.456702467 347.695 29.569 c 0
 364.695 34.092 368.136194624 37.4715569889 369.971 68.368 c 0
 371.017 87.23 374.155 129.431 374.155 146.816 c 3
 374.155 193.51271875 371.837489117 263.595784884 370.494 282.661 c 0
 367.879 330.247 350.925 376.356 300.017 376.356 c 3
 236.753 376.356 185.828 346.632 142.334 324.724 c 1
 141.288 230.263759657 137.627 103.919103005 137.627 63.368 c 3
 137.627 34.322 144.36082803 33.8619271045 164.903 30.569 c 0
 179.627 28.569 202.92 25.615 216.736 22.707 c 1
 212.259 -6.046 l 1
 175.644 2.339 147.552 4.954 107.937 4.954 c 3
 80.322 4.954 47.661 -0.046 20.046 -4.046 c 1
 16.569 24.184 l 1
 30.431 26.661 37.9570343371 27.2310089575 52.201 30.138 c 0
 77.586 35.661 84.2908240175 38.9937920778 87.477 68.368 c 0
 91.138 102.23 91.184 167.954 91.184 202.816 c 3
 91.184 225.201 89.6946474654 303.152931205 86.954 325.172 c 0
 83.293 351.218 78.678 351.741 67.356 351.741 c 3
 56.879 351.741 54.356 347.879 36.293 345.017 c 1
 31.908 370.678 l 1
 60.322 376.724 88.259 380.247 126.334 415.523 c 1
 147.811 404.339 l 1
 143.765 390.712873239 141.242 370.924690141 140.765 350.247 c 1
 190.196 378.862 258.305 415 323.552 415 c 3
 373.213 415 397.305 383.385 410.351 352.293 c 1
 451.259 372.606269231 511.121 400.523 589.46 400.523 c 3
 668.799 400.523 701.23 352.184 701.23 275.937 c 3
 701.23 241.811111111 700.184 202.774814815 700.184 164.816 c 3
EndSplineSet
Substitution2: "case-1" M
Substitution2: "pcap-1" m.pcap
Substitution2: "smcp-1" m.smcp
EndChar

StartChar: n
Encoding: 110 110 13
GlifName: n
Width: 526
VWidth: 1159
Flags: HMW
AnchorPoint: "Bottom" 269 -15 basechar 0
AnchorPoint: "Top" 272 465 basechar 0
LayerCount: 2
Fore
SplineSet
90.293 329.465 m 0
 85.586 345.448 82.494 348.879 73.08 348.879 c 3
 65.465 348.879 50.54 340.724 34.862 340.724 c 1
 31.908 367.339 l 1
 60.799 373.862 90.167 377.385 129.196 415.523 c 1
 150.673 402.908 l 1
 147.104 389.414464789 144.104 367.432802817 144.104 350.293 c 1
 195.92 381.293 252.213 414.523 319.983 414.523 c 3
 396.322 414.523 446.569 377.862 446.569 289.213 c 3
 446.569 255.968057143 444.569 219.484028572 444.569 183 c 3
 444.569 120.276 443.523828354 64.7817873456 444.707 45.414 c 1
 445.753 35.184 453.027924065 32.791461319 467.799 30.569 c 0
 477.753 29.046 508.816 24.707 516.908 22.23 c 1
 510 -6.046 l 1
 478.632 2.477 446.661 5.431 413.247 5.431 c 3
 391.833 5.431 339.77 -1.477 320.925 -7 c 1
 314.063 20.753 l 1
 323.632 23.707 357.638188388 27.841702467 367.804 30.046 c 0
 386.235 34.092 390.245194624 38.4255569889 393.511 68.368 c 0
 395.511 91.523 398.08 140.402 398.08 162.08 c 3
 398.08 202.7555 397.549692512 262.587391567 396.419 280.322 c 0
 393.327 335.631164179 371.373 373.787 300.632 373.787 c 3
 240.23 373.787 187.736 350.247 145.673 325.431 c 1
 144.627 230.833126582 140.966 103.978088608 140.966 63.368 c 3
 140.966 34.799 148.17682803 34.3389271045 168.242 29.615 c 0
 176.288 27.615 212.937 23.707 221.506 21.753 c 1
 216.552 -7 l 1
 186.615 -1 143.259 5.431 111.276 5.431 c 3
 87 5.431 44.322 -1.477 20.046 -5.477 c 1
 15.615 23.23 l 1
 26.138 25.23 46.0660343371 27.7080089575 56.494 30.138 c 0
 81.879 35.661 87.6298240175 39.4707920778 90.816 68.368 c 0
 94.477 102.23 95 163.661 95 199 c 3
 95 222.816 93.9180953071 306.590502446 90.293 329.465 c 0
EndSplineSet
Substitution2: "case-1" N
Substitution2: "pcap-1" n.pcap
Substitution2: "smcp-1" n.smcp
EndChar

StartChar: o
Encoding: 111 111 14
GlifName: o
Width: 505
VWidth: 1159
Flags: HW
AnchorPoint: "Middle" 256 206 basechar 0
AnchorPoint: "Bottom" 250 -15 basechar 0
AnchorPoint: "Ogonek" 342 19.6582 basechar 0
AnchorPoint: "Horn" 421.5 341.8 basechar 0
AnchorPoint: "Top" 252 465 basechar 0
LayerCount: 2
Fore
SplineSet
256.523 420.431 m 3
 392 420.431 473 311 473 203.569 c 3
 473 77.523 379 -11 255.523 -11 c 3
 131 -11 32 72.908 32 198.293 c 3
 32 353.385 166.523 420.431 256.523 420.431 c 3
245.54 385.448 m 3
 170.31 385.448 83.196 323.557 83.196 215.552 c 3
 83.196 109.213 159.874 20.845 260.23 20.845 c 3
 361.31 20.845 420.758 102.954 420.758 191.017 c 3
 420.758 306.293 336.189 385.448 245.54 385.448 c 3
EndSplineSet
Substitution2: "case-1" O
Substitution2: "pcap-1" o.pcap
Substitution2: "smcp-1" o.smcp
EndChar

StartChar: p
Encoding: 112 112 15
GlifName: p
Width: 513
VWidth: 1159
Flags: HMW
AnchorPoint: "Bottom" 286 -15 basechar 0
AnchorPoint: "Top" 251 465 basechar 0
LayerCount: 2
Fore
SplineSet
86.615 34.816 m 3
 86.615 167.787 84.523 298.758 82.431 320.666 c 1
 79.816 345.758 72.017 355.327 63.741 355.327 c 3
 56.126 355.327 37.419 343.465 8.862 335.833 c 1
 1.908 363.494 l 1
 32.707 369.54 79.69 391.678 114.535 426.385 c 1
 128.443 419.341086956 131.535 421.271304348 132.581 367.816 c 1
 181.305 388.339 248.937 413.385 305.615 413.385 c 3
 402.615 413.385 478.615 309.679020618 478.615 216 c 3
 478.615 78.5393761468 358.615 -9.046 241.615 -9.046 c 3
 202.983 -9.046 165.828 1.816 133.627 17.494 c 1
 133.627 -68.799 133.627 -250.339 136.242 -289.247 c 0
 137.288 -305.201 148.656 -307.77 168.242 -308.77 c 0
 181.857 -309.293 197.518 -311.293 209.133 -311.816 c 1
 207.656 -341.046 l 1
 177.719 -340.046 150.058 -338.046 115.213 -338.046 c 3
 90.937 -338.046 52.477 -343.046 28.201 -347.046 c 1
 24.724 -319.339 l 1
 34.77 -317.862 41.816 -316.339 52.339 -314.339 c 0
 78.201 -308.339 80.862 -302.586 81.908 -275.063 c 0
 84.523 -220.678 86.615 -124.862 86.615 34.816 c 3
282.603 377.356 m 3
 219.632 377.356 174.322 354.54 131.535 337.632 c 1
 132.581 62.569 l 1
 167.012 41.23 205.92 23.845 257.305 23.845 c 3
 351.322 23.845 432.649 90.9184388489 432.649 196.126 c 3
 432.649 281.231086486 373.126 377.356 282.603 377.356 c 3
EndSplineSet
Substitution2: "case-1" P
Substitution2: "pcap-1" p.pcap
Substitution2: "smcp-1" p.smcp
EndChar

StartChar: q
Encoding: 113 113 16
GlifName: q
Width: 491
VWidth: 1159
Flags: HMW
AnchorPoint: "Bottom" 218 -15 basechar 0
AnchorPoint: "Top" 272 465 basechar 0
LayerCount: 2
Fore
SplineSet
387.281 66.092 m 1
 388.327 163.541506383 390.373 218.663140425 390.373 315.126 c 3
 390.373 321.126 388.183605236 337.998716633 382.758 343.172 c 0
 356.281 368.017 310.235 379.494 269.712 379.494 c 3
 166 379.494 85.489 293.53655 85.489 198.782 c 3
 85.489 110.69 148.029 22.075 242.828 22.075 c 3
 318.707 22.075 373.942 56.569 387.281 66.092 c 1
386.758 28.862 m 1
 348.511 12.477 289.879 -11.862 220.339 -11.862 c 3
 115.339 -11.862 35.339 87.569 35.339 181 c 3
 35.339 307.345151261 154.339 413.954 295.339 413.954 c 3
 366.138 413.954 381.879 391.385 407.155 391.385 c 3
 423.477 391.385 429.092 411.431 434.184 417.954 c 1
 456.046 407.431 l 1
 448.322 391.414 446.289874243 380.317622729 444.661 368.753 c 0
 441.523 352.184 438.969137397 333.614001224 436.339 262.862 c 0
 435.479971788 238.332623044 435.339 134.23817341 435.339 93 c 3
 435.339 -141.017 437.631818613 -229.393548904 440.046 -268.741 c 0
 442.138 -303.603 451.41894497 -306.488194497 470.046 -308.017 c 0
 478.615 -309.017 497.276 -310.54 503.322 -310.54 c 1
 501.322 -340.816 l 1
 481.661 -339.816 452.908 -338.816 417.586 -338.816 c 3
 393.31 -338.816 338.235 -343.816 313.959 -347.816 c 1
 311.482 -319.632 l 1
 322.959 -318.632 330.054034337 -317.584991042 341.913 -315.155 c 0
 371.591 -309.632 382.772961739 -303.768046525 384.666 -275.741 c 0
 386.758 -242.833 386.758 -94.77 386.758 28.862 c 1
EndSplineSet
Substitution2: "case-1" Q
Substitution2: "pcap-1" q.pcap
Substitution2: "smcp-1" q.smcp
EndChar

StartChar: r
Encoding: 114 114 17
GlifName: r
Width: 358
VWidth: 1159
Flags: HMW
AnchorPoint: "Bottom" 145 -15 basechar 0
AnchorPoint: "Top" 165.5 465 basechar 0
LayerCount: 2
Fore
SplineSet
141.397 196 m 0
 140.92 154.615 141.966 52.46 145.627 42.937 c 0
 150.857 35.707 155.61 33.138 193.564 30.661 c 0
 212.426 29.661 233.288 29.184 249.673 28.184 c 1
 249.15 0 l 1
 217.305 1 159.138 4 124.77 4 c 3
 96.201 4 67.155 -1 38.586 -5 c 1
 35.632 23.707 l 1
 45.678 24.707 54.293 25.184 64.77 27.753 c 0
 81.925 31.753 89.77 36.552 90.816 66.937 c 0
 91.862 93.368 93.862 190.092 93.862 218 c 3
 93.862 245.155 92.816 300.942 91.77 330.574 c 0
 90.724 342.327 86.017 357.08 78.218 357.08 c 3
 69.172 357.08 57.465 341.971 37.494 333.862 c 1
 29.586 360 l 1
 57.046 367 96.69 397.046 127.719 435.092 c 1
 142.966 428.138 145.581 428.138 145.581 411.753 c 3
 145.581 401.707 144.535 371.615 144.535 336.477 c 1
 163.23 360.126 261.058 422.954 293.046 423.477 c 1
 316.431 423.477 346.615 398.339 346.615 377.54 c 3
 346.615 361.327 320.477 347.005 300.08 347.005 c 1
 295.511 365.896 282.511 372.804 268.465 372.804 c 3
 234.247 372.804 145.058 328.586 144.012 285.845 c 0
 141.92 251.707 141.397 211.569 141.397 196 c 0
EndSplineSet
Substitution2: "case-1" R
Substitution2: "pcap-1" r.pcap
Substitution2: "smcp-1" r.smcp
EndChar

StartChar: s
Encoding: 115 115 18
GlifName: s
Width: 352
VWidth: 1159
Flags: HMW
AnchorPoint: "Bottom" 164 -15 basechar 0
AnchorPoint: "Top" 182.5 465 basechar 0
LayerCount: 2
Fore
SplineSet
53.523 115.46 m 1
 77 67.678 77.208 24.799 165.121 24.799 c 1
 221.632 24.799 267.649 48.092 267.649 91.724 c 1
 267.649 143.586 216.31 170.063 170.908 186.494 c 0
 121.431 206.109 49.954 227.017 49.954 297.063 c 1
 49.954 355.155 112.569 408.477 192.046 408.477 c 1
 224.569 408.477 253.615 402 284.138 395.523 c 1
 284.138 395.523 291.184 345.247 295.707 312.063 c 1
 276.414 308.494 l 1
 262.138 352.419 235.356 377.155 182.632 377.155 c 1
 131.075 377.155 95.92 346.046 95.92 311.184 c 1
 95.92 282.937 121.598 256.029 188.845 234.075 c 0
 275.954 206.598 315.138 155.368 315.138 103.23 c 1
 315.138 26.523 226.54 -7.569 152.046 -7.569 c 1
 104.092 -7.569 67.092 4.862 30.615 20.293 c 1
 35.569 34.293 38.046 48.293 38.046 63.293 c 1
 38.046 71.954 36.523 97.891 32 106.552 c 1
 53.523 115.46 l 1
EndSplineSet
Substitution2: "case-1" S
Substitution2: "pcap-1" s.pcap
Substitution2: "smcp-1" s.smcp
EndChar

StartChar: t
Encoding: 116 116 19
GlifName: t
Width: 341
VWidth: 1159
Flags: HMW
AnchorPoint: "Bottom" 183 -15 basechar 0
AnchorPoint: "TopRight" 313 531 basechar 0
AnchorPoint: "Top" 143.5 508 basechar 0
LayerCount: 2
Fore
SplineSet
20.678 383.833 m 1
 69.339 399.523 91.351 413.828 110.903 471.799 c 1
 130.196 469.276 l 1
 127.15 445.184 126.673 425.092 124.673 399 c 1
 179.443 400.046 244.644 399.523 299.414 400.569 c 1
 297.322 364.54 l 1
 242.075 364.54 177.874 365.586 122.627 366.109 c 1
 119.104 300.293 115.242 224.23 115.242 105.092 c 3
 115.242 66.322 132.581 26.552 182.196 26.552 c 3
 231.828 26.552 271.845 49.276 303.276 65.661 c 1
 303.276 65.661 312.615 49.322 315.23 44.092 c 1
 277.707 20.046 214.661 -10 157.615 -10 c 3
 137.615 -10 65.615 0.477 65.615 99.862 c 3
 65.615 202.247 71.046 265.201 73.523 365.586 c 1
 73.523 365.586 41.862 364.017 22.247 364.017 c 1
 20.678 383.833 l 1
EndSplineSet
Substitution2: "case-1" T
Substitution2: "pcap-1" t.pcap
Substitution2: "smcp-1" t.smcp
EndChar

StartChar: u
Encoding: 117 117 20
GlifName: u
Width: 506
VWidth: 1159
Flags: HMW
AnchorPoint: "Bottom" 255 -15 basechar 0
AnchorPoint: "Ogonek" 391.65 -3 basechar 0
AnchorPoint: "Horn" 434.5 333 basechar 0
AnchorPoint: "Top" 264 465 basechar 0
LayerCount: 2
Fore
SplineSet
301.649 369 m 1
 344.632 378.523 389.615 390.569 422.983 401.092 c 1
 436.845 386.046 l 1
 428.092 342.046 423.431 175 423.431 137 c 3
 423.431 107 425.148572283 81.0832771762 427.523 54 c 0
 429.477 33.506 433.431 17.397 439.138 17.397 c 3
 443.138 17.397 469.615 28.69 489.615 36.552 c 1
 499.431 10.799 l 1
 473.327097345 2.06797142857 441.729067946 -7.54596602703 417.189 -19.816 c 0
 411.910906949 -22.2165465254 408.9735 -24.862 403.143 -24.862 c 3
 383.281 -24.862 382.327 -2.862 377.327 49.138 c 1
 330.603 29.707 243.109 -11.477 177.477 -11.477 c 3
 139.954 -11.477 104.350580831 4.79140720295 86.908 42.569 c 0
 74.954 68.523 69.477 95.477 69.477 145.385 c 3
 69.477 199.431 71.523 257.862 73.908 312 c 0
 73.908 317.23 74.201 348.649 68.971 348.649 c 3
 63.264 348.649 35.586 328.063 29.109 324.632 c 1
 17.678 350.385 l 1
 56.77 372.833 87.874 394.477 118.903 421.046 c 1
 139.765 408.385 l 1
 126.196 333.615 120.673 245.414 120.673 163.167 c 3
 120.673 91.213 135.673 28.736 205.719 28.736 c 3
 257.983 28.736 332.448 60.414 376.327 78.799 c 1
 374.465 133.012 378.988 306.741 378.988 314.695 c 3
 378.988 352.264 362.344 350.356 311.034 342.293 c 1
 301.649 369 l 1
EndSplineSet
Substitution2: "case-1" U
Substitution2: "pcap-1" u.pcap
Substitution2: "smcp-1" u.smcp
EndChar

StartChar: v
Encoding: 118 118 21
GlifName: v
Width: 418
VWidth: 1159
Flags: HMW
AnchorPoint: "Bottom" 193 -15 basechar 0
AnchorPoint: "Top" 210 465 basechar 0
LayerCount: 2
Fore
SplineSet
419 387.816 m 1
 378.569 372.063 377.958023756 370.469249096 360 331.925 c 0
 329.523 266.109 301.615 198.339 271.569 133 c 0
 251 88.523 225.908 38 207.615 -20 c 1
 183.293 -20 l 1
 151.954 110.908 100.862 247.816 59.293 348.77 c 0
 55.0751472174 358.911750657 51.1560759352 370.024538681 37.816 371.77 c 0
 27.862 373.293 14.431 377.339 3 378.862 c 1
 6 405 l 1
 26.138 401 56.891 400 77.029 400 c 3
 111.506 400 160.983 405 193.46 411 c 1
 198.46 382.816 l 1
 177.69 377.339 127.242 373.339 127.242 373.339 c 0
 120.242 372.339 116.242 371.339 116.242 362.816 c 3
 116.242 361.816 117.843578329 351.83049489 119.242 346.816 c 0
 142.213 265.322 187.075 146.581 212.075 66.133 c 1
 250.46 147.058 292.692554555 243.032940942 323.678 329.54 c 0
 326.155 336.54 328.678 342.54 328.678 351.54 c 3
 328.678 374.971 322.063 372.908 266.385 384.816 c 1
 274.385 412 l 1
 306.339 405 321.293 404 339.77 404 c 3
 363.339 404 391.431 409 411 415 c 1
 419 387.816 l 1
EndSplineSet
Substitution2: "case-1" V
Substitution2: "pcap-1" v.pcap
Substitution2: "smcp-1" v.smcp
EndChar

StartChar: w
Encoding: 119 119 22
GlifName: w
Width: 657
VWidth: 1159
Flags: HMW
AnchorPoint: "Bottom" 294 -15 basechar 0
AnchorPoint: "Top" 323 465 basechar 0
LayerCount: 2
Fore
SplineSet
659 387.339 m 1
 626.678 371.586 626.498023756 369.992249096 609.017 335.741 c 0
 574.247 268.494 530.385 199.77 495.092 133 c 0
 472.138 89 445.661 38 425.937 -20 c 1
 399.707 -20 l 1
 377.276 82.431 350.138 189.862 323.862 280.293 c 1
 302.339 231.816 280.282157859 183.656315718 258.293 136.339 c 0
 236.77 90.431 211.678 38.954 191 -20 c 1
 161.678 -20 l 1
 145.046 98 94.569 242.092 52.046 344.477 c 0
 46.8741472174 356.526750657 41.0470759352 370.501538681 32 371.77 c 0
 23 372.816 12 375.908 2 378.385 c 1
 5 405 l 1
 22.753 401 51.121 400 68.874 400 c 3
 101.92 400 138.966 402 170.012 408.477 c 1
 174.012 380.293 l 1
 151.811 374.339 114.794 373.339 114.794 373.339 c 0
 109.225 372.816 106.179 371.816 106.179 365.201 c 3
 106.179 361.339 109.165578329 350.39949489 111.518 343.477 c 0
 137.828 259.121 171.075 155.334 196.552 71.07 c 1
 236.276 153.765 268.569 224.075 312.77 317.155 c 1
 309.201 328.155 305.678 340.678 302.586 351.155 c 0
 299.017 364.017 296.880075935 369.070538681 285.925 371.293 c 0
 274.54 372.816 258.201 376.862 245.339 378.385 c 1
 248.339 405 l 1
 269.431 401 301.092 400 322.184 400 c 3
 352.845 400 396.598 405.477 425.259 412.431 c 1
 430.259 384.247 l 1
 412.828 378.293 372.012 373.816 372.012 373.816 c 0
 364.535 372.816 359.535 371.816 359.535 362.816 c 3
 359.535 361.816 360.613578329 351.83049489 361.535 346.816 c 0
 377.351 263.891 405.305 143.719 429.351 63.271 c 1
 472.506 151.828 524.385 240.523 573.172 335.264 c 0
 577.223899725 342.953090537 579.603 348.264 579.603 357.264 c 3
 579.603 373.54 572.465 374.816 519.649 385.77 c 1
 526.218 413.431 l 1
 559.126 405 576.08 404 595.034 404 c 3
 613.356 404 633.724 409 649 415 c 1
 659 387.339 l 1
EndSplineSet
Substitution2: "case-1" W
Substitution2: "pcap-1" w.pcap
Substitution2: "smcp-1" w.smcp
EndChar

StartChar: x
Encoding: 120 120 23
GlifName: x
Width: 435
VWidth: 1159
Flags: HW
AnchorPoint: "Bottom" 211 -15 basechar 0
AnchorPoint: "Top" 220 465 basechar 0
LayerCount: 2
Fore
SplineSet
8 20.615 m 1
 38 25.707 50.908 27.322 60 37.891 c 2
 198.109 205.247 l 1
 122.385 337.787 l 2
 95.431 374.155 86.77 373.862 19 375.293 c 1
 19 404 l 1
 36 403 69 401 86 401 c 0
 124 401 169 403 205 407 c 1
 209 378.816 l 1
 171.121 374.954 160.305 374.816 160.305 369.816 c 3
 160.305 367.816 161.782 364.293 162.782 362.293 c 2
 227.753 238.414 l 1
 306.448 335.017 l 2
 312.925 342.494 325.879 355.925 325.879 365.971 c 3
 325.879 378.908 282.247 375.816 260.431 379.954 c 1
 263 405 l 1
 279 404 306 404 322 404 c 0
 352 404 399 406 420 407 c 1
 423 382.477 l 1
 381.753 375.816 372.77 365.356 357.77 348.402 c 0
 319.477 303.549666667 281.184 258.220333333 242.891 213.368 c 1
 273.845 158.193666667 302.276 103.019333333 332.753 48.322 c 0
 348.707 26.138 368.506 28.661 427 21.092 c 1
 423 -5 l 1
 396 -1 346 2 318 2 c 0
 291 2 261 -1 230 -5 c 1
 227 19.092 l 1
 277.787 28.431 284.695 22.138 284.695 33.092 c 3
 284.695 35.092 283.741 38.092 282.264 40.569 c 2
 211.724 178.678 l 1
 112.891 53.891 l 2
 108.891 48.891 105.891 43.891 105.891 38.891 c 3
 105.891 27.23 118.322 26.184 166.523 20.661 c 1
 163 -6 l 1
 141 -4 111 -1 88 -1 c 0
 63 -1 34 -4 11 -6 c 1
 8 20.615 l 1
EndSplineSet
Substitution2: "case-1" X
Substitution2: "pcap-1" x.pcap
Substitution2: "smcp-1" x.smcp
EndChar

StartChar: y
Encoding: 121 121 24
GlifName: y
Width: 446
VWidth: 1159
Flags: HMW
AnchorPoint: "Bottom" 291 -15 basechar 0
AnchorPoint: "Top" 232.5 465 basechar 0
LayerCount: 2
Fore
SplineSet
96.782 -346 m 1
 93.736 -346 79.983 -343 52 -343 c 3
 22.477 -343 15.477 -345 -5.046 -346 c 1
 -5.046 -346 -4.046 -331.908 -6.046 -322.339 c 1
 74.506 -296.833 49.627 -305.085 186.494 -21.983 c 1
 150.862 108.551211382 83.092 311.915731707 60.385 350.862 c 0
 51.954 366.586 49.862 370.247 41.77 373.339 c 0
 31.816 374.862 18.862 376.908 7.908 378.862 c 1
 11.908 406 l 1
 31.569 402 62.276 400 81.937 400 c 3
 114.029 400 140.598 401 170.69 407 c 1
 174.69 380.908 l 1
 165.627 379.477 133.104 372.862 124.041 372.862 c 0
 117.518 372.339 115.426 371.339 115.426 365.678 c 3
 115.426 362.77 118.38 355.293 120.334 348.862 c 0
 141.874 270.625174074 181.506 148.94912963 219.799 43.535 c 1
 267.753 131.410242798 316.523 238.129683128 351.063 330.925 c 0
 354.017 338.402 357.494 350.741 357.494 357.356 c 3
 357.494 372.678 349.063 369.385 276.724 384.339 c 1
 282.724 411 l 1
 314.201 404 357.678 400 375.678 400 c 3
 396.385 400 419.138 402 436.322 408 c 1
 441.322 380.862 l 1
 402.368 370.385 400.046 367.77 383.954 328.54 c 0
 368.954 292.49774375 296.862 135.7639375 223.954 -11.523 c 0
 138.932 -180.998 93.92 -295.31 96.782 -346 c 1
EndSplineSet
Substitution2: "case-1" Y
Substitution2: "pcap-1" y.pcap
Substitution2: "smcp-1" y.smcp
EndChar

StartChar: z
Encoding: 122 122 25
GlifName: z
Width: 453
VWidth: 1159
Flags: HMW
AnchorPoint: "Bottom" 226 -15 basechar 0
AnchorPoint: "Top" 232.5 465 basechar 0
LayerCount: 2
Fore
SplineSet
353.092 -0.954 m 2
 168.092 -0.954 l 2
 141.569 -0.954 49 -3.046 29.477 -6.184 c 1
 20.569 18.092 l 1
 131.678 124.746191176 245.126 246.99275 348.821 370.247 c 1
 314.419 370.77 281.494 371.293 247.092 371.293 c 3
 199.092 371.293 156.092 371.247 109.092 368.201 c 0
 71.615 365.915296296 57.155 355.058203704 37.615 306.339 c 1
 13.523 314.816 l 1
 50 408.414 l 1
 72 402.615 100.523 400 231.092 400 c 3
 322.138 400 396.184 399.477 419.184 403.138 c 1
 429.184 383.615 l 1
 325.983 268.339728572 211.121 152.056985714 100.271 26.707 c 1
 281.092 27.23 l 2
 315.908 27.23 354.833 28.414 370.632 38.46 c 0
 383.816 47.46 392.092 58.937 401.615 81.937 c 0
 405.615 91.937 409.569 102.46 414.046 116.983 c 1
 437.092 108.983 l 1
 400.184 -6.184 l 1
 400.184 -6.184 382.661 -0.954 353.092 -0.954 c 2
EndSplineSet
Substitution2: "case-1" Z
Substitution2: "pcap-1" z.pcap
Substitution2: "smcp-1" z.smcp
EndChar

StartChar: A
Encoding: 65 65 26
GlifName: A_
Width: 705
VWidth: 1159
Flags: HMW
AnchorPoint: "Bottom" 353 -15 basechar 0
AnchorPoint: "Ogonek" 523 27 basechar 0
AnchorPoint: "Top" 367 699 basechar 0
LayerCount: 2
Fore
SplineSet
230.799 299.879 m 1
 294.293 297.264 416.695 296.833 475.712 296.833 c 1
 431.465 413.051 402.603 485.93 357.264 604.625 c 1
 311.017 487.884 274.954 406.62 230.799 299.879 c 1
518.022 -8.569 m 1
 518.022 -8.569 514.884 14.385 512.792 22.23 c 1
 562.424 32.23 577.453 33.69 565.068 65.506 c 0
 536.519736842 138.787554622 518.8142 183.770579832 488.85 260.804 c 1
 421.218 266.511 313.724 270.126 217.661 266.465 c 1
 184.882096154 190.801063291 163.662076923 144.077620253 133.966 73.644 c 0
 118.627 35.736 134.995 28.046 211.719 26.845 c 1
 210.673 -7.615 l 1
 183.452337781 -2.74326755608 142.023723571 0.15486836104 102.539951215 0.15486836104 c 1
 70.3584785458 0.15486836104 39.5323377804 -1.67714472684 17 -5.477 c 1
 17 -5.477 14.908 19.046 14.385 26.368 c 1
 63.862 37.029 76.891 38.397 90.753 68.552 c 0
 185.248364706 280.3206914 266.269364706 470.362777403 335.908 641.431 c 0
 351.385 679.908 350.293 680.431 356.678 711.523 c 1
 388.707 711.523 l 1
 395.615 684.523 393 682.908 407.477 643.431 c 0
 489.398900862 409.183455738 539.482706897 266.500763935 632.724 51.029 c 0
 642.816 27.891 657.799 28.276 692.477 24.845 c 1
 692.477 24.845 691.954 0.845 691.431 -5.431 c 1
 664.005137592 -1.40924603529 638.180439779 1.29176110821 610.506294945 1.29176110821 c 1
 580.734735537 1.29176110821 549.143306902 -1.57378482615 518.022 -8.569 c 1
EndSplineSet
Position2: "cpsp-1" dx=0 dy=0 dh=50 dv=100
Substitution2: "c2pc-1" a.pcap
Substitution2: "c2sc-1" a.smcp
EndChar

StartChar: B
Encoding: 66 66 27
GlifName: B_
Width: 584
VWidth: 1159
Flags: HMW
AnchorPoint: "Bottom" 282 -15 basechar 0
AnchorPoint: "Top" 249 699 basechar 0
LayerCount: 2
Fore
SplineSet
16.385 27.322 m 1
 72.448 30.276 91.23 29.322 92.276 63.937 c 0
 92.276 69.3666942149 93.845 171.285190082 93.845 292 c 3
 93.845 466.654692308 90.184 615.575538462 89.661 624.971 c 0
 89.138 642.603 87.569 651.017 66.569 654.586 c 0
 60.046 656.109 22.339 661.678 15.816 662.678 c 1
 21.385 693.523 l 1
 30.908 693.523 70 684 122.569 684 c 3
 173.661 684 226.753 694 274.845 694 c 3
 424.121 694 463.69 577.035516484 463.69 516.569 c 3
 463.69 446.250885906 414.644 398.411295302 333.615 369 c 1
 456.615 354.535787234 541.845 278.461776596 541.845 181.954 c 3
 541.845 69.6203979058 439.845 -4.954 280.845 -4.954 c 3
 229.753 -4.954 181.661 1.046 126.569 1.046 c 3
 69.477 1.046 25.908 -2.954 18.908 -2.954 c 1
 16.385 27.322 l 1
274.845 379.569 m 0
 359.586 390.400342857 405.172 443.1005 405.172 506.632 c 3
 405.172 544.755778481 383.787 661.109 265.431 661.109 c 3
 249.523 661.109 220.23 659.109 209.322 657.109 c 0
 154.886 649.247 153.363 642.126 152.84 624.971 c 0
 147.61 565.872 148.656 377.569 148.656 377.569 c 1
 253.075 377.569 261.983 378.092 274.845 379.569 c 0
250.845 350.431 m 0
 147.61 350.431 l 1
 148.133 246.016907217 148.133 144.06014433 149.179 81.213 c 0
 149.702 41.828 153.271 36.029 208.845 31.937 c 0
 218.368 30.891 260.983 26.368 285.552 26.368 c 3
 395.201 26.368 483.327 78.8583832336 483.327 180.385 c 3
 483.327 263.916368421 416.264 350.431 250.845 350.431 c 0
EndSplineSet
Position2: "cpsp-1" dx=0 dy=0 dh=50 dv=100
Substitution2: "c2pc-1" b.pcap
Substitution2: "c2sc-1" b.smcp
EndChar

StartChar: C
Encoding: 67 67 28
GlifName: C_
Width: 743
VWidth: 1159
Flags: HW
AnchorPoint: "Bottom" 416 -15 basechar 0
AnchorPoint: "Top" 426 699 basechar 0
LayerCount: 2
Fore
SplineSet
46.339 348 m 3
 46.339 529.534545668 172.247 711.431 450.339 711.431 c 3
 510.431 711.431 543.046 708.862 601.569 693.77 c 0
 641.615 684.950571428 671.971 680.933571428 682.201 686.615 c 1
 705.862 673.569 l 1
 668.339 614.523 669.339 577.523 669.339 556 c 0
 669.339 545.54 657.368 541.879 640.632 541.879 c 1
 631.833 593.232761468 649.08 627.079798165 620.804 641.218 c 0
 559.172 668.448 515.218 679.063 443.017 679.063 c 3
 256.305 679.063 111.656 560.526283366 111.656 358.46 c 3
 111.656 149.801490635 278.92 20.414 448.661 20.414 c 3
 560.678 20.414 646.017 62.064106383 674.908 162.414 c 1
 700.477 156.799 l 1
 691.954 112.184 684.431 87.138 673.385 42.523 c 1
 610.862 11.735 539.109 -13 441.339 -13 c 3
 221.339 -13 46.339 137.904660578 46.339 348 c 3
EndSplineSet
Position2: "cpsp-1" dx=0 dy=0 dh=50 dv=100
Substitution2: "c2pc-1" c.pcap
Substitution2: "c2sc-1" c.smcp
EndChar

StartChar: D
Encoding: 68 68 29
GlifName: D_
Width: 792
VWidth: 1159
Flags: HW
AnchorPoint: "Bottom" 357 -15 basechar 0
AnchorPoint: "Top" 357 699 basechar 0
LayerCount: 2
Fore
SplineSet
314.983 30.322 m 1
 532.155 30.322 679.804 134.932471278 679.804 342.862 c 3
 679.804 528.537359796 531.787 662.339 319.632 662.339 c 3
 258.121 662.339 223.706870087 657.85249072 161.685 652.339 c 0
 133.685 649.293 138.886 645.603 138.886 616.063 c 0
 138.886 508.720106897 138.093763314 409.878983554 138.093763314 310.672881955 c 3
 138.093763314 232.109733461 137.926230769 153.223077981 138.932 69.782 c 0
 138.932 51.782 136.208 37.598 163.731 35.506 c 0
 204.271 32.891 254.673 30.322 314.983 30.322 c 1
13 685.138 m 1
 52.661 684.092 75.753 682 115.414 682 c 3
 202.414 682 250.414 693.138 337.414 693.138 c 3
 557.184 693.138 740.414 553.741415274 740.414 348.092 c 3
 740.414 79.1423645135 522.661 -4.138 313.414 -4.138 c 3
 239.414 -4.138 196.414 0 122.414 0 c 3
 54.138 0 45.046 -3.569 17.431 -7.138 c 1
 14.954 24.184 l 1
 67.879 27.23 78.414 28.707 80.414 57.891 c 1
 82.3350304309 126.183008931 83.1270794724 217.452555209 83.1270794724 308.69656773 c 3
 83.1270794724 431.268136074 81.2540726122 553.716387653 78.276 620.724 c 1
 76.276 656.247 72.632 651.293 12.477 652.247 c 1
 13 685.138 l 1
EndSplineSet
Position2: "cpsp-1" dx=0 dy=0 dh=50 dv=100
Substitution2: "c2pc-1" d.pcap
Substitution2: "c2sc-1" d.smcp
EndChar

StartChar: E
Encoding: 69 69 30
GlifName: E_
Width: 619
VWidth: 1159
Flags: HW
AnchorPoint: "Bottom" 296 -15 basechar 0
AnchorPoint: "Ogonek" 535 15 basechar 0
AnchorPoint: "Top" 299 699 basechar 0
LayerCount: 2
Fore
SplineSet
16.523 687.661 m 1
 54.4515322033 685.754883037 158.135808592 685.02965625 237.897016602 685.02965625 c 3
 369.354531722 685.02965625 525.29448783 687.235467316 533.937 689.23 c 1
 544.059055558 680.313601655 547.575971679 674.571698755 547.575971679 665.752456054 c 3
 547.575971679 649.40304151 535.025378209 622.181636104 527.937 543.632 c 1
 500.799 542.063 l 1
 496 604.696852359 528.835990729 639.605787465 469.937 644.833 c 0
 423.422613244 650.558816593 352.267490952 654.286837891 283.414597656 654.286837891 c 3
 248.16547724 654.286837891 213.754642374 653.415726753 183.564 651.632 c 0
 144.576 650.586 143.501 645.649 142.978 623.356 c 0
 140.886 532.171442803 138.271 448.499533856 137.748 364.707 c 1
 214.627 365.753 395.615 365.753 412.477 366.276 c 0
 448.523 368.891 446.845 376.288 465.707 434.598 c 1
 494.937 430.937 l 1
 486.832875049 402.868470775 483.19153668 374.921598053 483.19153668 346.979032091 c 3
 483.19153668 316.906770333 487.096669086 287.316470775 492.937 257.109 c 1
 462.661 252.402 l 1
 443.615 327.218 450.723674866 329.724 412.477 331.816 c 0
 359.414 334.431 249.351 333.908 137.748 334.431 c 1
 137.225 227.406374856 139.317 135.858493327 145.593 62.874 c 0
 147.685 43.012 146.664330986 37.121 186.564 36.598 c 0
 242.015706738 34.2783509608 290.380065186 32.085717753 336.209125924 32.085717753 c 1
 384.05498622 32.085717753 428.823147442 34.4082083354 476.649 41.305 c 0
 518.477 51.765 526.569 79.3068695652 559.845 166.506 c 1
 585.46 159.983 l 1
 573.276 106.206509678 558.937 56.7283806452 547.414 0 c 1
 492.622139665 -0.285374272563 340.858669998 1.60554540086 229.02745517 1.60554540086 c 3
 151.047392048 1.60554540086 56.9748143822 0.289000797072 26.523 -4.707 c 1
 21.293 25.046 l 1
 71.908 29.799 83.937 36.121 83.937 64.598 c 1
 84.8773325419 82.7668960035 85.3949952514 218.560700691 85.3949952514 326.55918779 c 3
 85.3949952514 446.251113629 84.6185011871 602.039582357 82.891 626.632 c 0
 82.368 651.724 85.477 651.724 13.908 660 c 1
 16.523 687.661 l 1
EndSplineSet
Position2: "cpsp-1" dx=0 dy=0 dh=50 dv=100
Substitution2: "c2pc-1" e.pcap
Substitution2: "c2sc-1" e.smcp
EndChar

StartChar: F
Encoding: 70 70 31
GlifName: F_
Width: 566
VWidth: 1159
Flags: HW
AnchorPoint: "Bottom" 171 -15 basechar 0
AnchorPoint: "Top" 309 699 basechar 0
LayerCount: 2
Fore
SplineSet
271.639 -10.046 m 1
 227.9635 -2.55848206209 196.03375 0.810803222656 161.646375 0.810803222656 c 3
 128.213 0.810803222656 92.799 -2.63379785156 41.201 -9 c 1
 33.109 20.276 l 1
 86.586 31.2981428572 99.661 34.1789285714 99.661 57.443 c 1
 100.298263595 69.7103242126 100.552968789 254.319213836 100.552968789 286.795183022 c 1
 100.552968789 360.930870334 99.2256715339 595.749709864 98.092 626.356 c 0
 97.569 648.109 89.77 648.109 19.155 655.908 c 1
 21.77 683.569 l 1
 75.1595426542 681.631570721 136.239293712 680.986764264 196.366129754 680.986764264 c 3
 352.656054117 680.986764264 502.913300496 686.236643919 506.506 695.23 c 1
 526.035748449 686.379442089 530.368 675.845 530.368 657.707 c 1
 530.368 640.954 527.540360522 608.716189892 526.184 563.574 c 1
 498.523 562.005 l 1
 491.816 614.223 499.250722908 636.959443242 461.247 641.695 c 0
 387.753 649.678 269.641778321 653.345639648 174.748 648.632 c 0
 159.61 647.586 156.552286133 638.698064453 156.087 617.356 c 0
 153.995 532.605045454 154.518 452.249784091 154.518 373.862 c 1
 231.874 374.908 391.587499023 372.878821289 408.402 373.862 c 0
 438.724 376.477 440.431 389.598 456.431 434.075 c 1
 485.184 426.121 l 1
 477.079875049 401.391470775 473.43853668 376.783598053 473.43853668 352.180032091 c 3
 473.43853668 325.923770333 477.343669086 299.672470775 483.184 273.281 c 1
 453.385 265.712 l 1
 435.293 329.557 441.734248047 336.969334961 408.402 339.402 c 0
 355.339 342.017 266.075 341.494 153.995 342.017 c 1
 156.61 215.661 152.758493164 134.708287109 160.794 61.443 c 0
 162.886 40.839 167.07 37.9031 278.593 28.644 c 1
 271.639 -10.046 l 1
EndSplineSet
Position2: "cpsp-1" dx=0 dy=0 dh=50 dv=100
Substitution2: "c2pc-1" f.pcap
Substitution2: "c2sc-1" f.smcp
EndChar

StartChar: G
Encoding: 71 71 32
GlifName: G_
Width: 803
VWidth: 1159
Flags: HW
AnchorPoint: "Bottom" 426 -15 basechar 0
AnchorPoint: "Top" 449 699 basechar 0
LayerCount: 2
Fore
SplineSet
43 355 m 3
 43 597.808870117 284.828 711.046 466 711.046 c 3
 537.586 711.046 596.034 694.092 641.218 666.69 c 0
 657.77 661.121 658.724 663.874 661.569 696.753 c 1
 686.615 698.138 l 1
 704.092 539.385 l 1
 675.954 535.293 l 1
 651.988 633.201 571.896 679.724 453.971 679.724 c 3
 247.707 679.724 106.702 530.408639648 106.702 362.661 c 3
 106.702 171.979171668 259.271 16.276 463.92 16.276 c 3
 515.104 16.276 581.494 30.976862069 646.235 50.368 c 0
 661.712 54.983 662.235 62.828 662.235 89.368 c 0
 662.235 135.491980286 663.281 212.18702957 663.281 281.373 c 0
 663.281 300.448 661.574 313.293 629.269 315.385 c 0
 569.603 316.431 548.511 317.908 501.724 321.293 c 1
 503.724 349.477 l 1
 600.477 339.477 706.276 340 752.891 346.954 c 1
 755.891 322.954 l 1
 725.983 316.908 720.753 313.247 720.23 298.448 c 0
 719.184 214.176019312 718.661 136.974771562 717.615 76.736 c 0
 717.092 59.029 721.184 55.845 745.615 49.431 c 1
 745 27 l 1
 666 15.0627631579 502 -14.523 448 -14.523 c 3
 207.121 -14.523 43 151.71022904 43 355 c 3
EndSplineSet
Position2: "cpsp-1" dx=0 dy=0 dh=50 dv=100
Substitution2: "c2pc-1" g.pcap
Substitution2: "c2sc-1" g.smcp
EndChar

StartChar: H
Encoding: 72 72 33
GlifName: H_
Width: 831
VWidth: 1159
Flags: HW
AnchorPoint: "Bottom" 419 -15 basechar 0
AnchorPoint: "Top" 427 699 basechar 0
LayerCount: 2
Fore
SplineSet
31.448 691.477 m 1
 71.908 685 107.845 681 146.782 681 c 1
 174.627 681 202.995 683 236.932 687.477 c 1
 239.886 656.678 l 1
 197.622 647.908 165.911123641 655.978741847 164.61 636.724 c 0
 161.472 600.159806452 159.38 471.662129032 158.334 367.385 c 1
 285.946 363.724 633.768 368.954 694.436 367.385 c 1
 694.436 436.025330739 694.103914187 514.980760243 691.821 615.247 c 0
 690.821 661.31 670.901 643.569 617.022 662.724 c 1
 623.453 691 l 1
 654.913 684.523 680.804 681 706.172 681 c 1
 735.063 681 764.954 686 803.46 698 c 1
 811.368 668.632 l 1
 762.368 649 756.484794933 662.456718916 755.569 628.247 c 0
 751.908 541.657784452 746.678 394.124335689 746.678 273.32 c 1
 746.678 174.008266909 747.792547371 81.56342727 751.908 45.707 c 0
 756.615 19.276 771.259 28.293 813.184 16.753 c 1
 813.184 16.753 806.753 -4.201 807.276 -11.523 c 1
 779.908 -4.523 751.54 0 722.126 0 c 1
 691.712 0 660.298 -5.954 626.838 -14.523 c 1
 626.838 -14.523 619.407 8 618.361 14.276 c 1
 672.993 31.431 688.211053356 22.9333110414 689.206 54.707 c 0
 692.867 159.706369205 693.913 225.572166416 694.436 335.017 c 1
 657.826 337.632 235.738 337.109 157.811 335.017 c 1
 157.288 240.769147376 156.3270047 131.289887014 158.334 57.753 c 0
 159.38 20.322 186.099 31.477 234.794 17.322 c 1
 234.794 17.322 229.363 -5.201 228.84 -12.523 c 1
 187.811 -4 152.874 0 118.937 0 c 1
 90.046 0 62.201 -3 33.31 -10.523 c 1
 33.31 -10.523 26.879 12.523 25.833 21.937 c 1
 74.235 37 94.6458951236 23.1884122412 96.155 57.753 c 0
 100.77 146.79362038 102.908 293.005943453 102.908 414.869 c 1
 102.908 514.715204947 101.428209981 602.82660104 98.77 631.724 c 0
 95.109 655.632 78.373 650.862 27.971 660.155 c 1
 31.448 691.477 l 1
EndSplineSet
Position2: "cpsp-1" dx=0 dy=0 dh=50 dv=100
Substitution2: "c2pc-1" h.pcap
Substitution2: "c2sc-1" h.smcp
EndChar

StartChar: I
Encoding: 73 73 34
GlifName: I_
Width: 341
VWidth: 1159
Flags: HW
AnchorPoint: "Bottom" 167 -15 basechar 0
AnchorPoint: "Ogonek" 234 15 basechar 0
AnchorPoint: "Top" 171 699 basechar 0
LayerCount: 2
Fore
SplineSet
22 695 m 1
 80.9674089655 685.446902057 126.983226043 681.456040869 174.065360756 681.456040869 c 3
 219.885726334 681.456040869 266.25850261 685.316459625 327 692 c 1
 329 657.586 l 1
 232.84 649.385 212.012 659.385 209.92 616 c 0
 206.101831215 537.83546212 201.822925331 432.739442763 201.822925331 296.816349712 c 3
 201.822925331 224.894724451 202.444700052 145.501939364 205.259 55.506 c 0
 206.305 23.661 241.61 31.523 329 22.845 c 1
 328 -9.477 l 1
 276.257740819 -3.6811301882 219.138097813 -0.0634173957096 164.003247388 -0.0634173957096 c 3
 110.952630468 -0.0634173957096 59.807756943 -3.07301612411 17 -10.477 c 1
 12.954 22.368 l 1
 114.453 30.954 145.695 21.276 146.741 62.213 c 0
 149.646530872 138.146814732 150.834614629 238.478794467 150.834614629 336.925497398 c 3
 150.834614629 445.059802794 149.25361604 551.005223558 146.172 616.385 c 0
 144.08 655.724 97.712 649.862 18 660.586 c 1
 22 695 l 1
EndSplineSet
Position2: "cpsp-1" dx=0 dy=0 dh=50 dv=100
Substitution2: "c2pc-1" i.pcap
Substitution2: "c2sc-1" i.smcp
EndChar

StartChar: J
Encoding: 74 74 35
GlifName: J_
Width: 337
VWidth: 1356
Flags: HMW
AnchorPoint: "Bottom" 189 -138.8 basechar 0
AnchorPoint: "Top" 172 699 basechar 0
LayerCount: 2
Fore
SplineSet
135.494 623.063 m 0
 131.833 661.448 105.637 646.046 14 661.063 c 1
 18 693.431 l 1
 72.8990992462 684.954435442 116.236671056 681.441380762 160.116016096 681.441380762 c 3
 209.047549384 681.441380762 252.812829373 686.304251646 323 693.431 c 1
 325 659.494 l 1
 222.162 647.954 201.334 662.724 199.242 624.109 c 0
 193.489 503.769933333 195.581 380.943266666 195.581 225 c 3
 195.581 108.833 199.196 62.08 199.196 23.85 c 3
 199.196 -89.138 150.598 -151.954 89.707 -198.569 c 0
 70.431 -212.707 40.184 -234.523 15.184 -251 c 1
 -4.569 -223.724 l 1
 18.431 -211.77 38.4313489398 -198.920320848 55.816 -184.385 c 0
 60.816 -180.385 65.7677199075 -176.858466088 69.816 -172.908 c 0
 130.862 -114.862 142.293 -42.879 142.293 65 c 3
 142.293 105.057842478 139.155 586.492288496 135.494 623.063 c 0
EndSplineSet
Position2: "cpsp-1" dx=0 dy=0 dh=50 dv=100
Substitution2: "c2pc-1" j.pcap
Substitution2: "c2sc-1" j.smcp
EndChar

StartChar: K
Encoding: 75 75 36
GlifName: K_
Width: 687
VWidth: 1159
Flags: HW
AnchorPoint: "Bottom" 359 -15 basechar 0
AnchorPoint: "Top" 335 699 basechar 0
LayerCount: 2
Fore
SplineSet
391 684.523 m 1
 414.238405074 682.525439464 440.102053128 681.496626037 466.864555172 681.496626037 c 3
 512.804624464 681.496626037 560.959117891 684.576345681 604 691.523 c 1
 611.092 661.724 l 1
 564.845 651.247 548.862 648.356 525.632 626.695 c 0
 451.235 559.611234899 305.242 448.838332215 197.024 357.937 c 1
 272.867 304.800714286 569.799 73.3426571429 589.356 59.334 c 0
 611.908 41.351 635.167 30.845 676.046 21.092 c 1
 673 -2.908 l 1
 645 -0.908 606 2.092 578 2.092 c 3
 545 2.092 503 -0.908 471 -5.908 c 1
 467 18.615 l 1
 526.097 29.523 543.528 26.322 522.959 45.598 c 0
 495.281 69.22764 272.845 234.23872 152.242 325.54 c 1
 151.765 233.71846 151.811 118.47206 154.38 57.535 c 0
 155.426 27.414 174.547 33.046 276 16.184 c 1
 272 -10.954 l 1
 225.8954 -3.8494 178.27196 0.98324 126.255224 0.98324 c 3
 91.4184 0.98324 55 -1.0586 15 -5.954 c 1
 12 22.753 l 1
 81.31 27.569 93.77 27.845 94.816 52.874 c 0
 97.8172366863 154.341116517 99.7454390547 260.926412456 99.7454390547 367.096470473 c 3
 99.7454390547 448.797299821 98.9451343196 532.909874948 97.385 610.465 c 0
 96.339 654.494 84.678 647.862 16.431 659.862 c 1
 21 687.523 l 1
 56.8222786793 683.283715165 94.0568155008 681.349358757 131.823501916 681.349358757 c 3
 178.663694348 681.349358757 225.112150196 684.296027868 269 688.523 c 1
 272 660.339 l 1
 174.886 648.661 159.564 659.586 156.949 620.879 c 0
 154.334 532.746148014 152.242 449.081685921 152.242 357.954 c 1
 253.799 442.856876325 357.787 524.241809187 455.913 611.189 c 0
 469.775 623.62 474.189 632.942 470.85 638.172 c 0
 469.896 650.89920936 442.264 653.251729492 390 658.477 c 1
 391 684.523 l 1
EndSplineSet
Position2: "cpsp-1" dx=0 dy=0 dh=50 dv=100
Substitution2: "c2pc-1" k.pcap
Substitution2: "c2sc-1" k.smcp
EndChar

StartChar: L
Encoding: 76 76 37
GlifName: L_
Width: 614
VWidth: 1159
Flags: HW
AnchorPoint: "Bottom" 300 -15 basechar 0
AnchorPoint: "TopRight" 348.5 581 basechar 0
AnchorPoint: "Top" 157 699 basechar 0
LayerCount: 2
Fore
SplineSet
286 692.523 m 1
 290 659.632 l 1
 176.765 644.339 156.087 665.724 153.518 602.712 c 0
 151.995 552.193941497 151.472 149.477 151.472 149.477 c 0
 151.472 56.102472 152.995 37.682368 182.07 38.167 c 0
 225.041 39.121 432.649 38.167 467.097 36.782 c 0
 519.448 37.422986014 540.339 63.9110699301 567.247 165.046 c 1
 597 159 l 1
 590.799 97.707 566.397 63.806 557.046 -20.046 c 1
 536.954 -13.6554705882 524.276 -4.31876470588 486 -2.431 c 0
 475 -1.954 386 1.046 284 1.046 c 3
 69 1.046 34 -7.954 23 -7.954 c 1
 18.954 26.029 l 1
 87.494 32.029 92.431 30.213 92.954 65.029 c 0
 92.954 69.0445755102 94 172.235114286 94 300 c 3
 94 461.426122185 91.385 616.34463043 90.862 627.879 c 0
 89.816 653.494 85.925 651.339 12 660.017 c 1
 16 695.523 l 1
 56.1949211055 685.597030893 101.787572251 681.760354563 146.040066426 681.760354563 c 3
 196.182490499 681.760354563 245.831697721 686.608745723 286 692.523 c 1
EndSplineSet
Position2: "cpsp-1" dx=0 dy=0 dh=50 dv=100
Substitution2: "c2pc-1" l.pcap
Substitution2: "c2sc-1" l.smcp
EndChar

StartChar: M
Encoding: 77 77 38
GlifName: M_
Width: 958
VWidth: 1159
Flags: HW
AnchorPoint: "Bottom" 465 -15 basechar 0
AnchorPoint: "Top" 499 699 basechar 0
LayerCount: 2
Fore
SplineSet
945.477 -4.724 m 1
 906.892588716 2.16125659702 863.714892759 6.02064092971 818.147354943 6.02064092971 c 3
 781.575819488 6.02064092971 720.957595736 1.4235272324 669.184 -7.724 c 1
 664.661 23.598 l 1
 782.867 40.799 794.896 35.196 794.942 94.61 c 0
 794.979230769 258.551623242 789.272769231 417.087808398 780.942 571.051 c 1
 703.034 431.706269531 626.218 290.817054687 553.109 144.891 c 0
 533.109 104.799 503.092 38.69 495.954 6.138 c 1
 460.632 6.138 l 1
 459.632 44.443 425.236573242 117.619052734 403.615 159.138 c 2
 189.489 566.281 l 1
 175.782 414.093558636 165.213 251.043336405 158.966 84.087 c 0
 158.012 27.506 171.38 38.322 274.753 22.891 c 1
 270.707 -10 l 1
 230.813217041 -4.00167654043 183.694507039 0.110024428761 134.532242647 0.110024428761 c 3
 94.8899150107 0.110024428761 53.5351716945 -2.8549250321 14 -10 c 1
 12 22.891 l 1
 107.247 36.707 115.590550781 35.5058876953 118.23 79.903 c 2
 145.661 554.758 l 2
 147.661 588.942 149 627.281 126.569 640.218 c 0
 109.523 650.586 85.477 658.293 23.862 661.678 c 1
 29 696.138 l 1
 72.69 691.046 133.058 684 178.932 683.615 c 0
 194.547 682.661 201.409 670.138 206.886 658.138 c 0
 297.627 468.106520508 397.368 285.984606446 491.276 107.559 c 1
 789.034 673.707 l 0
 794.034 682.707 803.034 686.23 809.034 685.707 c 0
 850.402 682.092 898.678 683.138 941 688.138 c 1
 944.523 656.247 l 1
 851.397 647.569 835.322 654.833 835.799 608.666 c 0
 837.843285714 433.635904029 843.001714286 258.12335431 848.707 89.564 c 0
 851.276 31.351 862.736 37.845 946.477 29.213 c 1
 945.477 -4.724 l 1
EndSplineSet
Position2: "cpsp-1" dx=0 dy=0 dh=50 dv=100
Substitution2: "c2pc-1" m.pcap
Substitution2: "c2sc-1" m.smcp
EndChar

StartChar: N
Encoding: 78 78 39
GlifName: N_
Width: 836
VWidth: 1159
Flags: HW
AnchorPoint: "Bottom" 431 -15 basechar 0
AnchorPoint: "Top" 427 699 basechar 0
LayerCount: 2
Fore
SplineSet
14 690.092 m 1
 46.322 686.092 89.7207825247 683.396405905 123.581 682.569 c 0
 138.581 682.092 139.724483051 678.709281066 146.581 671.569 c 0
 331.322 479.711396172 518.247 290.061057461 709.494 104.513 c 1
 713.94467324 212.35539183 715.812325196 319.721143098 715.812325196 431.590645508 c 3
 715.812325196 481.039383124 719.056687378 531.018479992 718.063 581.545 c 0
 717.063 666.339 689.39 649.138 597 662.339 c 1
 601 694.138 l 1
 656.748712931 687.046719465 703.156235891 684.275900391 747.141986328 684.275900391 c 3
 776.086227765 684.275900391 803.919764329 685.331366529 832 687.138 c 1
 837 654.339 l 1
 776.075 648.339 761.826018255 653.681177495 759.184 614.54 c 0
 748.158227796 445.983706537 745 266.26592266 745 86 c 0
 745 63.477 748.138 23.954 751.276 1.431 c 1
 721.908 -8.138 l 1
 701.138 28.661 666.688342858 68.6764886635 634.661 101.661 c 0
 474.414 266.671431459 312.121 429.124576786 146.69 586.729 c 1
 141.983 110.116 l 2
 140.735256836 26.4621298828 160.242 41.4909228516 275.092 24.983 c 1
 269 -11 l 1
 230.248568374 -2.91107388061 193.184799147 0.0183407628103 158.077507132 0.0183407628103 c 3
 109.146826354 0.0183407628103 64.0556765842 -5.25374166369 24 -10 c 1
 19.954 24.937 l 1
 91.787 29.707 100.426220413 32.1424448663 101.77 72.489 c 0
 104.634331524 188.253407156 106.807574655 308.734042513 106.807574655 430.173296865 c 3
 106.807574655 487.889171392 106.524214008 545.685501289 105.954 603.436 c 0
 105.431 636.419 87.603 651.385 12 656.109 c 1
 14 690.092 l 1
EndSplineSet
Position2: "cpsp-1" dx=0 dy=0 dh=50 dv=100
Substitution2: "c2pc-1" n.pcap
Substitution2: "c2sc-1" n.smcp
EndChar

StartChar: O
Encoding: 79 79 40
GlifName: O_
Width: 845
VWidth: 1159
Flags: HW
AnchorPoint: "Horn" 713.5 573 basechar 0
AnchorPoint: "Middle" 423.697 364.853 basechar 0
AnchorPoint: "Bottom" 422 -15 basechar 0
AnchorPoint: "Ogonek" 486 11 basechar 0
AnchorPoint: "Top" 426 699 basechar 0
LayerCount: 2
Fore
SplineSet
408.649 671.925 m 3
 239.506 671.925 103.087 532.872343471 103.087 363.397 c 3
 103.087 187.292797465 249.903 24.598 439.937 24.598 c 3
 619.649 24.598 737.729 168.682062837 737.729 331.494 c 3
 737.729 516.451734411 589.143 671.925 408.649 671.925 c 3
428 709 m 3
 635 709 802 543.739007971 802 341.954 c 3
 802 146.126572506 644 -13 430 -13 c 3
 216 -13 43 145.13443412 43 341.954 c 3
 43 537.816250551 218 709 428 709 c 3
EndSplineSet
Position2: "cpsp-1" dx=0 dy=0 dh=50 dv=100
Substitution2: "c2pc-1" o.pcap
Substitution2: "c2sc-1" o.smcp
EndChar

StartChar: P
Encoding: 80 80 41
GlifName: P_
Width: 596
VWidth: 1159
Flags: HW
AnchorPoint: "Bottom" 162 -15 basechar 0
AnchorPoint: "Top" 294 699 basechar 0
LayerCount: 2
Fore
SplineSet
276.494 272.276 m 3
 395.896 272.276 506.005 333.117570312 506.005 462.816 c 3
 506.005 538.691371728 448.436 618.406832461 374.908 643.971 c 0
 314.581 664.741 249.225 655.954 178.455 655.954 c 3
 169.656 655.954 162.949 648.678 162.949 636.063 c 0
 163.995 560.015039319 165.38 424.533439835 167.811 290 c 1
 201.259 276.707 235.184 272.276 276.494 272.276 c 3
15 686.046 m 1
 41 684.046 75 682.046 114 682.046 c 3
 185 682.046 224 693.046 295 693.046 c 3
 460 693.046 564 574.123519824 564 467 c 3
 564 339.102958008 457.707 242 272.31 242 c 3
 232.615 242 203.69 246.954 169.38 256.678 c 1
 170.426 178.716443439 170.903 105.757588235 173.518 58.259 c 0
 176.656 25.7134137931 187.593 34.8285517241 265.271 26.983 c 1
 260.317 -9.046 l 1
 214.539580283 -2.66322080192 182.914005574 1.48237085204 148.543666283 1.48237085204 c 3
 120.111561536 1.48237085204 90.5827924177 -1.64631397581 50.31 -9.569 c 1
 40.126 21.276 l 1
 105.063 40.2351386719 112.908 28.9689033203 113.431 63.259 c 0
 114.2481875 113.773318453 114.17978125 172.22224364 114.17978125 233.802924092 c 3
 114.17978125 362.298514774 107.9091875 513.192156956 103.954 627.695 c 0
 103.431 645.448 92.971 650.201 12.477 651.678 c 1
 15 686.046 l 1
EndSplineSet
Position2: "cpsp-1" dx=0 dy=0 dh=50 dv=100
Substitution2: "c2pc-1" p.pcap
Substitution2: "c2sc-1" p.smcp
EndChar

StartChar: Q
Encoding: 81 81 42
GlifName: Q_
Width: 785
VWidth: 1361
Flags: HW
AnchorPoint: "Middle" 392.697 364.853 basechar 0
AnchorPoint: "Top" 395 699 basechar 0
AnchorPoint: "Bottom" 343 -15 basechar 0
LayerCount: 2
Fore
SplineSet
382.293 677.816 m 7
 220.92 677.816 104.748 554.750097894 104.748 376.167 c 7
 104.748 199.972353516 217.196 33.598 397.799 33.598 c 7
 555.402 33.598 675.252 166.479030158 675.252 353.586 c 7
 675.252 550.604111092 539.465 677.816 382.293 677.816 c 7
473.995 10.506 m 5
 602.564 -90.7847058824 711.61 -120.201 784.656 -120.201 c 7
 817.535 -120.201 847.46 -116.293 872 -109.385 c 5
 878.431 -136.046 l 5
 844.448 -148.661 800.54 -154.138 748.046 -154.138 c 7
 627.431 -154.138 510.816 -98.2828 398.724 -4.523 c 5
 185.908 -10.542587766 42.046 164.01321341 42.046 362.046 c 7
 42.046 576.768100881 197.046 706 388.046 706 c 7
 580.046 706 740.046 559.805904866 740.046 364.046 c 7
 740.046 204.681063039 639.661 52.4748025 473.995 10.506 c 5
EndSplineSet
Position2: "cpsp-1" dx=0 dy=0 dh=50 dv=100
Substitution2: "salt-1" Q.alt
Substitution2: "c2pc-1" q.pcap
Substitution2: "c2sc-1" q.smcp
EndChar

StartChar: R
Encoding: 82 82 43
GlifName: R_
Width: 734
VWidth: 1159
Flags: HMW
AnchorPoint: "Bottom" 357 -15 basechar 0
AnchorPoint: "Top" 284 699 basechar 0
LayerCount: 2
Fore
SplineSet
150.334 369.385 m 1
 202.305 368.385 229.029 365.862 281 365.862 c 3
 465.16 365.862 481.281 473.398896744 481.281 513.201 c 3
 481.281 584.087668862 406.448 668.293 289.017 668.293 c 3
 239.414 668.293 153.518 656.523 151.426 633.557 c 0
 147.765 550.751127835 149.288 452.190872165 150.334 369.385 c 1
12 687.707 m 1
 59.293 686.707 83.339 685.707 113.937 685.707 c 0
 174.828 685.707 213.368 701.707 300 701.707 c 0
 430.615 701.707 538.23 620.767326836 538.23 518.954 c 0
 538.23 433.10104464 473 369.964892787 379.644 344.724 c 1
 495.782 134.13388541 599.799 -0.223825699376 738.569 -2.201 c 1
 733 -33 l 1
 566.925 -37.9457742275 410.574 142.486238764 322.741 332.356 c 1
 307.54 330.879 294.293 330.879 282.523 330.879 c 0
 231.029 330.879 201.828 333.925 150.334 334.925 c 1
 152.472 226.523 154.041 146.552 156.133 56.966 c 0
 157.179 25.69 170.731 36.908 270.092 19.983 c 1
 264 -14 l 1
 221 -5 168.46 0 135 0 c 3
 98 0 60 -4 23 -11 c 1
 16.954 21.414 l 1
 80.925 31.046 89.247 25.414 91.339 49.259 c 1
 93.954 180.937 96 269.707 96 357 c 3
 96 437.71814138 94.477 517.416735511 92.908 626.896 c 1
 90.77 648.155 84.063 654.908 12 656.908 c 1
 12 687.707 l 1
EndSplineSet
Position2: "cpsp-1" dx=0 dy=0 dh=50 dv=100
Substitution2: "salt-1" R.alt
Substitution2: "c2pc-1" r.pcap
Substitution2: "c2sc-1" r.smcp
EndChar

StartChar: S
Encoding: 83 83 44
GlifName: S_
Width: 575
VWidth: 1159
Flags: HW
AnchorPoint: "Bottom" 286 -15 basechar 0
AnchorPoint: "Top" 308 699 basechar 0
LayerCount: 2
Fore
SplineSet
31.431 189.707 m 1
 60.661 195.707 l 1
 86.77 104.748 86.9363497253 92.7868795161 103.799 79.012 c 0
 143.845 48.69 232.414 23.937 294.983 23.937 c 3
 429.419 23.937 476.666 105.092 476.666 167.339 c 3
 476.666 266.92 354.909935669 307.054756514 238.792 348.431 c 0
 162.891 371.472382979 68.954 399.699617021 68.954 519.54 c 3
 68.954 617.177426087 160.31 702 310.954 702 c 3
 374.201 702 426.740393894 686.19360229 451.879 675.753 c 0
 469.31 668.322 476.925 666.339 488.247 689.661 c 1
 514.431 682.092 l 1
 502.201 604.477 501.36189992 591.05535028 514.046 546.184 c 0
 520.046 533.832217391 509.276 524.542652174 487.724 527.494 c 1
 472.615 564.912566372 481.430506452 587.36208639 470.632 602.189 c 0
 448.201 636.833 378.155 670.678 304.155 670.678 c 3
 226.828 670.678 123.288 635.88945493 123.288 530 c 3
 123.288 428.143698795 202.411970428 421.408473925 348.823 368.339 c 0
 504.184 315.046 529.954 230.046 529.954 176.23 c 3
 529.954 98.138 474.954 -10 282.954 -10 c 3
 226.046 -10 165.743571196 0.70960008151 113.753 20.862 c 0
 92.322 29.293 93.322 28.77 87.138 3.632 c 1
 58.954 5.724 l 1
 59.954 71.385 56.954 88.431 31.431 189.707 c 1
EndSplineSet
Position2: "cpsp-1" dx=0 dy=0 dh=50 dv=100
Substitution2: "c2pc-1" s.pcap
Substitution2: "c2sc-1" s.smcp
EndChar

StartChar: T
Encoding: 84 84 45
GlifName: T_
Width: 728
VWidth: 1159
Flags: HMW
AnchorPoint: "Bottom" 358 -15 basechar 0
AnchorPoint: "Top" 358 699 basechar 0
LayerCount: 2
Fore
SplineSet
125 683.092 m 0
 250.082581841 682.829366307 375.165163682 681.612732614 500.909653947 681.612732614 c 3
 554.334663682 681.612732614 608.268398688 681.739633693 661.77 682.046 c 0
 677.293 682.046 691.816 687.76775 698.816 696.092 c 1
 720.477 682 l 1
 706 646 688.046 606 686.046 559 c 1
 654.77 564.046 l 1
 656.678 576.286935065 662.201 603.747064935 666.017 615.988 c 0
 675.109 652.109 587.388 643.494 396.351 644.448 c 1
 394.163109951 517.344674896 393.246428439 392.681702873 393.246428439 265.485340345 c 3
 393.246428439 202.544462456 393.419296683 138.91585992 394.213 74.426 c 0
 395.213 27.644 398.213 40.322 518.569 26.506 c 1
 513 -7.477 l 1
 474.8668236 -2.30030096736 425.111061862 0.494339721832 374.934508004 0.494339721832 c 3
 331.105511492 0.494339721832 247.98403153 -3.53785381133 203 -11.477 c 1
 197.862 25.552 l 1
 331.557 37.6872802734 331.034 38.874 331.557 56.966 c 0
 333.409142402 132.162206612 335.625681603 299.261735604 335.625681603 437.35859411 c 3
 335.625681603 534.954882287 334.557334396 617.888977522 331.557 644.971 c 1
 255.155 645.494 181.23 644.448 107.782 642.31 c 0
 68.414 640.218 69.707 643.72609375 29.368 558.293 c 1
 -2 573 l 1
 17.523 611.046 46.046 688.138 57.046 709.661 c 1
 84.816 692.793875 86.305 682.595125 125 683.092 c 0
EndSplineSet
Position2: "cpsp-1" dx=0 dy=0 dh=50 dv=100
Substitution2: "c2pc-1" t.pcap
Substitution2: "c2sc-1" t.smcp
EndChar

StartChar: space
Encoding: 44 44 46
GlifName: space
Width: 200
VWidth: 1159
Flags: HW
LayerCount: 2
Fore
SplineSet
55.402 -116.305 m 1
 38.448 -95.598 l 1
 72.448 -67.443 100.804384846 -24.4145718575 90.954 -3.506 c 0
 82.385 14.201 64.9021316273 26.3204824293 47.017 35.908 c 0
 42.971 37.749 41.925 43.3975 41.925 48.523 c 3
 41.925 53.5008571428 42.9164626933 58.0647313467 46.54 59.615 c 0
 65.155 69.184 79.9794105424 81.1567605807 88.339 100.937 c 0
 89.809 104.983 94.643 107.552 99.477 107.552 c 3
 104.523 107.552 109.001375658 105.035940479 110.615 101.414 c 0
 121.476921053 81.368 135.527505887 68.0024980378 154.414 59.615 c 0
 158.46 58.092 160.029 53.569 160.029 48.523 c 1
 160.029 41.092 134.288 -65.138 55.402 -116.305 c 1
EndSplineSet
Position2: "cpsp-1" dx=0 dy=0 dh=7 dv=14
EndChar

StartChar: period
Encoding: 46 46 48
GlifName: period
Width: 200
VWidth: 1159
Flags: HW
LayerCount: 2
Fore
SplineSet
153.34075 35.0989863281 m 0
 135.546223237 25.9696167729 120.293593671 14.3504577899 110.97275 -3.07849316406 c 0
 109.427635545 -7.12449316406 105.565095115 -9.552 100.930243164 -9.552 c 3
 95.883976981 -9.552 89.9973318917 -7.12449316406 88.3152431641 -3.07849316406 c 0
 78.9766853013 14.3504577899 65.393516356 25.9696167729 47.5657363281 35.0989863281 c 0
 43.5197363281 36.9555760574 41.9012431641 44.3834655329 41.9012431641 49.954 c 3
 41.9012431641 54.5888519506 43.5197363281 58.4513923809 47.5657363281 59.9965068359 c 0
 65.393516356 69.2257542432 78.9766853013 82.6499231885 88.3152431641 100.269013672 c 0
 89.9973318917 104.315013672 95.883976981 107.552 100.930243164 107.552 c 3
 105.565095115 107.552 109.427635545 104.315013672 110.97275 100.269013672 c 0
 120.293593671 82.6499231885 135.546223237 69.2257542432 153.34075 59.9965068359 c 0
 157.38675 58.4513923809 159.814256836 54.5888519506 159.814256836 49.954 c 3
 159.814256836 44.3834655329 157.38675 36.9555760574 153.34075 35.0989863281 c 0
EndSplineSet
Position2: "cpsp-1" dx=0 dy=0 dh=7 dv=14
EndChar

StartChar: dotlessi
Encoding: 305 305 50
GlifName: dotlessi
Width: 263
VWidth: 1159
Flags: HMW
AnchorPoint: "Top" 136 465 basechar 0
LayerCount: 2
Fore
SplineSet
155.121 200.293 m 3
 155.121 157.624842428 156.69 86.0371458576 159.828 44.937 c 0
 160.874 34.3766271169 176.888600192 32.7502976889 201.414 30.615 c 0
 220.2922816 27.89406596 240.82 24.819999841 257.046 23.661 c 1
 253.523 -5.569 l 1
 214.969472 0.431 171.473184 5.431 129.954 5.431 c 3
 102.040875 5.431 68.545125 -1.569 40.632 -5.569 c 1
 37.1531367187 23.1403291016 l 1
 42.9066622596 23.6628630904 51.2749514875 24.7068176969 57.029 25.753 c 0
 104.722923077 35.092 103.925 38.5443795859 104.971 65.506 c 0
 106.017 94.20275 106.54 150.44838 106.54 180.293 c 3
 106.54 200.293 107.063 242.293 104.448 305.293 c 0
 103.925 335.172792918 101.317453125 342.402 91.465 342.402 c 3
 81.9829 342.402 61.3127769784 334.981402065 44.0545 331.296493164 c 1
 37.77 359.385 l 1
 104.18597385 376.608093079 125.077545163 385.781171838 162.598 434.816 c 1
 183.552 421.678 l 1
 174.549969158 403.253008732 166.558849535 375.91712222 164.350068359 363.190986328 c 0
 157.211091978 328.730958096 155.121 216.875643968 155.121 200.293 c 3
EndSplineSet
Substitution2: "case-1" I
Substitution2: "pcap-1" i.pcap
Substitution2: "smcp-1" i.smcp
EndChar

StartChar: uniFB01
Encoding: 64257 64257 51
GlifName: uniF_B_01
Width: 576
VWidth: 1159
Flags: W
HStem: -7 33<326.576 383.392> -6 36<34 95.891 473.708 547.909> 1 32<191.619 271.026> 360 37<39 113 187 374.27> 701 55<287.006 403.458>
VStem: 114 71<42.7113 360 397 601.139> 396 65<39.2303 341.179>
LayerCount: 2
Fore
SplineSet
338 355 m 0x9e
 288 360 238 358 186 360 c 1
 185 330 185 305 185 293 c 3
 185 211 186 134 191 54 c 0
 192 39 198 34 214 33 c 0x3e
 239 32 251 32 276 31 c 1
 273 -6 l 1x5e
 231 -1 182 1 140 1 c 3x3e
 110 1 64 -2 34 -6 c 1
 33 30 l 1x5e
 44 31 58 31 69 33 c 0
 100 40 104 53 106 81 c 0
 111 133 114 201 114 266 c 3
 114 286 113 323 113 360 c 1
 88 359 64 356 39 355 c 1
 39 401 l 1
 64 400 88 398 113 397 c 1
 113 436 113 481 113 493 c 3
 113 601 137 644 224 704 c 0
 263 731 342 756 384 756 c 3
 412 756 477 736 502 716 c 1
 501 689 500 689 451 652 c 1
 412 670 392 701 308 701 c 3
 232 701 203 636 191 498 c 0
 190 487 188 435 187 397 c 1
 287 397 l 2
 340 397 391 397 470 431 c 1
 490 415 l 1
 484 401 477 374 475 363 c 0
 465 319 461 213 461 196 c 3
 461 157 465 91 471 54 c 0
 473 39 492 35 503 33 c 0x3e
 519 29 538 28 552 27 c 1
 547 -7 l 1
 508 -1 464 4 422 4 c 3
 392 4 357 -3 327 -7 c 1
 325 26 l 1
 336 27 351 29 362 31 c 0
 385 37 392 48 394 76 c 0
 396 101 396 160 396 186 c 3
 396 206 396 253 391 316 c 0
 390 332 372 351 338 355 c 0x9e
EndSplineSet
Validated: 1
LCarets2: 1 298
Ligature2: "liga-1" f i
EndChar

StartChar: uni0237
Encoding: 567 567 52
GlifName: uni0237
Width: 265
VWidth: 1159
Flags: HMW
AnchorPoint: "Top" 120 465 basechar 0
LayerCount: 2
Fore
SplineSet
-27 -330.954 m 1
 -22.3066428572 -277.656490909 -10.707 -250.092 16.431 -222.385 c 0
 38.7025783716 -199.559570727 64.2290643047 -167.098815124 73.632 -140 c 0
 82.155 -115.954 87.247 -73.126 87.247 96 c 3
 87.247 203.385334115 85.3147059017 252.943293634 86.017 301 c 0
 86.6115248752 324.301562947 85.754625 343.356 74.896 343.356 c 3
 69.2776 343.356 55.804 332.421153846 37.264 327.385 c 1
 29.787 354.615 l 1
 70.2583802817 367.001756757 99.0553239437 381.452972973 140.305 431 c 1
 160.305 418.339 l 1
 153.828 403.440038461 149.506719355 374.685692689 147.305 363 c 0
 137.986428572 319 134.259 217 134.259 196 c 3
 134.259 63.673 132.782 -39.155 132.782 -84 c 3
 132.782 -138.779352941 119.804028962 -163.886249822 105.828 -185.046 c 0
 86.213 -215.23 53.915321201 -239.429152791 28.276 -262.707 c 0
 16.629478188 -273.65482247 -0.0942941176476 -301.52542647 -0.954 -335 c 1
 -27 -330.954 l 1
EndSplineSet
EndChar

StartChar: U
Encoding: 85 85 53
GlifName: U_
Width: 815
VWidth: 1159
Flags: HW
AnchorPoint: "Horn" 722 544 basechar 0
AnchorPoint: "Bottom" 410 -15 basechar 0
AnchorPoint: "Ogonek" 480 11 basechar 0
AnchorPoint: "Top" 431 699 basechar 0
LayerCount: 2
Fore
SplineSet
30.741 688.092 m 1
 54.54 684.3535 92.65375 682.96125 132.617375 682.96125 c 3
 171.15 682.96125 212.0095 684.3535 242.731 688.092 c 1
 246.731 657.816 l 1
 179.685 650.862 163.995 650.77 162.995 609.126 c 0
 162.995 602.137478485 156.426 289.737861862 156.426 255.908 c 0
 156.426 189.26275 176.197609756 134.6455 217.598 91.305 c 0
 256.2658 50.3382461539 327.448723077 24.69 422.966 24.69 c 3
 471.385 24.69 558.201 33.2190630252 618.063 89.937 c 0
 653.632 122.27364 675.218 173.790822857 678.787 256.477 c 0
 682.879 356.442362236 684.787 519.925824745 682.649 622.31 c 0
 681.603 658.77 666.959 650.523 600.959 657.247 c 1
 603.913 690.092 l 1
 627.558533537 686.028332024 677.016270697 682.985649425 718.893569837 682.985649425 c 3
 749.925282194 682.985649425 776.992482177 684.248573112 788.167 688.092 c 1
 791.644 655.77 l 1
 741.69 649.046 727.046 660.816 726 627.54 c 0
 725.477 616.041783508 724 493.515559212 719 254.477 c 0
 717.523 179.000237569 694.954 115.267370166 653.431 72.523 c 0
 598.954 13.6264285714 511.092 -15 402 -15 c 3
 302.462 -15 219.935593627 11.9396970087 172.494 60.046 c 0
 126.65255814 105.996538462 99.477 163.259769231 99.477 246.448 c 0
 99.477 277.332527263 104.477 596.683992453 104.477 612.126 c 0
 104.477 647.063 98.201 647.678 25.741 655.724 c 1
 30.741 688.092 l 1
EndSplineSet
Position2: "cpsp-1" dx=0 dy=0 dh=50 dv=100
Substitution2: "c2pc-1" u.pcap
Substitution2: "c2sc-1" u.smcp
EndChar

StartChar: V
Encoding: 86 86 54
GlifName: V_
Width: 841
VWidth: 1159
Flags: HW
AnchorPoint: "Bottom" 417 -15 basechar 0
AnchorPoint: "Top" 431 704 basechar 0
LayerCount: 2
Fore
SplineSet
266.138 691.615 m 1
 266.138 661.339 l 1
 239.092 660.908 194.765 657.523 169.409 656.477 c 0
 148.426 653.339 151.656 644.494 157.179 632.402 c 2
 437.029 59.547 l 1
 692.758 630.649 l 2
 697.373 641.971 697.804 655.431 680.39 656.477 c 0
 645.77 656.477 598.046 660.862 591.138 662.293 c 1
 592.138 694.661 l 1
 629.520927092 687.615435442 675.876873938 684.579380762 718.956510004 684.579380762 c 3
 764.077578395 684.579380762 806.061902281 688.488251646 830 694.661 c 1
 835 662.201 l 1
 783.121 651.661 757.138 658.247 736.54 621.896 c 0
 716.448 585.085634381 544.293 221.351338127 471.385 60 c 0
 459.908 34 444.138 -3.816 440.138 -27 c 1
 404.632 -27 l 1
 402.678 -2.862 389.247 20.523 373.293 56.523 c 0
 323.431 167.552270833 199.368 421.83976527 93.569 627.741 c 0
 78.247 656.339 64.448 651 6 662.77 c 1
 11 693.615 l 1
 46.9770998139 686.382864251 90.824214091 683.652611565 122.697790418 683.652611565 c 3
 153.684431903 683.652611565 203.165955772 687.696426597 266.138 691.615 c 1
EndSplineSet
Position2: "cpsp-1" dx=0 dy=0 dh=50 dv=100
Substitution2: "c2pc-1" v.pcap
Substitution2: "c2sc-1" v.smcp
EndChar

StartChar: W
Encoding: 87 87 55
GlifName: W_
Width: 1130
VWidth: 1159
Flags: HW
AnchorPoint: "Bottom" 574 -15 basechar 0
AnchorPoint: "Top" 579 699 basechar 0
LayerCount: 2
Fore
SplineSet
1121 692.046 m 1
 1125.569 662.247 l 1
 1055.77 642.479055664 1053.155 629.944288086 1024.327 558.027 c 0
 877.201 198.129763819 831.908 87.1179045226 814 42 c 0
 804.477 19 795 1.276 793.477 -15 c 1
 762.247 -15.523 l 1
 761.724 -2.293 755.862 18.046 740.339 57.523 c 0
 689.947738281 183.201 639.598901367 308.879 590.724 434.557 c 1
 480.031055664 157.678 442.908477539 61.908 426.954 23.477 c 0
 419 3.477 413.046 -9.385 412.046 -21 c 1
 379.816 -21 l 1
 377.724 -5.77 372.247 12.552 351.448 63.242 c 0
 235.569 348.125938153 129.138 580.082291902 119.661 600.867 c 0
 115.569 609.618912109 110.092 620.913543946 94.247 639.218 c 0
 66.339 656.862 35.385 656.293 5 662.109 c 1
 11 694.523 l 1
 42 685.523 93.13075 681.523 145.196125 681.523 c 3
 197.2615 681.523 250.7385 685.523 285 692.523 c 1
 291.569 663.77 l 1
 211.627 655.184 177.179 649.72584375 177.179 624.327 c 0
 177.179 615.666 180.179 606.528 183.748 598.39 c 2
 410.029 64.07 l 1
 573.017 474.356 l 1
 525.965215821 592.54320625 500.355601562 631.426526758 496.281 639.109 c 1
 484.005 659.339 468.361 653.138 409.971 662.908 c 1
 414.54 689.523 l 1
 445.634416667 684.501208333 484.352619792 681.7518125 524.935797815 681.7518125 c 3
 580.182826389 681.7518125 637.656208333 685.501208333 686.54 692.523 c 1
 690.54 662.77 l 1
 661.167 659.272 607.058 657.43725 590.38 656.477 c 0
 567.69 653.862 566.305 639.879 572.828 623.31 c 2
 790.937 68.363 l 1
 861.385 244.893108911 941.574 448.855188119 986.482 569.855 c 0
 1009.804 637.320161133 999.712 656.083005859 865 658.908 c 1
 865 687.046 l 1
 891.222121974 683.917792038 927.861715865 681.828591894 968.818036822 681.828591894 c 3
 1015.99759479 681.828591894 1069.7409949 684.302415923 1121 692.046 c 1
EndSplineSet
Position2: "cpsp-1" dx=0 dy=0 dh=50 dv=100
Substitution2: "c2pc-1" w.pcap
Substitution2: "c2sc-1" w.smcp
EndChar

StartChar: X
Encoding: 88 88 56
GlifName: X_
Width: 761
VWidth: 1159
Flags: HW
AnchorPoint: "Bottom" 371 -15 basechar 0
AnchorPoint: "Top" 364 699 basechar 0
LayerCount: 2
Fore
SplineSet
13 684.523 m 1
 57.9977650793 682.512260296 91.7679702694 681.416242493 121.984024448 681.416242493 c 3
 169.980137272 681.416242493 210.061078435 684.388692956 275 691.523 c 1
 276 662.77 l 1
 262.368 659.816 220.9994996 655.954 187.869 654.908 c 0
 168.593 652.293 167.748992492 640.254459341 175.685 629.787 c 2
 373.707 383.983 l 1
 443.165148438 477.481908203 501.209542986 567.400427752 537.482 610.62 c 0
 546.235 622.511 552.974104201 641.764278271 532.821 648.247 c 0
 523.005 649.77 471.373 654.477 442.954 659.339 c 1
 447 685.523 l 1
 487.783327793 683.305528108 528.932933496 681.454334125 570.09487306 681.454334125 c 3
 614.193543948 681.454334125 658.783327793 683.434943785 702 688.523 c 1
 704 658.77 l 1
 686.954 657.247 628.113926159 653.050020861 599.724 623.988 c 0
 582.546294922 604.707702148 542.115680664 550.461797852 393.891 362.937 c 1
 453.661 293.673420889 632.23095742 86.4693980891 654.925 60.426 c 0
 677.615 36.2572857143 703.77 34.3475714286 747.092 27.414 c 1
 742 -3.431 l 1
 713.082233343 1.21967729271 672.794637757 3.43041547021 629.91923356 3.43041547021 c 3
 570.161699502 3.43041547021 506.253754116 -1.03111690596 464 -8.477 c 1
 461 20.23 l 1
 500.62 27.184 542.763402776 30.6302062288 558.177 33.276 c 0
 582.252 40.029 576.970878263 60.083357486 562.792 78.104 c 0
 520.298 132.235881676 453.126 218.956101044 365.816 321.971 c 1
 285.927172269 218.923503442 213.678642755 120.669445799 169.518 57.15 c 0
 162.334 46.351 156.290437671 30.9334206035 179.702 28.138 c 0
 204.252785714 26.615 246.140285714 23.615 263.477 22.138 c 1
 263 -5.523 l 1
 216.347465014 -2.47728389357 175.813380398 -0.324008849017 136.218339198 -0.324008849017 c 3
 97.8483067288 -0.324008849017 60.3887589927 -2.34531286179 19 -7.523 c 1
 17 20.707 l 1
 51.8368965517 25.569 85.3826099723 30.4272697964 114.322 58.966 c 0
 131.644244 76.4779316406 143.523832 92.0320947268 344.063 344.632 c 1
 171.361 548.103609375 116.720852583 610.05735795 99.138 627.879 c 0
 72.201 653.724 55.419 656.908 12 659.477 c 1
 13 684.523 l 1
EndSplineSet
Position2: "cpsp-1" dx=0 dy=0 dh=50 dv=100
Substitution2: "c2pc-1" x.pcap
Substitution2: "c2sc-1" x.smcp
EndChar

StartChar: Y
Encoding: 89 89 57
GlifName: Y_
Width: 735
VWidth: 1159
Flags: HW
AnchorPoint: "Bottom" 387 -15 basechar 0
AnchorPoint: "Top" 387 699 basechar 0
LayerCount: 2
Fore
SplineSet
272.569 656.724 m 1
 272.569 656.724 225.288 653.293 193.116 653.293 c 0
 170.346 653.293 163.360533898 646.947609976 177.317 627.724 c 0
 287.397 473.288493968 389.799 354.983139246 395.753 349.397 c 1
 483.787 482.5545 568.080784593 610.492378061 570.821 615.235 c 0
 579.005 628.557 584.528 643.971 563.298 649.201 c 0
 538.419 651.816 503.678 655.247 481 658.201 c 1
 483 690.046 l 1
 506.08285201 686.225602314 568.164540829 681.822466434 628.024568159 681.822466434 c 3
 666.171429968 681.822466434 703.797641597 683.801261267 729 689.046 c 1
 729.477 655.109 l 1
 661.138 647.385 645.061458296 643.794074573 624.356 620.988 c 0
 558.925 540.819986328 477.138 413.610569336 417.644 321.167 c 1
 417.121 269.828944853 415.029 215.070133994 424.443 58.535 c 0
 427.058 28.598 439.903 33.138 548.569 22.46 c 1
 544.523 -11.477 l 1
 489.711171932 -4.25374499529 439.678331019 0.403110225374 389.575154055 0.403110225374 c 3
 343.714376477 0.403110225374 298.272215119 -3.39068651223 248.523 -11.477 c 1
 240.339 21.46 l 1
 345.097 36.7821787109 365.402 36.8362382812 365.402 70.426 c 2
 363.31 301.816 l 1
 335.799 334.889479618 224.732427096 486.56942497 105.891 625.649 c 0
 84.4533898268 649.563517384 68.339 647.448 6.477 657.724 c 1
 10 690.569 l 1
 45.0896505075 686.724720999 113.244411069 682.681314297 174.127731581 682.681314297 c 3
 211.981409686 682.681314297 246.889363674 684.457844835 269 688.569 c 1
 272.569 656.724 l 1
EndSplineSet
Position2: "cpsp-1" dx=0 dy=0 dh=50 dv=100
Substitution2: "c2pc-1" y.pcap
Substitution2: "c2sc-1" y.smcp
EndChar

StartChar: Z
Encoding: 90 90 58
GlifName: Z_
Width: 710
VWidth: 1159
Flags: HW
AnchorPoint: "Bottom" 357 -15 basechar 0
AnchorPoint: "Top" 366 699 basechar 0
LayerCount: 2
Fore
SplineSet
12 563 m 1
 59.477 667.23 47.092 700.414 81.724 711.845 c 1
 99.339 690.760083984 134.385 683.572608398 155.925 683.092 c 0
 187.723290039 682.292688477 537.358375 681.492866211 642.385 682.801865234 c 0
 654.079065429 683.012291016 662.852806641 682.789129883 667.862 683.092 c 1
 679.862 662.523 l 1
 660.161805664 640.052095703 l 0
 120.3 32.891 l 1
 229.69 32.891 340.557 31.845 449.947 31.845 c 0
 595.93 31.845 630.736 36.116 672.908 152.138 c 1
 698 141 l 1
 662.431 53.339 650.908 18.77 626.862 -20.799 c 1
 605.385 -12.184 588.908 -1.569 503 -1.046 c 0
 352 0 108 4.184 29 0.523 c 1
 21.385 21.799 l 1
 55.615 46.615 90.3539443359 84.2691943359 117.908 115.046 c 0
 274.172 289.497874023 433.913 469.065175781 585.608 644.678 c 0
 589.608 648.678 l 1
 171.23 649.155 l 2
 87.995 649.155 88.494 662.273829102 36.184 547.862 c 1
 12 563 l 1
EndSplineSet
Position2: "cpsp-1" dx=0 dy=0 dh=50 dv=100
Substitution2: "c2pc-1" z.pcap
Substitution2: "c2sc-1" z.smcp
EndChar

StartChar: parenleft
Encoding: 40 40 59
GlifName: parenleft
Width: 383
VWidth: 1515
Flags: HW
LayerCount: 2
Fore
SplineSet
334.615 726.385 m 1
 350.845 697.586 l 1
 161.206382252 600.729112999 73.552 420.366986194 73.552 212.431 c 3
 73.552 5.76040981288 157.815693137 -171.876578858 350.753 -275.063 c 1
 334.046 -302.908 l 1
 144.068693545 -201.019829088 37 -20.3793088228 37 212.431 c 3
 37 444.562884911 145.785683056 629.950403136 334.615 726.385 c 1
EndSplineSet
Position2: "cpsp-1" dx=0 dy=0 dh=50 dv=100
Position2: "'case' vertical ajustments for all-caps-1" dx=0 dy=125 dh=0 dv=0
EndChar

StartChar: zero
Encoding: 48 48 63
GlifName: zero
Width: 502
VWidth: 1159
Flags: HW
LayerCount: 2
Fore
SplineSet
240.678 366.586 m 3
 157.138 366.586 101.765 287.339 101.765 204.983 c 3
 101.765 108.46 160.414 26.845 259.46 26.845 c 3
 347.046 26.845 391.373 109.029 391.373 188.247 c 3
 391.373 286.678 337.339 366.586 240.678 366.586 c 3
251.138 396.862 m 3
 358.615 396.862 444.138 304.431 444.138 194 c 3
 444.138 86.569 363.138 -1.862 252.138 -1.862 c 3
 141.138 -1.862 52.138 86.569 52.138 194 c 3
 52.138 302.431 142.661 396.862 251.138 396.862 c 3
EndSplineSet
Substitution2: "'zero' Slashed Zero lookup 22-1" zero.alt
Substitution2: "dnom-1" zero.denom
Substitution2: "numr-1" zero.numerator
Substitution2: "lnum-1" zero.proportionallining
Substitution2: "tnum-1" zero.tabulartext
EndChar

StartChar: one
Encoding: 49 49 64
GlifName: one
Width: 371
VWidth: 1159
Flags: HW
LayerCount: 2
Fore
SplineSet
92.247 394.862 m 1
 141.206306641 390.802243164 224.349613281 391.777216797 276.598 404.862 c 1
 279.552 381.385 l 1
 215.736 369.385 213.397 365.632 210.259 330.339 c 0
 209.736 321.339 206.598 250.431 206.598 200 c 3
 206.598 143.092 209.213 66.092 210.259 52.753 c 0
 213.397 26.707 228.041 27.092 284.075 22.707 c 1
 282.598 -2.862 l 1
 214.065607422 3.38775292969 150.902481446 4.28969042969 82.247 -2.862 c 1
 80.724 22.184 l 1
 136.62 27.615 151.741 28.184 158.017 56.753 c 0
 160.109 66.23 163.247 90.184 163.247 200 c 3
 163.247 300.385 161.632 322.339 161.109 328.339 c 0
 157.971 364.155 160.063 367.385 91.724 371.385 c 1
 92.247 394.862 l 1
EndSplineSet
Substitution2: "dnom-1" one.denom
Substitution2: "numr-1" one.numerator
Substitution2: "tnum-1" one.tabulartext
Substitution2: "lnum-1" one.proportionallining
EndChar

StartChar: two
Encoding: 50 50 65
GlifName: two
Width: 445
VWidth: 1159
Flags: HW
LayerCount: 2
Fore
SplineSet
55.046 367 m 1
 81.8442568359 414.164458984 121.511763672 458 190 458 c 0
 266.477 458 328.477 405 328.477 335 c 3
 328.477 209.598 117.489 70.397 98.581 45.489 c 1
 337.523 47.535 l 2
 360.46 47.535 382.983 96.075 413.569 133.707 c 1
 433.092 117.184 l 1
 433.092 117.184 375.954 42.816 371.908 -5.753 c 1
 337.431 2.615 261.954 1.523 187 1.046 c 0
 97 0.569 38 -0.477 33 -0.477 c 1
 27 18 l 1
 83.31 76.431 281.465 201.31 281.465 329.77 c 3
 281.465 389.155 228.741 418.833 179.017 418.833 c 0
 127.77 418.833 97.431 388.632 75.046 353 c 1
 55.046 367 l 1
EndSplineSet
Substitution2: "dnom-1" two.denom
Substitution2: "numr-1" two.numerator
Substitution2: "tnum-1" two.tabulartext
Substitution2: "lnum-1" two.proportionallining
EndChar

StartChar: three
Encoding: 51 51 66
GlifName: three
Width: 388
VWidth: 1159
Flags: HW
LayerCount: 2
Fore
SplineSet
95.77 -212.293 m 1
 222.356 -160.724 270.557 -83.029 270.557 -0.322 c 3
 270.557 73.724 206.879 120.293 154.155 141.77 c 1
 149.678 141.77 117.816 123.908 94.431 122 c 1
 86.862 146.569 l 1
 152.586 165.523 253.172 224.908 253.172 337.678 c 3
 253.172 400.925 200.54 418.218 180.678 418.218 c 3
 141.109 418.218 111.615 389.971 92.523 366.293 c 1
 76.615 382.385 l 1
 86.138 414.477 148.414 456.862 189.661 456.862 c 3
 248.661 456.862 299.661 410.908 299.661 344.954 c 3
 299.661 237.983 200.753 171.23 196.753 167.23 c 1
 247.707 147.322 319.661 92.615 319.661 6 c 3
 319.661 -143.908 147.385 -229.862 104.816 -236.862 c 1
 95.77 -212.293 l 1
EndSplineSet
Substitution2: "dnom-1" three.denom
Substitution2: "numr-1" three.numerator
Substitution2: "tnum-1" three.tabulartext
Substitution2: "lnum-1" three.proportionallining
EndChar

StartChar: four
Encoding: 52 52 67
GlifName: four
Width: 463
VWidth: 1159
Flags: HW
LayerCount: 2
Fore
SplineSet
267.017 34.2905 m 1
 267.017 128.046 270.581980469 231.046112304 265.971 294.4335 c 1
 265.971 294.4335 138.513773437 132.525964844 47.845 34.2905 c 1
 267.017 34.2905 l 1
342.569 407.8305 m 1
 331.538488281 380.331571289 314.344638672 353.608493164 314.029 340.3535 c 0
 311.937 223.276 311.680607422 167.426702148 309.845 34.7675 c 1
 394.494 34.46 397.615 32.167 435.046 102.3535 c 1
 435.046 102.3535 451.213523437 95.0542382812 456.046 92.8765 c 1
 456.046 92.8765 430.856547852 32.0327207031 412.615 -7 c 1
 392.973918946 1.83250976563 339.156997071 0.554666015625 309.845 0.523 c 1
 309.260233398 -124.381197266 305.463230469 -160.447688477 321.138 -179.7385 c 1
 283.569 -203.477 262.523 -226.523 249 -252.2615 c 1
 249 -252.2615 227.174607422 -242.998845703 223.908 -238.5085 c 1
 256.569 -171.368 265.804020508 -180.078883789 266.494 0 c 1
 63.891 0 26.799 1 6.431 -15.569 c 1
 6.431 -15.569 -8.5782265625 -1.62869042969 -13.138 2.046 c 1
 1.862 18.046 298.238039062 364.556297852 319.3075 418.817797852 c 1
 342.569 407.8305 l 1
EndSplineSet
Substitution2: "dnom-1" four.denom
Substitution2: "numr-1" four.numerator
Substitution2: "tnum-1" four.tabulartext
Substitution2: "lnum-1" four.proportionallining
EndChar

StartChar: five
Encoding: 53 53 68
GlifName: five
Width: 362
VWidth: 1159
Flags: HW
LayerCount: 2
Fore
SplineSet
96.477 393.7385 m 1
 158.751845703 395.712452148 240.9685 396 255.753 398.2615 c 0
 284.830533203 402.397357422 300.103713867 428.319213867 313 448.2615 c 1
 313 448.2615 330.736523438 436.916238281 335.092 434.2615 c 1
 310.320202148 395.060678711 279.9685 348.419 261.753 348.2035 c 0
 232.432731446 348.182592773 181.620107422 345.6805 122 345.6805 c 1
 122 345.6805 115.835607422 274.173797852 111.138 217.7385 c 1
 192.4455 223.523 305.661 173.701826172 305.661 48.2615 c 3
 305.661 -95.3115527344 153 -205.046 47.385 -214.046 c 1
 47.385 -214.046 47.5627382812 -190.829345703 45.862 -185.385 c 1
 135.109 -179.523 261.264 -85.8516064453 261.264 37.54 c 3
 261.264 101.344219727 214.1865 184.034 74.816 171.557 c 1
 83.1235 222.787 93.141953125 312.716272461 96.477 393.7385 c 1
EndSplineSet
Substitution2: "dnom-1" five.denom
Substitution2: "numr-1" five.numerator
Substitution2: "tnum-1" five.tabulartext
Substitution2: "lnum-1" five.proportionallining
EndChar

StartChar: six
Encoding: 54 54 69
GlifName: six
Width: 487
VWidth: 1159
Flags: HW
LayerCount: 2
Fore
SplineSet
365.661 632.385 m 1
 365.661 632.385 373.713095703 612.717559571 375.753 609.862 c 1
 212.736 544.201 118.673 404.563136719 118.673 229.69 c 3
 118.673 133.211779297 169.858710938 19.506 273.351 19.506 c 3
 339.594981446 19.506 392.649 89.7734755859 392.649 159.172 c 3
 392.649 260.198658203 334.761595703 332.402 264.201 332.402 c 3
 224.600321289 332.402 192.535 308.293 169.673 263.874 c 1
 148.196 275.012 l 1
 168.581 328.845 219.224302734 366.862 281.46 366.862 c 3
 368.385 366.862 437.569 279.229223633 437.569 178 c 3
 437.569 77.8824628906 347.397257813 -12.862 255.569 -12.862 c 3
 133.355410156 -12.862 69.569 114.799543946 69.569 214 c 3
 69.569 417.115294922 192.615 573.908 365.661 632.385 c 1
EndSplineSet
Substitution2: "dnom-1" six.denom
Substitution2: "numr-1" six.numerator
Substitution2: "tnum-1" six.tabulartext
Substitution2: "lnum-1" six.proportionallining
EndChar

StartChar: seven
Encoding: 55 55 70
GlifName: seven
Width: 420
VWidth: 1159
Flags: HW
LayerCount: 2
Fore
SplineSet
84.661 420.569 m 1
 87.891 411.908 93.0147988281 410.122956054 117.661 409.816 c 0
 237.195236328 407.238794922 410.707 408.77 424.707 410.862 c 1
 424.707 410.862 432.598178711 392.378904297 434.23 390.339 c 1
 406.339 359.385 161.31 -98.133 133.351 -171.908 c 1
 133.351 -171.908 98.8469765625 -164.729916992 86.201 -165.138 c 1
 188.586 13.356 268.303426758 151.009696289 374.511 350.39 c 0
 376.882853516 355.092336914 373.467553711 360.899442383 368.804 361.235 c 0
 281.615934571 364.436332031 270.879 365.419 138.661 363.327 c 0
 80.8090361328 362.500108398 67.678 357.992297852 40.753 285.862 c 1
 40.753 285.862 19.4016425781 294.092344727 16.138 294.908 c 1
 18.523 303.494 54.661 394.569 60.661 425.092 c 1
 84.661 420.569 l 1
EndSplineSet
Substitution2: "dnom-1" seven.denom
Substitution2: "numr-1" seven.numerator
Substitution2: "tnum-1" seven.tabulartext
Substitution2: "lnum-1" seven.proportionallining
EndChar

StartChar: eight
Encoding: 56 56 71
GlifName: eight
Width: 468
VWidth: 1159
UnlinkRmOvrlpSave: 1
Flags: HW
LayerCount: 2
Fore
SplineSet
221.477 606.724 m 3
 167.133357422 606.724 125.69 549.970642578 125.69 503.351 c 3
 125.69 355.577782227 410.23 328.036461914 410.23 155 c 3
 410.23 54.9403427734 327.473657227 -9.862 220.23 -9.862 c 3
 132.504434571 -9.862 60.23 44.6045859375 60.23 133 c 3
 60.23 343.630912109 333.971 330.561338867 333.971 486.017 c 3
 333.971 533.456616211 301.209616211 606.724 221.477 606.724 c 3
228.799 633.862 m 3
 308.713811771 633.862 375.23 583.910599381 375.23 497 c 3
 375.23 323.675699219 106.196 335.552523437 106.196 153.92 c 3
 106.196 87.51325 153.977568359 19.368 234.874 19.368 c 3
 342.859413086 19.368 364.264 103.472336914 364.264 139.678 c 3
 364.264 222.655805664 312.209935229 255.160600236 235.836284179 307.925 c 0
 166.201398437 356.475235352 91.23 404.479487304 91.23 484 c 3
 91.23 571.530760742 160.651947728 633.862 228.799 633.862 c 3
EndSplineSet
Substitution2: "dnom-1" eight.denom
Substitution2: "numr-1" eight.numerator
Substitution2: "lnum-1" eight.proportionallining
Substitution2: "tnum-1" eight.tabulartext
EndChar

StartChar: uniFB00
Encoding: 64256 64256 73
GlifName: uniF_B_00
Width: 642
VWidth: 1159
Flags: W
HStem: -6 39<34 100.133 318.611 384.133 475.174 568.568> 1 32<191.619 269.028 475.619 566.018> 360 37<39 113 187 399 471 624> 669 55<273.933 387.321> 701 55<557.254 661.117>
VStem: 114 71<42.7113 360 397 588.557> 400 69<44.5312 360 397 610.446>
LayerCount: 2
Fore
SplineSet
399 397 m 1x36
 399 436 397 481 397 493 c 3
 397 551 409 593 431 627 c 1
 393 645 346 669 309 669 c 3
 206 669 189 602 189 491 c 3
 189 480 188 435 187 397 c 1
 209 398 245 399 282 399 c 3
 332 399 385 398 399 397 c 1x36
483 685 m 1
 490 691 499 698 508 704 c 0
 547 731 584 756 643 756 c 3
 675 756 725 745 750 723 c 1
 749 696 750 696 701 659 c 1
 662 677 631 701 593 701 c 3
 490 701 475 609 475 498 c 3
 475 487 472 435 471 397 c 1
 523 399 572 399 624 401 c 1
 624 355 l 1
 572 357 522 358 470 360 c 1
 469 330 469 305 469 293 c 3
 469 211 470 134 475 54 c 0
 476 39 482 34 498 33 c 0
 523 32 546 32 571 31 c 1
 568 -6 l 1xae
 526 -1 466 1 424 1 c 3x66
 394 1 349 -2 319 -6 c 1
 317 30 l 1
 328 31 342 31 353 33 c 0xa6
 384 40 388 53 390 81 c 0
 395 133 400 201 400 266 c 3
 400 286 399 323 399 360 c 1
 385 359 332 359 282 359 c 3
 245 359 208 359 186 360 c 1
 185 330 185 305 185 293 c 3
 185 211 186 134 191 54 c 0
 192 39 198 34 214 33 c 0
 239 32 248 32 273 31 c 1
 271 -7 l 1
 229 -2 182 1 140 1 c 3x66
 110 1 64 -2 34 -6 c 1
 33 30 l 1
 44 31 58 31 69 33 c 0xa6
 100 40 104 53 106 81 c 0
 111 133 114 201 114 266 c 3
 114 286 113 323 113 360 c 1
 88 359 64 356 39 355 c 1
 39 401 l 1
 64 400 88 398 113 397 c 1
 113 436 113 474 113 486 c 3
 113 594 156 625 224 672 c 0
 263 699 304 724 363 724 c 3
 394 724 457 706 483 685 c 1
EndSplineSet
Validated: 1
Substitution2: "salt-1" uniFB00.alt
LCarets2: 1 311
Ligature2: "liga-1" f f
EndChar

StartChar: question
Encoding: 63 63 74
GlifName: question
Width: 378
VWidth: 1159
Flags: HW
LayerCount: 2
Fore
SplineSet
38 587.518893164 m 1
 39.1001386505 599.4070515 39.5489165845 610.020823799 39.5489165845 619.521870035 c 1
 39.5489165845 655.517614528 26.3259481677 677.472620316 26.3259481677 685.387342727 c 1
 26.3259481677 690.327971883 31.6149501778 696.545235591 51.046 701.3724 c 1
 67.2585791304 650.245234042 74.5569800851 649.7114 104.276 649.7114 c 3
 206.150781542 649.7114 301 568.19232974 301 444.799906836 c 3
 301 276.637751649 169.50596 265.56960748 152.92 259.891906836 c 0
 138.63687 252.569906836 131.302841 223.444642224 129.908 182.138 c 1
 129.908 182.138 114.613016 181.414906836 109.046 181.414906836 c 1
 107.36017904 208.769193838 105.770891046 235.262182137 105.770891046 256.222079845 c 3
 105.770891046 283.942590292 109.155313522 303.787893699 120.552 309.748906836 c 0
 155.146344 322.699920616 275.431 310.215825361 275.431 440.092906836 c 3
 275.431 534.212508281 196.507773394 592.575920822 93.2849613239 592.575920822 c 3
 75.2716119696 592.575920822 56.7540090407 590.925173742 38 587.518893164 c 1
EndSplineSet
Refer: 48 46 S 1 0 0 1 18 0 2
Position2: "cpsp-1" dx=0 dy=0 dh=50 dv=100
Substitution2: "smcp-1" question.smcp
Substitution2: "pcap-1" question.pcap
EndChar

StartChar: exclam
Encoding: 33 33 75
GlifName: exclam
Width: 266
VWidth: 1159
Flags: HW
LayerCount: 2
Fore
SplineSet
114.724 208.523 m 5
 114.724 338.714388889 113.678 436.858666667 110.017 533 c 4
 107.925 579.629371 95.373 603.440002 96.419 653.046 c 5
 138.782 658.276 172.719 672.92 175.334 656.707 c 5
 166.966 621.914165729 168.012 613.416790873 164.874 533 c 4
 159.121 408 149.707 342 149.707 208 c 5
 114.724 208.523 l 5
EndSplineSet
Refer: 48 46 S 1 0 0 1 23 0 2
Substitution2: "pcap-1" exclam.pcap
Substitution2: "smcp-1" exclam.smcp
Position2: "cpsp-1" dx=0 dy=0 dh=50 dv=100
EndChar

StartChar: paragraph
Encoding: 182 182 76
GlifName: paragraph
Width: 591
VWidth: 1159
UnlinkRmOvrlpSave: 1
Flags: HW
LayerCount: 2
Fore
SplineSet
301.535 676.816 m 1
 333.903 681 l 1
 324.857 45.477 l 1
 293.535 51.753 l 1
 301.535 676.816 l 1
554.046 742.908 m 1
 556.046 702.695 l 1
 510.085790697 698.562125 353.397550572 690.771214178 273.719 636.569 c 0
 220.632420954 600.683372821 197.133 570.504649315 197.133 329.068 c 3
 197.133 159.6848 218.116173579 122.4393874 266.966 87.092 c 0
 292.51581291 68.3686855469 368.150170561 47.0718369141 464.707 29.782 c 1
 457.569 -9.908 l 1
 259.200545628 33.0993143401 221.656508393 67.5921286218 166.615 128.138 c 0
 106.466184466 194.732 76.2550202512 277.376460531 59.799 342.046 c 0
 56.6367006644 354.48210308 53.9294296875 364.771698725 53.9294296875 375.217072266 c 3
 53.9294296875 382.724096098 55.320095999 391.059215105 58.799 399.954 c 0
 89.3493846154 478.098209303 141.943670537 587.332292752 244.138 658.431 c 0
 346.76987013 729.834178571 554.046 742.908 554.046 742.908 c 1
EndSplineSet
Position2: "cpsp-1" dx=0 dy=0 dh=50 dv=100
EndChar

StartChar: ampersand
Encoding: 38 38 78
GlifName: ampersand
Width: 676
VWidth: 1159
Flags: HW
LayerCount: 2
Fore
SplineSet
209.3935 374.119013672 m 1
 119.3620233 337.758902454 66.104 270.517006706 66.104 195.012 c 3
 66.104 95.7780568474 128.72495153 27.397 221.489 27.397 c 3
 308.300111733 27.397 359.146306414 104.598579056 400.0715 156.303013672 c 1
 330.787 304.431 248.7728265 357.356642358 209.3935 374.119013672 c 1
214.4105 609.550013672 m 1
 183.646882876 609.550013672 112.322 580.879 112.322 515.937 c 3
 112.322 462.42847097 177.906080603 436.730237837 220.9455 415.286013672 c 1
 275.1623458 446.300236462 301.6405 476.925125067 301.6405 503.734013672 c 3
 301.6405 569.914635639 255.116753574 609.550013672 214.4105 609.550013672 c 1
632.3595 469.776986328 m 1
 596.66081034 469.776986328 567.071982845 462.090570367 560.092 442.666 c 0
 530.339641277 348.374065748 499.119811021 257.037723966 446.8075 173.654013672 c 1
 477.2658 96.465 511.543902484 27.644 553.075 27.644 c 3
 597.738358775 27.644 627.916456125 82.48725 644.816 117.184 c 1
 671.523 105.615 l 1
 636.53975455 36.3237259682 608.652924025 -7.862 534.77 -7.862 c 3
 477.301728702 -7.862 443.078948052 56.8005002899 415.54 124.218 c 1
 384.466011786 88.9264583334 328.029772759 -13.862 199 -13.862 c 3
 86.6780235694 -13.862 17 75.5303979237 17 172 c 3
 17 279.57358448 91.4533977586 351.591599604 176.3935 389.257013672 c 1
 124.360717867 412.970372568 81 453.100894522 81 506 c 3
 81 594.97615349 156 629.208928315 231 656.339 c 1
 312.114348114 627.416453002 345.5145 581.123169134 345.5145 506.872013672 c 3
 345.5145 483.591382751 309.491952509 436.094046382 252.1295 401.194013672 c 1
 302.056142857 380.529684275 391.8128495 291.611489465 429.908 202.644 c 1
 470.78532074 270.893435548 514.379549264 379.609081718 530.293 460.649 c 0
 534.118728825 478.264044444 498.245196372 488.707131138 479.3935 495.052986328 c 1
 488.247 523.569 l 1
 525.26919326 510.200609 589.616758803 498.503565 633.69 499.339 c 1
 632.3595 469.776986328 l 1
EndSplineSet
Substitution2: "pcap-1" ampersand.pcap
Substitution2: "smcp-1" ampersand.smcp
Position2: "cpsp-1" dx=0 dy=0 dh=50 dv=100
EndChar

StartChar: quotesingle
Encoding: 39 39 79
GlifName: quotesingle
Width: 200
VWidth: 1159
Flags: HW
LayerCount: 2
Fore
SplineSet
67.695 696.838 m 1
 129.351 696.838 l 1
 128.810218 660.768782 116.101318 496.329682 114.707 448.562 c 1
 82.339 448.562 l 1
 80.8801438 496.265353 68.3170562 660.85037 67.695 696.838 c 1
EndSplineSet
Position2: "cpsp-1" dx=0 dy=0 dh=7 dv=14
EndChar

StartChar: bracketleft
Encoding: 91 91 85
GlifName: bracketleft
Width: 246
VWidth: 1515
Flags: HW
LayerCount: 2
Fore
SplineSet
72.506 680.724 m 1
 72.506 -193.724 l 1
 219 -198.431 l 1
 219 -227.138 l 1
 37 -227.138 l 1
 37 714.138 l 1
 219 714.138 l 1
 219 685.954 l 1
 72.506 680.724 l 1
EndSplineSet
Position2: "cpsp-1" dx=0 dy=0 dh=50 dv=100
Position2: "'case' vertical ajustments for all-caps-1" dx=0 dy=90 dh=0 dv=0
EndChar

StartChar: asterisk
Encoding: 42 42 87
GlifName: asterisk
Width: 362
VWidth: 1159
Flags: HW
LayerCount: 2
Fore
SplineSet
187.997702727 520.323487835 m 1
 162.937346641 472.831711393 159.436009707 449.032832143 127.572103318 394.505816072 c 1
 115.543103318 392.413816072 87.9937464328 415.644030939 85.3787464328 425.058030939 c 1
 119.69714557 477.288858512 136.655560142 487.426056317 168.47632534 532.380393497 c 1
 114.364766438 541.648798413 90.6637765733 538.996923354 30.7022037198 552.601709484 c 1
 24.4262037198 564.630709484 39.9546160347 597.650993387 46.2306160347 602.357993387 c 1
 105.90964873 585.66197417 123.030522473 571.450229174 173.100797226 555.09753317 c 1
 165.286122611 611.488742386 153.361618194 632.683360575 147.659632348 691.055387898 c 1
 155.504632348 699.423387898 192.016479762 697.766099823 200.384479762 691.490099823 c 1
 203.087994044 632.64484272 196.654610785 614.076650247 196.587867115 556.939120489 c 1
 248.990838935 582.773553943 262.576887957 598.05687481 319.206286928 623.098382849 c 1
 327.574286928 619.437382849 340.418518461 587.457782744 335.711518461 573.859782744 c 1
 280.968288857 552.925777543 259.531630578 552.920045632 205.542685267 535.275399716 c 1
 244.654061897 493.66850236 265.502146202 482.815397859 305.520749 438.798280375 c 1
 304.474749 428.338280375 275.49182906 408.214181387 263.46282906 408.214181387 c 1
 225.746736527 454.894160486 220.640366249 475.021478292 187.997702727 520.323487835 c 1
EndSplineSet
EndChar

StartChar: Acute
Encoding: 58018 58018 90
GlifName: A_cute
Width: 222
VWidth: 1159
Flags: HW
AnchorPoint: "Top" 64 699 mark 0
LayerCount: 2
Fore
SplineSet
26.6841503906 778.14103418 m 5
 81.0852275391 814.639794922 175.262989258 866.191087891 236.228789062 883.545923828 c 5
 237.69206543 881.999396484 251.798798828 851.979089844 256.716224609 836.377958984 c 5
 198.800839844 826.165724609 120.941117187 794.772021484 40.3267275391 748.785797852 c 5
 26.6841503906 778.14103418 l 5
EndSplineSet
EndChar

StartChar: acutecomb
Encoding: 769 769 92
GlifName: acutecomb
Width: 0
VWidth: 1159
Flags: HW
AnchorPoint: "TopMark" -216 403 mark 0
AnchorPoint: "Top" -198.5 402 mark 0
AnchorPoint: "TopMark" -191 616 basemark 0
LayerCount: 2
Fore
SplineSet
-233.365553 446.895875 m 5
 -206.408647688 507.126823455 -154.243174625 602.125737 -112.901412 650.859764 c 5
 -110.981042097 650.464652217 -85.3245797469 634.619277727 -73.9526993 625.00226 c 5
 -116.191715484 583.70613351 -164.626290984 514.11192512 -208.400143 431.313373 c 5
 -233.365553 446.895875 l 5
EndSplineSet
EndChar

StartChar: uni0302
Encoding: 770 770 93
GlifName: uni0302
Width: 0
VWidth: 1159
Flags: HW
AnchorPoint: "TopMark" -198.5 587 basemark 0
AnchorPoint: "TopMark" -200.5 384 mark 0
AnchorPoint: "Top" -198.5 401 mark 0
LayerCount: 2
Fore
SplineSet
-83.91525 435.8954 m 5
 -104.072906836 423.076813672 l 5
 -197.7385 555.015863 l 5
 -290.927093164 423.076813672 l 5
 -311.08475 435.8954 l 5
 -212.28135 607.6862 l 5
 -182.71865 607.6862 l 5
 -83.91525 435.8954 l 5
EndSplineSet
EndChar

StartChar: gravecomb
Encoding: 768 768 94
GlifName: gravecomb
Width: 0
VWidth: 1159
Flags: HW
AnchorPoint: "TopMark" -195 625 basemark 0
AnchorPoint: "Top" -198.5 409 mark 0
AnchorPoint: "TopMark" -196 410 mark 0
LayerCount: 2
Fore
SplineSet
-168.302318 448.059027 m 5
 -193.267205 432.476525 l 5
 -237.041057016 515.27455412 -285.475632516 584.869755355 -327.714178 626.165412 c 5
 -316.492018332 635.714632935 -289.919634183 651.424785354 -288.766459 652.022393 c 5
 -247.424173375 603.288889 -195.259746312 508.2894913 -168.302318 448.059027 c 5
EndSplineSet
EndChar

StartChar: Grave
Encoding: 58019 58019 96
GlifName: G_rave
Width: 222
VWidth: 1159
Flags: HW
AnchorPoint: "Top" 64 699 mark 0
LayerCount: 2
Fore
SplineSet
119.706392578 776.998065429 m 5
 106.063860351 747.642829101 l 5
 25.4504472656 793.628076172 -52.4107177734 825.023266601 -110.325125977 835.235500976 c 5
 -105.502698242 850.683919922 -90.5308125 881.155211914 -89.8372246094 882.402444336 c 5
 -28.871890625 865.04765332 65.3048496094 813.495849609 119.706392578 776.998065429 c 5
EndSplineSet
EndChar

StartChar: uni030A
Encoding: 778 778 98
GlifName: uni030A_
Width: 0
VWidth: 1159
Flags: HW
AnchorPoint: "TopMark" -200.5 382 mark 0
AnchorPoint: "TopMark" -198.5 562 basemark 0
AnchorPoint: "Top" -198.5 395 mark 0
LayerCount: 2
Fore
SplineSet
-198 546.982920125 m 5
 -222.401574315 546.982920125 -244.995173961 527.09944015 -244.995173961 499.986291524 c 5
 -244.995173961 473.004222904 -223.305300149 455.017079875 -198 455.017079875 c 5
 -173.598425685 455.017079875 -151.004826039 474.90055985 -151.004826039 502.013708476 c 5
 -151.004826039 527.196611434 -172.694699851 546.982920125 -198 546.982920125 c 5
-198 574.872818086 m 5
 -157.503063103 574.872818086 -122.791076719 542.955865614 -122.791076719 502.336105195 c 5
 -122.791076719 458.946122214 -158.949300732 427.127181914 -198 427.127181914 c 5
 -238.496936897 427.127181914 -273.208923281 456.141752154 -273.208923281 499.663894805 c 5
 -273.208923281 543.052783957 -237.050699268 574.872818086 -198 574.872818086 c 5
EndSplineSet
EndChar

StartChar: uni031B
Encoding: 795 795 99
GlifName: uni031B_
Width: 0
VWidth: 1159
Flags: HW
AnchorPoint: "Horn" -73.5 341.8 mark 0
LayerCount: 2
Fore
SplineSet
31.0642001953 429.249732422 m 7
 31.0642001953 445.681719789 23.0023657882 455.147447724 4.82322363281 462.225623047 c 5
 9.90166549043 480.699187851 22.4592807558 492.322265625 38.40803125 492.322265625 c 7
 56.5858434211 492.322265625 75.625 475.058421875 75.625 444.775390625 c 7
 75.625 399.205078125 -15.2378927954 330.428 -84.5 330 c 5
 -85 348 l 5
 -33.2859747181 349.778426031 31.0642001953 395.183486211 31.0642001953 429.249732422 c 7
EndSplineSet
EndChar

StartChar: tildecomb
Encoding: 771 771 100
GlifName: tildecomb
Width: 0
VWidth: 1159
Flags: HW
AnchorPoint: "TopMark" -214 389 mark 0
AnchorPoint: "TopMark" -198.5 538 basemark 0
AnchorPoint: "Top" -210 382 mark 0
LayerCount: 2
Fore
SplineSet
-342.337798 438.762642 m 5
 -313.615943509 486.743223767 -281.9268196 523.204959008 -264.295622336 523.204959008 c 7
 -226.047996185 523.204959008 -179.963010425 484.512407476 -145.120248437 484.512407476 c 7
 -137.185137684 484.512407476 -113.729859716 511.392011452 -100.669392 543.614952 c 5
 -73.8134939 531.419897 l 5
 -93.3593748844 486.092185857 -125.511752861 441.684407476 -142.423089437 441.684407476 c 7
 -180.78512226 441.684407476 -235.035338936 480.666701008 -267.118905516 480.666701008 c 7
 -276.477905668 480.666701008 -296.707 453.759233 -316.60573 425.153335 c 5
 -342.337798 438.762642 l 5
EndSplineSet
EndChar

StartChar: uni0306
Encoding: 774 774 105
GlifName: uni0306
Width: 0
VWidth: 1159
Flags: HW
AnchorPoint: "TopMark" -200.5 396 mark 0
AnchorPoint: "TopMark" -202 541 basemark 0
AnchorPoint: "Top" -198.5 393 mark 0
LayerCount: 2
Fore
SplineSet
-329.04458739 547.61022978 m 5
 -303.198401576 557.357301603 l 5
 -287.806365787 500.641748912 -242.507463473 473.478037 -197.953303 473.478037 c 4
 -153.443475934 473.478037 -107.890175907 500.547725426 -91.7892192631 557.411093129 c 5
 -65.965900329 547.563812533 l 5
 -84.7951429825 472.289561206 -141.064937724 433.412 -198.026 433.412 c 4
 -254.975551365 433.412 -310.904123122 472.318254756 -329.04458739 547.61022978 c 5
EndSplineSet
EndChar

StartChar: uni0313
Encoding: 787 787 111
GlifName: uni0313
Width: 0
VWidth: 1159
Flags: HW
AnchorPoint: "TopMark" -178 410 mark 0
AnchorPoint: "TopMark" -167 631 basemark 0
AnchorPoint: "Top" -179 414 mark 0
LayerCount: 2
Fore
SplineSet
-195.124506836 452.463193359 m 5
 -208.857263672 469.235844727 l 5
 -181.317224609 492.041346679 -158.348329102 526.894230468 -166.327279297 543.830367187 c 4
 -173.268438476 558.172865234 -187.42922168 567.989451172 -201.916149414 575.755552734 c 4
 -205.193624023 577.246637696 -206.040945312 581.821881836 -206.040945312 585.973720703 c 7
 -206.040945312 590.005333008 -205.237876953 593.702045899 -202.302780274 594.957891602 c 4
 -187.224260742 602.709086914 -175.216436523 612.406908203 -168.445837891 628.428668945 c 4
 -167.254741211 631.706188476 -163.339073242 633.786951172 -159.423405273 633.786951172 c 7
 -155.336360351 633.786951172 -151.709035156 631.749043945 -150.401483398 628.815299805 c 4
 -141.603589843 612.577864258 -130.222810547 601.751826172 -114.924423828 594.957891602 c 4
 -111.647415039 593.724405274 -110.376688477 590.060765625 -110.376688477 585.973720703 c 5
 -110.376688477 579.954408203 -131.226731445 493.908231445 -195.124506836 452.463193359 c 5
EndSplineSet
EndChar

StartChar: uni0315
Encoding: 789 789 113
GlifName: uni0315
Width: 0
VWidth: 1159
Flags: HW
AnchorPoint: "TopRight" -110.5 531 mark 0
LayerCount: 2
Fore
SplineSet
-54.98 656.291055899 m 5
 -11.629 643.538055899 l 5
 -24.0930993203 578.543482333 -51.7558961482 503.716783835 -106 450.494 c 5
 -126 464.494 l 5
 -84.2235168 521.576089891 -64.1438848 587.244473993 -54.98 656.291055899 c 5
EndSplineSet
EndChar

StartChar: Circumflex
Encoding: 58020 58020 159
GlifName: C_ircumflex
Width: 281
VWidth: 1159
Flags: HMW
AnchorPoint: "Top" 140 699 mark 0
LayerCount: 2
Fore
SplineSet
279.504944101 761.361156516 m 5
 254.958847211 747.855223594 l 5
 235.896793679 763.237558403 148.960820695 812.773854664 140.5 812.773854664 c 5
 132.6295 812.773854664 46.2125570116 763.933718 26.0413096891 747.855223594 c 5
 1.49511865844 761.361156516 l 5
 121.845858391 859.400186328 l 5
 159.154141609 859.400186328 l 5
 279.504944101 761.361156516 l 5
EndSplineSet
EndChar

StartChar: Tilde
Encoding: 58022 58022 161
GlifName: T_ilde
Width: 329
VWidth: 1159
Flags: HW
AnchorPoint: "Top" 165 699 mark 0
LayerCount: 2
Fore
SplineSet
17.9329130859 758.762388672 m 5
 49.6660849609 806.743603516 84.6786728516 843.204914062 104.158567383 843.204914062 c 7
 146.416582031 843.204914062 197.334178711 804.512268554 235.830447266 804.512268554 c 7
 244.597368164 804.512268554 270.512646484 831.392429687 284.942576172 863.615066406 c 5
 314.614052734 851.419929688 l 5
 293.019069336 806.09218457 257.495164063 761.684268554 238.810607422 761.684268554 c 7
 196.425331055 761.684268554 136.487022461 800.666504883 101.039172852 800.666504883 c 7
 90.6987470703 800.666504883 68.3484511719 773.759486328 46.3631503906 745.153089844 c 5
 17.9329130859 758.762388672 l 5
EndSplineSet
EndChar

StartChar: Breve
Encoding: 58023 58023 162
GlifName: B_reve
Width: 321
VWidth: 1159
Flags: HW
AnchorPoint: "Top" 162 699 mark 0
LayerCount: 2
Fore
SplineSet
16.7646 838.464 m 5
 43.3695223594 850.412929195 l 5
 60.0893144219 807.814494909 110.004090785 786.448154568 160.081245996 786.448154568 c 7
 210.041971124 786.448154568 260.164358986 807.725277301 277.630216141 850.412929195 c 5
 304.235 838.464 l 5
 283.3205 777.7865 221.529825 747.44775 159.9293125 747.44775 c 7
 98.3288 747.44775 36.91845 777.7865 16.7646 838.464 c 5
EndSplineSet
EndChar

StartChar: Ring
Encoding: 58026 58026 165
GlifName: R_ing
Width: 281
VWidth: 1159
Flags: HW
AnchorPoint: "Top" 132 699 mark 0
LayerCount: 2
Fore
SplineSet
139.5 868.246 m 5
 114.908 868.246 92.1377 848.208 92.1377 820.884 c 5
 92.1377 793.56 113.998 775.344 139.5 775.344 c 5
 164.092 775.344 186.862 795.382 186.862 822.706 c 5
 186.862 848.208 165.002 868.246 139.5 868.246 c 5
139.5 899.762600719 m 5
 182.185485696 899.762600719 218.771997336 866.030204994 218.771997336 823.099322086 c 5
 218.771997336 777.364349361 180.660283888 743.82732475 139.5 743.82732475 c 5
 96.8146695423 743.82732475 60.2278457641 774.492636203 60.2278457641 820.490603383 c 5
 60.2278457641 866.223742932 98.339594103 899.762600719 139.5 899.762600719 c 5
EndSplineSet
EndChar

StartChar: Uni030B
Encoding: 58027 58027 166
GlifName: U_ni030B_
Width: 300
VWidth: 1159
Flags: HW
AnchorPoint: "Top" 87 699 mark 0
LayerCount: 2
Fore
SplineSet
22.6465 752.7259 m 5
 49.3705 815.3119 67.4678926174 857.586289157 103.109 907.707 c 5
 103.109 907.707 126.744330642 895.676407273 141.6295 885.9729 c 5
 102.281058824 841.306361492 87.2911764706 816.942795033 46.069 735.730906836 c 5
 22.6465 752.7259 l 5
121.938833 753.826316 m 5
 171.703843 812.921339 197.132144953 841.82837402 244.846406 878.07096 c 5
 244.846406 878.07096 264.130060867 860.071247187 275.672434 846.774232 c 5
 224.406518798 815.794475841 202.829571064 796.795748945 139.539189 730.631856 c 5
 121.938833 753.826316 l 5
EndSplineSet
EndChar

StartChar: eogonek
Encoding: 281 281 253
GlifName: eogonek
Width: 409
VWidth: 1159
UnlinkRmOvrlpSave: 1
Flags: HW
HStem: -303.658 60.1279<275.366 346.494> 425 168
VStem: 53 185 190.912 69.209<-230.259 -111.139>
AnchorPoint: "Top" 209 465 basechar 0
LayerCount: 2
Back
SplineSet
366.630859375 52.54296875 m 5xd0
 276.377929688 -47.1502175719 262.771484375 -94.5674013864 262.771484375 -186 c 7
 262.771484375 -236.143554688 288.107421875 -265.872070312 320.166015625 -265.872070312 c 7
 339.918945312 -265.872070312 363.635742188 -255.18359375 387.97265625 -231.599609375 c 13
 387.97265625 -231.599609375 399.081054688 -241.926757812 401.771484375 -250 c 5
 374.767578125 -302.788085938 329.271484375 -326 287.771484375 -326 c 7
 237.798828125 -326 193.561523438 -284.413085938 193.561523438 -214.834960938 c 7
 193.561523438 -150.617750838 236.666992188 -26.3930451996 359.931640625 73.76171875 c 5
 366.630859375 52.54296875 l 5xd0
EndSplineSet
Fore
SplineSet
363.98046875 49.884765625 m 1xd0
 273.727539062 -43.5393374647 260.12109375 -87.9747324245 260.12109375 -173.658203125 c 3
 260.12109375 -217.5234375 285.45703125 -243.530273438 317.515625 -243.530273438 c 3
 330.34375 -243.530273438 345.74609375 -239.079101562 361.55078125 -229.2578125 c 1
 361.55078125 -229.2578125 372.66015625 -239.584960938 375.349609375 -247.658203125 c 1
 353.9765625 -286.5546875 317.967773438 -303.658203125 285.12109375 -303.658203125 c 3
 235.149414062 -303.658203125 190.912109375 -265.8125 190.912109375 -202.493164062 c 3
 190.912109375 -141.613760624 234.016601562 -23.8457629693 357.282226562 71.103515625 c 1
 363.98046875 49.884765625 l 1xd0
EndSplineSet
Refer: 4 101 N 1 0 0 1 0 0 3
Substitution2: "smcp-1" eogonek.smcp
Substitution2: "case-1" Eogonek
Substitution2: "pcap-1" eogonek.pcap
EndChar

StartChar: uni0328
Encoding: 808 808 254
GlifName: uni0328
Width: 0
VWidth: 1159
Flags: HW
AnchorPoint: "Ogonek" -104.35 21.6582 mark 0
LayerCount: 2
Back
SplineSet
-94.3691 15.543 m 1
 -195.162388974 -70.3584937184 -226.228515625 -111.215514218 -226.228515625 -190 c 3
 -226.228515625 -221.309227792 -201.775586907 -239.872070312 -170.833984375 -239.872070312 c 3
 -154.801506148 -239.872070312 -135.55173736 -232.614365408 -115.798828125 -216.599609375 c 1
 -115.798828125 -216.599609375 -104.690305483 -226.926828613 -102 -235 c 1
 -125.978710258 -280.147631579 -166.377945685 -300 -203.228515625 -300 c 3
 -253.201025342 -300 -297.438476562 -268.513714542 -297.438476562 -215.834960938 c 3
 -297.438476562 -159.628200176 -233.56061762 -50.8996824072 -101.068 36.7617 c 1
 -94.3691 15.543 l 1
EndSplineSet
Fore
SplineSet
-94.4115090266 15.1633415391 m 5
 -199.555665675 -63.6278434172 -229.81092032 -126.187064449 -229.81092032 -189.478276367 c 7
 -229.81092032 -232.343236527 -205.056332486 -257.105056 -175.366183953 -257.105056 c 7
 -154.267363423 -257.105056 -130.031827176 -247.845082168 -111.904449219 -225.919162109 c 5
 -108.591401705 -227.996785827 -99.89452041 -236.125023422 -96.833 -244.954 c 5
 -119.171509791 -282.904638621 -157.231506397 -300 -192.308768953 -300 c 7
 -237.510771257 -300 -277.45522732 -263.806576312 -277.45522732 -204.558981367 c 7
 -277.45522732 -144.420134223 -228.341909443 -46.0846839992 -101.359309117 36.7686962484 c 5
 -94.4115090266 15.1633415391 l 5
EndSplineSet
EndChar

StartChar: Aogonek
Encoding: 260 260 255
GlifName: A_ogonek
Width: 730
VWidth: 0
HStem: -346.802 72.7783<509.644 579.002> 245 42<247 437.657> 692 20G<358 405.73>
VStem: 360 43<632.023 712> 417.273 71.958<-253.556 -112.611>
LayerCount: 2
Fore
SplineSet
247 287 m 1
 300 282 410 283 459 283 c 1
 420 383 394 443 352 545 c 9
 311 444 284 378 247 287 c 1
515.106 9.30371 m 0
 528.580338516 25.1898171388 540.25 48 535 76 c 0
 512 139 498 173 475 236 c 1
 415 246 318 252 231 245 c 9
 204.87 183.38 185 147 164 87 c 0
 152 51 176 29 247 34 c 9
 245 -10 l 1
 190 1 82 4 27 -5 c 9
 27 -5 23 20 22 34 c 1
 71 48 95 57 106 80 c 0
 198 289 276 470 344 640 c 0
 359 678 356 679 360 712 c 9
 403 712 l 9
 408.46 684.7 403 681 417 642 c 0
 489.318 423.284 532.922 291.261 632 78.1982 c 0
 640 60.9938 671.846 35.0799 702 32 c 9
 702 32 701 8 700 -4 c 1
 648.463 32.9972 584.223 32.6444 544 -14 c 0
 498.216367131 -67.0927599884 489.231445312 -140.721568606 489.231445312 -196.747070312 c 3
 489.231445312 -237.611373161 518.631004142 -274.0234375 550.14453125 -274.0234375 c 3
 569.969724697 -274.0234375 593.77495698 -267.592408263 618.200195312 -253.40234375 c 9
 618.200195312 -253.40234375 629.310038072 -263.730014861 632 -271.801757812 c 1
 605.823 -315.298757812 555.232 -346.801757812 515 -346.801757812 c 3
 465.302222486 -346.801757812 417.2734375 -298.236689929 417.2734375 -235.232421875 c 3
 417.2734375 -105.15651352 478.973157111 -33.2965417808 515.106 9.30371 c 0
EndSplineSet
Validated: 33
Position2: "cpsp-1" dx=0 dy=0 dh=50 dv=100
Substitution2: "c2pc-1" aogonek.pcap
Substitution2: "c2sc-1" aogonek.smcp
EndChar

StartChar: Uni0328
Encoding: 58029 58029 257
GlifName: U_ni0328
Width: 0
VWidth: 1159
Flags: W
HStem: -338.23 73.7197<-184.546 -117.498>
VStem: -275.584 71.875<-244.983 -118.496>
AnchorPoint: "Ogonek" -105.35 23.6582 mark 0
LayerCount: 2
Fore
SplineSet
-92.1719 12.3926 m 1
 -164.514989866 -37.5177021671 -203.708984375 -122.700132364 -203.708984375 -187.03125 c 3
 -203.708984375 -228.469229743 -175.522824414 -264.510742188 -144.514648438 -264.510742188 c 3
 -123.539764965 -264.510742188 -98.3555048772 -255.777742187 -72.5146484375 -236.510742188 c 9
 -72.5146484375 -236.510742188 -61.4052257941 -246.838961447 -58.7158203125 -254.911132812 c 1
 -85.7705506897 -302.647325281 -138.205109564 -338.23046875 -179.78515625 -338.23046875 c 3
 -228.965068015 -338.23046875 -275.583984375 -289.420252063 -275.583984375 -227.85546875 c 3
 -275.583984375 -144.145292738 -241.514987387 -38.8975355005 -98.8711 45.1113 c 1
 -92.1719 12.3926 l 1
EndSplineSet
Validated: 1
EndChar

StartChar: Eogonek
Encoding: 280 280 258
GlifName: E_ogonek
Width: 672
VWidth: 0
UnlinkRmOvrlpSave: 1
HStem: -347.889 73.7197<484.634 553.852> -9 35<56 103.477> 3.0702 37.3021<232.525 492.796> 333 36<205 473.393> 646.077 36.8925<248.298 487.505> 657 31<48 108.489>
VStem: 122 93<372.549 638.287> 126.788 78.2122<90.4625 333 369 603.172> 395.766 71.875<-257.592 -149.807> 497 36<247.75 305.348 393.846 441.094> 538 30<537 618.59>
AnchorPoint: "Top" 330 699 basechar 0
LayerCount: 2
Fore
SplineSet
48 688 m 1xd6e0
 120.521055818 684.355725838 206.588460485 682.969176485 287.955928091 682.969176485 c 3
 429.86328558 682.969176485 557.47511282 687.186564497 574 691 c 1
 585.145145837 681.247997393 589.133414459 675.741599913 589.133414459 667.087387512 c 3
 589.133414459 650.893580795 575.168856119 623.677987617 568 537 c 1
 538 534 l 1
 527 570 546 617 510 628 c 0
 468.488636507 639.860389569 402.664140046 646.076658986 339.417525988 646.076658986 c 3
 306.677490841 646.076658986 274.628246937 644.410894684 247 641 c 0
 229 639 216 625 215 607 c 0x9ae0
 211 525.313559322 206 444.635593221 205 369 c 1
 269 371 429 371 443 372 c 0
 480 377 485 403 501 447 c 1
 535 440 l 1
 526.800908316 409.132831309 523.486685813 378.498275435 523.486685813 347.871954284 c 3
 523.486685813 314.997648821 527.305294619 282.132831309 533 249 c 1
 497 240 l 1
 477 311 484 324 443 328 c 0
 399 333 298 332 205 333 c 1
 204 235.613545816 208 147.262948207 220 81 c 0
 224 64 233 50 250 49 c 0
 295.831179232 44.5647245905 336.319436302 40.3723092792 374.696225476 40.3723092792 c 3
 414.193090286 40.3723092792 451.453436792 44.8130178498 490 58 c 0
 550.414440108 78.6680979317 560.916666667 101 601 177 c 1
 629 170 l 1
 601.909278218 96.0751847998 563.005363884 18.4683882549 538.489257812 -19.9775390625 c 0
 508.313510966 -67.2988618945 467.640625 -148.391015834 467.640625 -206.689453125 c 0
 467.640625 -242.779181534 495.826784961 -274.168945312 526.834960938 -274.168945312 c 0
 547.809960937 -274.168945312 572.993960937 -265.436945313 598.834960938 -246.168945312 c 1
 598.834960938 -246.168945312 609.943822568 -256.497164572 612.633789062 -264.569335938 c 1
 585.578932221 -312.305955472 533.145209671 -347.888671875 491.565429688 -347.888671875 c 0
 442.385016588 -347.888671875 395.765625 -303.499671875 395.765625 -247.513671875 c 0
 395.765625 -172.157942368 443.587456716 -80.3722695124 506.53125 0.1865234375 c 1
 426.116814261 0.92057786207 344.873636713 3.07020290016 269.953021447 3.07020290016 c 3xb9e0
 188.876938008 3.07020290016 115.205017511 0.552841530585 58 -9 c 1
 48 26 l 1
 101 36 124 49 124 77 c 1
 125.797958971 111.804426856 126.787753827 207.154066657 126.787753827 309.259280672 c 3xd1e0
 126.787753827 434.312117879 125.303061543 569.498316407 122 616 c 0
 121 643 116 643 43 657 c 1
 48 688 l 1xd6e0
EndSplineSet
Position2: "cpsp-1" dx=0 dy=0 dh=50 dv=100
Substitution2: "c2pc-1" eogonek.pcap
Substitution2: "c2sc-1" eogonek.smcp
EndChar

StartChar: Iogonek
Encoding: 302 302 259
GlifName: I_ogonek
Width: 341
VWidth: 0
UnlinkRmOvrlpSave: 1
Flags: HW
HStem: -346.889 73.7197<164.804 231.852> -10 40<16.125 119.789> 652 43<21.3488 120.801>
VStem: 73.7656 71.875<-253.641 -109.865> 131 90<41.0295 293.416> 137.915 75.6029<80.3904 534.592>
LayerCount: 2
Fore
SplineSet
207.177734375 3.734375 m 1xf0
 167.264648438 -46.17578125 145.640625 -131.358398438 145.640625 -195.689453125 c 3
 145.640625 -237.126953125 173.827148438 -273.168945312 204.834960938 -273.168945312 c 3
 225.810546875 -273.168945312 250.994140625 -264.435546875 276.834960938 -245.168945312 c 9
 276.834960938 -245.168945312 287.944335938 -255.497070312 290.633789062 -263.569335938 c 1
 263.579101562 -311.305664062 211.14453125 -346.888671875 169.564453125 -346.888671875 c 3
 120.384765625 -346.888671875 73.765625 -298.078125 73.765625 -236.513671875 c 3
 73.765625 -152.803710938 98.1953125 -47.5556640625 200.478515625 36.453125 c 1
 207.177734375 3.734375 l 1xf0
EndSplineSet
Refer: 34 73 N 1 0 0 1 0 0 3
Position2: "cpsp-1" dx=0 dy=0 dh=50 dv=100
Substitution2: "c2pc-1" iogonek.pcap
Substitution2: "c2sc-1" iogonek.smcp
EndChar

StartChar: iogonek
Encoding: 303 303 260
GlifName: iogonek
Width: 263
VWidth: 0
UnlinkRmOvrlpSave: 1
Flags: HW
HStem: -326 60.1279<121.017 198.674> -7 33<33 87 184 254> 572 102<98.589 183.411>
VStem: 36.5625 69.209<-252.6 -120.517> 89 104<581.438 664.599> 97 71<57 330>
LayerCount: 2
Fore
SplineSet
168 12.9248046875 m 5xe4
 113.924804688 -74.3896484375 105.771484375 -115.919921875 105.771484375 -196 c 7
 105.771484375 -239.865234375 131.106445312 -265.872070312 163.166015625 -265.872070312 c 7
 182.918945312 -265.872070312 206.635742188 -255.18359375 230.97265625 -231.599609375 c 5
 230.97265625 -231.599609375 242.081054688 -241.926757812 244.771484375 -250 c 5
 217.768554688 -302.788085938 172.271484375 -326 130.771484375 -326 c 7
 80.798828125 -326 36.5625 -288.154296875 36.5625 -224.834960938 c 7xf0
 36.5625 -167.208984375 66.80859375 -55.732421875 153.30078125 34.1435546875 c 5
 168 12.9248046875 l 5xe4
EndSplineSet
Refer: 8 105 N 1 0 0 1 0 0 3
Substitution2: "smcp-1" iogonek.smcp
Substitution2: "case-1" Iogonek
Substitution2: "pcap-1" iogonek.pcap
EndChar

StartChar: uogonek
Encoding: 371 371 262
GlifName: uogonek
Width: 506
VWidth: 0
UnlinkRmOvrlpSave: 1
Flags: HW
HStem: -324.658 60.1279<313.017 390.674> -18.7812 20G<319.052 378.615> -11 55<171 272> 338 31<291 350>
VStem: 69 76<71 327> 228.562 69.21<-251.259 -142.76> 358 65<36 52 75 331>
LayerCount: 2
Fore
SplineSet
379 -20 m 1xde
 308.413085938 -92.994140625 297.771484375 -127.711914062 297.771484375 -194.658203125 c 3
 297.771484375 -238.5234375 323.107421875 -264.530273438 355.166015625 -264.530273438 c 3
 374.918945312 -264.530273438 398.635742188 -253.841796875 422.97265625 -230.2578125 c 1
 422.97265625 -230.2578125 434.081054688 -240.584960938 436.771484375 -248.658203125 c 1
 409.767578125 -301.446289062 364.271484375 -324.658203125 322.771484375 -324.658203125 c 3
 272.798828125 -324.658203125 228.561523438 -286.8125 228.561523438 -223.493164062 c 3
 228.561523438 -173.491210938 265.803710938 -76.765625 372.30078125 1.21875 c 1
 379 -20 l 1xde
EndSplineSet
Refer: 20 117 N 1 0 0 1 0 0 3
Substitution2: "smcp-1" uogonek.smcp
Substitution2: "case-1" Uogonek
Substitution2: "pcap-1" uogonek.pcap
EndChar

StartChar: uni0327
Encoding: 807 807 268
GlifName: uni0327
Width: 0
VWidth: 1159
UnlinkRmOvrlpSave: 1
Flags: HW
AnchorPoint: "Bottom" -193 -15 mark 0
LayerCount: 2
Fore
SplineSet
-289.175 -200.003 m 5
 -284.186821125 -177.33477268 l 5
 -229.25598078 -195.304949686 -176.874 -159.503152766 -176.874 -118.799 c 5
 -176.874 -101.677243729 -191.906631551 -75.2348341609 -233.773877024 -94.6519029813 c 5
 -241.123 -72.4629 l 5
 -238.075 -70.4492 -234.739077876 -68.8657739702 -231.521 -67.0766 c 4
 -200.700965883 -47.1057003695 -206.539149273 -44.5771004339 -187.10101118 5.43261865844 c 5
 -155.44001118 13.4326081984 l 5
 -155.44001118 13.4326081984 -173.445000973 -43.8772905531 -179.842126703 -54.3137052172 c 5
 -155.327944454 -57.6240187151 -132.572 -77.3056151847 -132.572 -111.429 c 5
 -132.572 -180.25 -220.06 -229.425 -289.175 -200.003 c 5
EndSplineSet
EndChar

StartChar: cedillafloating
Encoding: 58084 58084 269
GlifName: cedillafloating
Width: 0
VWidth: 1159
Flags: W
VStem: -195 63.126<-165.104 -94.3473>
AnchorPoint: "Bottom" -193 -15 mark 0
LayerCount: 2
Fore
SplineSet
-289.175 -200.003 m 1
 -285.141 -177.812 l 1
 -239 -188 -195 -161.724 -195 -125 c 3
 -195 -109.445 -206 -85 -236.636 -95.1289 c 1
 -241.123 -72.4629 l 1
 -199.113 -38.5203 -131.874 -44.0724 -131.874 -109.349 c 3
 -131.874 -179.786 -219.751 -230.116 -289.175 -200.003 c 1
EndSplineSet
Validated: 33
EndChar

StartChar: Uni0327
Encoding: 58030 58030 281
GlifName: U_ni0327
Width: 0
VWidth: 1159
Flags: W
VStem: -194.928 70.897<-182.621 -103.12>
AnchorPoint: "Bottom" -191 -15 mark 0
LayerCount: 2
Fore
SplineSet
-302.112 -226.844 m 1
 -297.393 -200.881 l 1
 -243.408 -212.801 -194.928 -182.057 -194.928 -139.091 c 0
 -194.928 -120.892 -206.823 -92.29 -240.667 -104.142 c 1
 -245.892 -77.6221 l 1
 -241.051 -73.5835 -235.91 -70.2296 -230.581 -67.5294 c 0
 -201.19 -48.4085 -207.089 -43.3329 -187.571 4.44336 c 1
 -142.571 12.4434 l 1
 -142.571 12.4434 -152.525 -33.2849 -173.391 -61.6674 c 1
 -145.899 -69.2159 -124.031 -91.6921 -124.031 -124.709 c 0
 -124.031 -204.066 -223.518 -260.771 -302.112 -226.844 c 1
EndSplineSet
Validated: 33
EndChar

StartChar: Cedillafloating
Encoding: 58085 58085 282
GlifName: C_edillafloating
Width: 0
VWidth: 1159
Flags: W
VStem: -194.928 70.8965<-182.621 -103.74>
AnchorPoint: "Bottom" -193 -15 mark 0
LayerCount: 2
Fore
SplineSet
-302.112 -226.844 m 1
 -297.393 -200.881 l 1
 -243.408 -212.801 -194.928 -182.057 -194.928 -139.091 c 3
 -194.928 -120.892 -206.798 -92.29 -240.642 -104.142 c 1
 -245.892 -77.6221 l 1
 -199.032 -34.292 -124.031 -58.5156 -124.031 -124.709 c 3
 -124.031 -204.066 -223.518 -260.771 -302.112 -226.844 c 1
EndSplineSet
Validated: 33
EndChar

StartChar: Uni030F
Encoding: 58034 58034 295
GlifName: U_ni030F_
Width: 300
VWidth: 1159
Flags: HW
AnchorPoint: "Top" 87 699 mark 0
LayerCount: 2
Fore
SplineSet
151.3535 752.7259 m 5
 127.931 735.730906836 l 5
 86.7088235294 816.942795033 71.7189411765 841.306361492 32.3705 885.9729 c 5
 47.2554601578 895.676407273 70.891 907.707 70.891 907.707 c 5
 106.532107383 857.586289157 124.6295 815.3119 151.3535 752.7259 c 5
51.5480517 753.531344 m 5
 33.9473296 730.336361 l 5
 -29.3429478645 796.500776945 -50.9195817984 815.498980841 -102.184974 846.478737 c 5
 -90.6439606673 859.776275187 -71.3598351 877.775465 -71.3598351 877.775465 c 5
 -23.6452079527 841.53340202 1.7829371 812.626367 51.5480517 753.531344 c 5
EndSplineSet
EndChar

StartChar: uni01EA
Encoding: 490 490 308
GlifName: uni01E_A_
Width: 845
VWidth: 0
UnlinkRmOvrlpSave: 1
Flags: HW
HStem: -346.889 73.7197<406.804 473.852> -7 50<342.523 545.448> 657 49<304.396 495.712>
VStem: 43 93<267.4 455.825> 315.766 71.875<-253.641 -127.154> 701 101<222.803 442.21>
AnchorPoint: "Middle" 417.697 364.853 basechar 0
AnchorPoint: "Top" 420 699 basechar 0
LayerCount: 2
Fore
SplineSet
499.177734375 3.734375 m 1
 426.834960938 -46.17578125 387.640625 -131.358398438 387.640625 -195.689453125 c 3
 387.640625 -237.126953125 415.827148438 -273.168945312 446.834960938 -273.168945312 c 3
 467.810546875 -273.168945312 492.994140625 -264.435546875 518.834960938 -245.168945312 c 9
 518.834960938 -245.168945312 529.944335938 -255.497070312 532.633789062 -263.569335938 c 1
 505.579101562 -311.305664062 453.14453125 -346.888671875 411.564453125 -346.888671875 c 3
 362.384765625 -346.888671875 315.765625 -298.078125 315.765625 -236.513671875 c 3
 315.765625 -152.803710938 349.834960938 -47.5556640625 492.478515625 36.453125 c 1
 499.177734375 3.734375 l 1
EndSplineSet
Refer: 40 79 N 1 0 0 1 0 0 3
Position2: "cpsp-1" dx=0 dy=0 dh=50 dv=100
EndChar

StartChar: uni01EB
Encoding: 491 491 309
GlifName: uni01E_B_
Width: 505
VWidth: 0
UnlinkRmOvrlpSave: 1
Flags: HW
HStem: -326 60.1279<272.366 350.024> -11 39<199.926 327.747> 374 45<168.903 305.133>
VStem: 32 76<130.211 291.037> 187.912 69.209<-252.6 -139.048> 395 78<107.641 276.826>
AnchorPoint: "Top" 251 465 basechar 0
AnchorPoint: "Middle" 255 206 basechar 0
LayerCount: 2
Fore
SplineSet
360.98046875 13.54296875 m 1
 270.727539062 -74.0302734375 257.12109375 -115.682617188 257.12109375 -196 c 3
 257.12109375 -239.865234375 282.45703125 -265.872070312 314.515625 -265.872070312 c 3
 334.268554688 -265.872070312 357.986328125 -255.18359375 382.322265625 -231.599609375 c 9
 382.322265625 -231.599609375 393.431640625 -241.926757812 396.12109375 -250 c 1
 369.1171875 -302.788085938 323.62109375 -326 282.12109375 -326 c 3
 232.149414062 -326 187.912109375 -288.154296875 187.912109375 -224.834960938 c 3
 187.912109375 -172.674804688 223.05859375 -76.5009765625 320.63671875 8 c 9
 360.98046875 13.54296875 l 1
EndSplineSet
Refer: 14 111 N 1 0 0 1 0 0 3
Substitution2: "case-1" uni01EA
EndChar

StartChar: thorn
Encoding: 254 254 317
GlifName: thorn
Width: 515
VWidth: 1159
Flags: W
HStem: -348 32<8.34375 55.6963> -342 34<151.753 229> -10 46<184.803 329.513> 369 43<198.188 323.819> 654 29<16 45.5305>
VStem: 67 82<-302.037 -18.4171> 80 65<-197.411 7 69.4004 345.78 368 599.495> 406 69<130.435 275.055>
LayerCount: 2
Fore
SplineSet
145 332 m 9x3b
 144 241 143 189 143 98 c 3
 143 92 147 85 154 79 c 0
 185 52 227 36 268 36 c 3
 345 36 406 96 406 180 c 3
 406 270 352 369 251 369 c 3
 207 369 155 342 145 332 c 9x3b
76 31 m 24
 79.1289 217.79 80 367 80 510 c 3
 80 570 80 607 76 627 c 0
 71 654 64 656 46 656 c 3
 36 656 25 654 16 654 c 1
 11 683 l 1
 48 690 104 718 154 759 c 1
 175 743 l 1
 165 717 157 687 156 667 c 0
 151 599 145 484 145 368 c 1xbb
 178 382 234 412 294 412 c 3
 399 412 475 315 475 223 c 3
 475 94 363.004 -10 225 -10 c 3
 198 -10 170 -2 144 7 c 1
 144 -75 144 -247 149 -284 c 0
 151 -299 170 -303 181 -304 c 0
 197 -305 216 -307 230 -308 c 1
 229 -342 l 1x7d
 190 -341 159 -339 117 -339 c 3
 87 -339 39 -344 9 -348 c 1
 6 -316 l 1
 17 -315 25 -313 36 -311 c 0
 59 -305 65 -294 67 -266 c 0xbd
 72 -214 74.0589 -84.8672 76 31 c 24
EndSplineSet
Validated: 1
Substitution2: "pcap-1" thorn.pcap
Substitution2: "case-1" Thorn
Substitution2: "smcp-1" thorn.smcp
EndChar

StartChar: Thorn
Encoding: 222 222 318
GlifName: T_horn
Width: 594
VWidth: 1159
Flags: W
HStem: -9 35<33 79.7574> 178 45<189.142 391.092> 519 42<188.8 373.894> 661 31<15.871 81.5947>
VStem: 103 86.1416<54.7783 182.945 226.958 514.181 554.895 640.551> 465 87<299.251 431.707>
LayerCount: 2
Fore
SplineSet
300 652.244140625 m 1
 269.541015625 652.76953125 239.069335938 648.46484375 211 641 c 0
 193.498046875 636.344726562 190 622 189 604 c 0
 188.240234375 587.23828125 187.66015625 570.91015625 187.219726562 554.89453125 c 1
 223.961914062 557.525390625 259.918945312 561 309 561 c 3
 442 561 552 478 552 375 c 3
 552 258.262695312 417.193359375 178 292 178 c 3
 251.719726562 178 228.8125 181.861328125 189.141601562 182.9453125 c 1
 190.319335938 145.3203125 192.446289062 106.4140625 198 75 c 0
 201.80078125 58.8486328125 209.211914062 38.1826171875 306 36.1611328125 c 1
 302 -10.6103515625 l 1
 253.839897611 0.765337346976 217.431629665 6.17477902914 177.51514646 6.17477902914 c 3
 138.247715333 6.17477902914 95.5852303172 0.939824883774 35 -9 c 1
 25 26 l 1
 78 36 103 49 103 77 c 1
 104.6 108.20234375 105.4 187.70734375 105.4 277.3266875 c 3
 105.4 411.755703125 103.6 568.941992187 100 620 c 0
 99 647 85 647 12 661 c 1
 17 692 l 1
 64.3137479468 686.877828443 116.634803726 684.064503692 169.426581172 684.064503692 c 3
 212.805530712 684.064503692 256.502306442 685.964030206 298 690.04296875 c 1
 300 652.244140625 l 1
189.073242188 226.958007812 m 1
 228.5625 225.396484375 249.3671875 223 290 223 c 3
 436 223 465 311 465 364 c 3
 465 424 404 519 288 519 c 3
 266.518554688 519 216.749023438 516.599609375 187.26171875 510.466796875 c 1
 185.9765625 417.948242188 187.340820312 313.534179688 189.073242188 226.958007812 c 1
EndSplineSet
Validated: 33
Position2: "cpsp-1" dx=0 dy=0 dh=50 dv=100
Substitution2: "c2pc-1" thorn.pcap
Substitution2: "c2sc-1" thorn.smcp
EndChar

StartChar: AE
Encoding: 198 198 319
GlifName: A_E_
Width: 1067
VWidth: 1159
Flags: HW
AnchorPoint: "Top" 580.585 699 basechar 0
AnchorPoint: "Bottom" 569.957 -15 basechar 0
LayerCount: 2
Fore
SplineSet
396 692 m 1
 429.091262482 689.140261267 557.614074393 687.638466434 657.39384562 687.638466434 c 1
 793.492549445 687.638466434 960.712943361 690.133602314 969 692.046 c 1
 979.188594704 683.073862306 982.863766973 677.316160012 982.863766973 668.413119684 c 1
 982.863766973 651.869601934 970.151868746 624.460460943 963 545.201 c 1
 935.862 543.632 l 1
 930.8245 608.395006836 963.65749361 642.850266739 905 647.649 c 0
 858.618430866 653.260893252 789.242902254 656.947042845 721.533108664 656.947042845 c 3
 691.100987517 656.947042845 661.049339657 656.23189792 634.259 654.448 c 0
 595.420994141 653.402 594.196 648.622913086 593.673 626.172 c 0
 591.581 534.094302718 588.966 449.975621905 588.443 365.23 c 1
 662.085373996 366.276 831.430258958 366.309711294 847.54 366.799 c 0
 883.405261719 369.350648438 882.1465 376.954006836 900.77 435.121 c 1
 930 431.46 l 1
 921.800786813 403.368102259 918.486515196 375.48768807 918.486515196 347.614760606 c 1
 918.486515196 317.695979217 922.305192487 287.785823936 928 257.632 c 1
 897.724 252.925 l 1
 878.4395 327.884006836 885.737162178 330.247 847.54 332.339 c 0
 796.911190625 334.954 695.453579576 334.431 588.443 334.954 c 1
 587.92 226.488865604 590.012 133.812836793 596.288 60.012 c 0
 598.38 40.2431640625 597.468593412 34.4727311323 637.259 33.736 c 0
 688.599013345 31.2270306059 732.21017247 29.0732577921 773.409257426 29.0732577921 c 1
 820.19253405 29.0732577921 864.107749547 31.5462083354 911.712 38.443 c 0
 953.610804688 48.903 961.790844726 77.2058984375 994.908 166.506 c 1
 1020.523 159.983 l 1
 1008.44939941 105.582391601 994.036799805 54.9628525391 982.477 -2.862 c 1
 927.605451398 -2.10178931564 775.624384666 -1.25645459914 663.496861669 -1.25645459914 c 1
 581.497302171 -1.25645459914 481.451814382 -2.57299920293 451 -7.569 c 1
 445.77 22.184 l 1
 517.705790698 27.470117647 534.632 34.4374705882 534.632 58.874 c 1
 535.261800759 89.93466659 535.67406715 162.498346792 535.831859375 248.242890625 c 1
 471.27770426 252.665342851 355.219498227 254.643373863 270.054992188 251.293 c 1
 227.806100711 179.40547 198.607196268 134.18445067 161.725017 66.966 c 0
 142.235483386 32.5692477276 157.252724 31.385 244.013051 23.506 c 1
 239.598824851 -10.954 l 1
 207.951058668 -4.07044238412 156.803204766 -0.180988084272 108.669956895 -0.180988084272 c 1
 76.3230525339 -0.180988084272 45.3376094824 -2.81375659219 22.546888075 -5.477 c 1
 22.546888075 -5.477 18.283225813 15.548 19.9365111797 27.322 c 1
 81.666366463 38.0348478261 104.014035057 43.1349117223 116.863996 63.305 c 0
 247.344871541 277.917142414 366.902315757 481.52380413 467.271515625 657.546162109 c 1
 445.530507532 659.437880033 419.850857584 661.251146841 392.431 663.862 c 1
 396 692 l 1
499.988252929 653.017921875 m 1
 472.086767018 603.77321637 340.066066251 370.928405942 289.72 285.184 c 1
 342.765355818 282.667612592 479.072582977 283.532276654 535.97053125 283.606210938 c 1
 536.072011301 420.103420963 535.310795333 575.827993505 533.586 627.54 c 0
 533.440081686 645.708876384 528.078693337 649.393005859 499.988252929 653.017921875 c 1
EndSplineSet
Position2: "cpsp-1" dx=0 dy=0 dh=50 dv=100
Substitution2: "c2pc-1" ae.pcap
Substitution2: "c2sc-1" ae.smcp
EndChar

StartChar: ae
Encoding: 230 230 322
GlifName: ae
Width: 578
VWidth: 1159
Flags: HW
AnchorPoint: "Top" 283.52 465 basechar 0
AnchorPoint: "Bottom" 280.52 -15 basechar 0
LayerCount: 2
Fore
SplineSet
381.790429688 381.448 m 3
 339.300448273 381.448 294.791923027 321.673749 288.02553125 232.138 c 1
 355.857674125 252.646849318 408.630100912 268.322359572 472.218 286.375266471 c 0
 475.511452536 287.30992048 478.836194495 288.251398871 482.196893554 289.201 c 1
 471.010070962 335.854655173 426.873273689 381.448 381.790429688 381.448 c 3
286.771289062 205.138 m 1
 280.123826455 105.128063193 328.730071243 28.167 402.900870117 28.167 c 3
 450.036966097 28.167 492.954808826 53.665 524.171234375 80.322 c 1
 542.00346875 57.138 l 1
 503.577831434 24.8324558823 448.684063839 -9.431 385.555257812 -9.431 c 3
 331.242288964 -9.431 292.516284899 18.1386873536 270.258448242 55.9151044922 c 1
 204.467705649 19.5998316979 146.329303731 -11.862 88.67453125 -11.862 c 3
 39.53653125 -11.862 27.67453125 24.138 27.67453125 68.138 c 3
 27.67453125 88.1143050848 31.5006215056 110.145266993 40.1507148438 124.276 c 0
 47.9750306332 138.276 59.5209296491 146.054686479 77.3227148438 155.293 c 0
 124.957604742 179.520406728 177.334422119 196.35701561 241.304414062 217.318695312 c 1
 244.889001973 247.834304107 251.731990702 275.563965157 261.004032227 300.690004883 c 1
 260.914706581 321.770718294 252.583568609 334.409020411 232.434633789 353.213106445 c 0
 223.248974204 364.355594377 190.130243077 389.08 170.598714844 389.08 c 3
 150.210809672 389.08 94.5307148438 368.177142857 94.5307148438 337.23 c 3
 94.5307148438 329.343 100.121857701 317.950666667 101.053714844 313.569 c 1
 50.3807148437 294.54 l 1
 47.0167148437 303.22825 42.8117148438 320.60475 42.8117148438 329.293 c 3
 42.8117148438 344.921780488 51.7373815104 361.666902439 71.7197148437 375.063 c 1
 118.917149873 407.948875 184.736992447 427.724 198.51953125 427.724 c 3
 217.987154271 427.724 278.502399114 381.768058786 295.657664062 360.80034375 c 1
 327.713570663 401.162487747 370.667930914 417.477 388.76821875 417.477 c 3
 443.886402815 417.477 499.334469308 370.329667075 520.859375 323 c 0
 526.17515337 311.421927112 533.628385316 303.5088 549.523 305.339 c 1
 550.477 281.339 l 1
 466.633979977 258.4787 372.817942904 231.264057143 286.771289062 205.138 c 1
239.718476562 190.074453125 m 1
 200.132270241 176.737892335 157.722883265 161.868749641 138.51953125 152.707 c 0
 99.1884984716 134.308860634 71.7777148438 116.076149754 71.7777148438 77.213 c 3
 71.7777148438 41.1894931448 88.060804313 22.075 117.007714844 22.075 c 3
 146.574921928 22.075 201.373019158 43.4734994006 258.640583008 76.4140332031 c 1
 245.128920436 109.380690962 239.009364093 147.701210149 239.718476562 190.074453125 c 1
EndSplineSet
Substitution2: "pcap-1" ae.pcap
Substitution2: "case-1" AE
Substitution2: "smcp-1" ae.smcp
EndChar

StartChar: germandbls
Encoding: 223 223 327
GlifName: germandbls
Width: 579
VWidth: 1159
Flags: W
HStem: -9 40<37 88.8477 173.148 208.525 365.019 460.981> 356 30<40 95.2842> 705 51<244.321 344.378>
VStem: 100 65<36.3341 356 396.595 588.58> 276 67<305.481 354.885> 301 22<88.2815 107.227> 396.559 58.286<487.211 649.856> 477 62<53.3627 166.162>
LayerCount: 2
Fore
SplineSet
312 756 m 0xfb
 411.877 756 454.845 679.623 454.845 588.779 c 0
 454.845 446.016 343 385.103 343 345 c 0xfb
 343 322 360.358 300 417 276 c 1
 495.85 246.667 539 186.985 539 128 c 0
 539 33.1543 458.812 -9 408 -9 c 0
 365.699560976 -9 332.401317073 2 300 16 c 1
 304 30 306 44 306 59 c 0
 306 68.3555 304.571 95.6445 301 105 c 1
 323 112 l 1xf7
 342.104493506 56.8506 380.314818182 31 426 31 c 0
 451.5 31 477 56.9092 477 106 c 0
 477 163.711 429.343 194.988 396 212 c 0
 347 237 276 253 276 324 c 0
 276 346 396.559 432.484 396.559 571.703 c 0
 396.559 648.474 347.395 705 278 705 c 0
 190.602 705 180.067 591.244 171 454 c 1
 167.34 417.394 165 295.325 165 249 c 0
 165 182.096 166.167 119.272 172 54 c 0
 172.739 39 177.174 34 189 33 c 0
 196.534 32 203.466 32 211 31 c 1
 208 -6 l 1
 182.625 -1 146.375 1 121 1 c 0
 97.2266 1 60.7734 -2 37 -6 c 1
 36 30 l 1
 47 31 61 31 72 33 c 1
 89.5947 40 91.8652 53 93 81 c 1
 97.375 120.633 100 172.459 100 222 c 0
 99.4055 259.124 99.1645 308.001 99.0667 356 c 1
 40 356 l 1
 40 386 l 1
 59.9402 389.935 79.0951 397.74 99.0097 401.801 c 1
 99 418.369 99 434.298 99 449 c 0
 99 579.533 140.062 647.199 205 704 c 0
 235.911 731 265.237 756 312 756 c 0xfb
EndSplineSet
Validated: 1
MultipleSubs2: "case-2" S S
Substitution2: "pcap-1" uni1E9E.pcap
Substitution2: "case-1" uni1E9E
Substitution2: "smcp-1" uni1E9E.smcp
EndChar

StartChar: greater
Encoding: 62 62 333
GlifName: greater
Width: 463
VWidth: 0
Flags: HW
LayerCount: 2
Fore
SplineSet
77.5085 378.1928 m 1
 101.23 412 l 1
 412 203.954 l 1
 87.724 -7 l 1
 74.155 16.615 l 1
 349.4335 195.8998 l 1
 77.5085 378.1928 l 1
EndSplineSet
Position2: "'case' vertical ajustments for all-caps-1" dx=0 dy=90 dh=0 dv=0
EndChar

StartChar: braceleft
Encoding: 123 123 336
GlifName: braceleft
Width: 266
VWidth: 1515
Flags: HW
LayerCount: 2
Fore
SplineSet
239.5 720.115906836 m 1
 239.5 720.115906836 239.5 698.777976836 239.5 692.454906836 c 1
 176.754222441 691.435993672 138.8365 662.740128838 138.8365 558.298006836 c 3
 138.8365 487.268489332 170.46 467.842532143 170.46 390 c 3
 170.46 334.826964961 122.018123604 270.553921418 64.713 243.299906836 c 1
 122.018123604 216.045922117 170.46 150.818967751 170.46 96.5996044719 c 3
 170.46 16.8482360653 138.8365 1.71598970013 138.8365 -71.6984023641 c 3
 138.8365 -177.095269905 179.153251852 -204.836178553 239.5 -205.855093164 c 1
 239.5 -233.516093164 l 1
 164.154565525 -234.823222474 96.27 -196.486755486 96.27 -58.7801977641 c 3
 96.27 8.73988231584 124.494 36.8940352739 124.494 98.1686044719 c 3
 124.494 145.140851215 88.7126034127 208.374467543 11.5 230.299906836 c 1
 11.5 255.822906836 l 1
 87.7586034127 277.82651599 124.494 340.810794548 124.494 388.431 c 3
 124.494 451.612965108 96.27 475.474202681 96.27 545.379906836 c 3
 96.27 683.08658532 161.25047729 721.423034727 239.5 720.115906836 c 1
EndSplineSet
Position2: "cpsp-1" dx=0 dy=0 dh=50 dv=100
Position2: "'case' vertical ajustments for all-caps-1" dx=0 dy=90 dh=0 dv=0
EndChar

StartChar: asciitilde
Encoding: 126 126 339
GlifName: asciitilde
Width: 394
VWidth: 0
Flags: HW
LayerCount: 2
Fore
SplineSet
18.954 206.833 m 1
 48.6462580645 241.6182 97.3580645162 274.891 111 274.891 c 3
 153.533840909 274.891 243.547318182 243.029 285.092 243.029 c 3
 296.306181818 243.029 329.948727273 263.888347826 346.77 286.644 c 1
 375.046 273.167 l 1
 349.48482353 238.166072165 305.245811765 198.109 288.138 198.109 c 3
 248.512275676 198.109 144.169762162 229.971 109.339 229.971 c 3
 94.78875 229.971 62.3305 207.732230769 46.661 193.833 c 1
 18.954 206.833 l 1
EndSplineSet
Position2: "cpsp-1" dx=0 dy=0 dh=50 dv=100
Position2: "'case' vertical ajustments for all-caps-1" dx=0 dy=90 dh=0 dv=0
EndChar

StartChar: kgreenlandic
Encoding: 312 312 345
GlifName: kgreenlandic
Width: 520
VWidth: 1159
Flags: W
HStem: -5 33<33.6364 85.0934 314.455 358.094 457 501.545> 344 29<39.7931 76.7086> 374 27<269 299.949 413.248 459.333> 395 20G<145.5 187>
VStem: 105 64<42.314 204 227 346.994>
LayerCount: 2
Fore
SplineSet
179 211 m 1xe8
 169 204 l 1
 169 140.25 171.723635175 78.5727361869 175 54 c 0
 177 39 185.619315018 37.1522739927 196 33 c 0
 206 29 216 28 230 27 c 1
 225 -7 l 1
 191 -1 172 4 130 4 c 3
 100 4 64 -3 34 -5 c 1
 32 28 l 1
 43 29 54.2438024311 30.030722479 64 33 c 0
 87 40 93.3132247115 48.0575369992 96 76 c 0
 101 128 105 170 105 235 c 3
 105 253.368013699 103.27297056 281.632471039 101 318 c 0
 100 334 94 348 77 348 c 3
 71 348 51 345 41 344 c 1
 36 373 l 1
 88 381.884615385 124 387.538461538 167 415 c 1xd8
 187 399 l 1
 181 385 174.184346429 357.982026431 173 347 c 0
 171 328.454705882 168 273.908529412 167 227 c 1
 201.5858 255.29682906 250.733796152 297.620653704 285 330 c 0
 291.596571429 336.233333333 301 348.518518519 301 355 c 3
 301 373 277 372 267 374 c 1
 269 401 l 1
 295 399 330 399 357 399 c 3
 388.166666667 399 428.777777778 399 459 403 c 1
 461 371 l 1
 400.820895522 364.000222222 364.689666047 341.369176033 333 319 c 2
 231 247 l 1
 297.824402928 186.179636497 367.532605558 122.858938129 446 52 c 1
 462 37 490 29 504 28 c 1
 501 -6 l 1
 467 0 449 4 407 4 c 3
 377 4 345 -3 315 -5 c 1
 312 28 l 1
 348 33 348 37 359 38 c 1
 296.777686305 99.8038948798 205.773756239 186.901875399 179 211 c 1xe8
EndSplineSet
Validated: 1
MultipleSubs2: "case-2" K quoteleft
EndChar

StartChar: OE
Encoding: 338 338 346
GlifName: O_E_
Width: 1081
VWidth: 1159
Flags: W
HStem: -7 49<336.528 518.419> 3.06988 37.3024<639.125 901.73> 334 36<614 882.393> 650 44<298.396 500.529>
VStem: 37 93<266.365 448.041> 531 93<373.564 620.777> 534.995 79.0053<90.5 334 370 605.156> 906 36<248.75 306.348 394.846 442.094> 947 30<539 620.59> 1007 28<152.034 171.75>
LayerCount: 2
Fore
SplineSet
385 650 m 3xbdc0
 244 650 130 535.515933333 130 377 c 3
 130 202.722537538 273 42 443 42 c 3
 495.7 42 533 62.631 533 92 c 1
 534.422110588 116.770777747 534.994687396 175.604459673 534.994687396 244.572312164 c 0xbbc0
 534.994687396 369.591771373 533.113224845 527.911675418 531 577 c 0
 528.17 641.262 448.642 650 385 650 c 3xbdc0
424 -7 m 3
 210 -7 37 145.659140762 37 336 c 3
 37 527.127628169 212 694 422 694 c 3
 507.490017004 694 461.789007914 684.96875 696.956054688 684.96875 c 3
 838.863027557 684.96875 966.475003159 689.186881304 983 693 c 1
 994.145145837 683.247997393 998.133414459 677.741599913 998.133414459 669.087387512 c 0
 998.133414459 652.893580795 984.168856119 625.677987617 977 539 c 1
 947 536 l 1
 936 572 955 619 919 630 c 0
 856 648 737 653 656 643 c 0
 638 641 625 627 624 609 c 0xbdc0
 620 526.970338983 615 445.953389831 614 370 c 1
 678 372 838 372 852 373 c 0
 889 378 894 404 910 448 c 1
 944 441 l 1
 935.800908316 410.132831309 932.486685813 379.498275435 932.486685813 348.871954284 c 0
 932.486685813 315.997648821 936.305294619 283.132831309 942 250 c 1
 906 241 l 1
 886 312 893 325 852 329 c 0
 808 334 707 333 614 334 c 1
 613 236.227091633 617 147.525896414 629 81 c 0
 633 64 642 50 659 49 c 0
 704.831179232 44.5647245905 745.319436302 40.3723092792 783.696225476 40.3723092792 c 0
 823.193090286 40.3723092792 860.453436792 44.8130178498 899 58 c 0
 958 78 968 101 1007 177 c 1
 1035 170 l 1
 1019 104 1008 62 996 0 c 1
 886.301 -0.545565 771.508 3.06988 667.928 3.06988 c 3x7bc0
 487.932 3.06988 491.022 -7.00001 424 -7 c 3
EndSplineSet
Validated: 33
Position2: "cpsp-1" dx=0 dy=0 dh=50 dv=100
Substitution2: "c2pc-1" oe.pcap
Substitution2: "c2sc-1" oe.smcp
EndChar

StartChar: uni2605
Encoding: 9733 9733 347
GlifName: uni2605
Width: 821
VWidth: 0
Flags: W
LayerCount: 2
Fore
SplineSet
796.5 438.6 m 1
 558 264.9 l 1
 648.9 -15 l 1
 410.4 158.7 l 1
 171.9 -15 l 1
 262.8 265.8 l 1
 24.2998 438.6 l 1
 318.6 437.7 l 1
 410.4 718.5 l 1
 501.3 438.6 l 1
 796.5 438.6 l 1
EndSplineSet
Validated: 1
EndChar

StartChar: uni2606
Encoding: 9734 9734 348
GlifName: uni2606
Width: 821
VWidth: 30
Flags: W
LayerCount: 2
Fore
SplineSet
687.677 404.8 m 1
 466.221 390.918 l 1
 410.41 606.049 l 1
 354.579 390.141 l 1
 133.292 404.738 l 1
 320.536 284.324 l 1
 239.062 78.2873 l 1
 410.4 219.894 l 1
 581.711 78.307 l 1
 500.264 283.547 l 1
 687.677 404.8 l 1
796.5 438.6 m 1
 558 264.9 l 1
 648.9 -15 l 1
 410.4 158.7 l 1
 171.9 -15 l 1
 262.8 265.8 l 1
 24.2998 438.6 l 1
 318.6 437.7 l 1
 410.4 718.5 l 1
 501.3 438.6 l 1
 796.5 438.6 l 1
EndSplineSet
Validated: 1
EndChar

StartChar: uni261C
Encoding: 9756 9756 349
GlifName: uni261C_
Width: 2241
Flags: W
HStem: -39.8809 34.5928<702.366 803.644>
VStem: 65.4062 47.9922<389.495 407.811>
LayerCount: 2
Fore
SplineSet
65.4062 488.98 m 1
 133.471 493.169 171.866 495.579 238.634 514.306 c 1
 246.596 504.546 534.656 534.515 542.911 561.332 c 1
 564.898 551.482 577.512 547.037 605.929 570.229 c 1
 773.769 556.794 986.458 616.839 1106 648 c 1
 1329.25 569.701 1572.25 468.729 1696.18 430.638 c 1
 1739.57 483.052 1793.53 507.924 1848.05 516.793 c 1
 2110.43 547.303 l 1
 2163.02 255.056 2175.68 -29.6611 2148.35 -306.85 c 1
 1892.24 -297.519 l 1
 1875.45 -261.822 1858.65 -226.126 1841.85 -190.43 c 1
 1814.48 -179.761 1789.09 -165.358 1754.94 -149.172 c 1
 1614.8 -241.059 1469.34 -206.779 1327.96 -171.926 c 1
 1302.89 -235.181 1261.64 -288.312 1185.82 -267.69 c 1
 1164.81 -330.418 1107.45 -355.95 1072.25 -326.185 c 0
 999.4 -264.557 891.756 -230.288 835.198 -172.483 c 1
 682.232 -206.512 560.41 -112.538 687.913 48.1104 c 1
 660.334 112.992 745.543 185.467 777.889 271.683 c 1
 695.375 282.243 590.004 307.018 566.297 298.763 c 0
 515.511 281.073 363.284 309.172 334.218 317.119 c 1
 176.398 304.119 59.9014 331.849 65.4062 488.98 c 1
227.493 480.275 m 1
 178.401 472.663 150.689 468.371 101.594 460.757 c 1
 93.8691 413.082 244.447 408.912 227.493 480.275 c 1
1084.38 592.183 m 0
 825.397 554.269 996.286 546.32 636.788 522.399 c 0
 585.692 519 590.137 488.802 569.033 486.987 c 0
 550.55 485.4 544.591 511.314 526.415 507.695 c 0
 434.1 489.321 365.902 488.599 263.3 476.39 c 1
 250.997 394.928 192.292 410.334 113.398 407.811 c 1
 114.412 376.567 264.124 347.652 350.099 377.665 c 1
 407.623 368.682 461.089 357.379 523.575 380.384 c 1
 604.456 372.626 651.254 355.211 727.339 401.371 c 1
 807.605 356.047 974.055 358.16 1064.13 421.6 c 1
 1070.94 421.779 1071.33 413.38 1077.52 410.565 c 1
 1051.33 362.256 1084.46 312.087 1114.36 315.387 c 0
 1130.39 317.154 1149.22 354.088 1163.9 376.21 c 0
 1172.19 388.706 1208.8 379.251 1202.08 365.563 c 0
 1164.56 289.234 1183.03 221.194 1302.92 308.083 c 0
 1330.21 327.857 1391.28 329.565 1389.06 296.334 c 0
 1387.54 273.576 1345.13 302.372 1303.25 264.596 c 0
 1210.07 180.539 1123.04 118.563 1008.84 107.013 c 1
 996.464 98.4824 989.483 93.6709 977.105 85.1396 c 1
 876.257 142.62 705.042 54.8047 694.435 -5.28809 c 1
 757.921 -1.57617 796.29 11.3975 834.737 -28.0469 c 1
 861.688 11.0107 922.306 3.84277 985.483 11.0127 c 1
 998.435 5.33398 1005.74 2.13281 1018.69 -3.54395 c 1
 1031.07 4.98828 1038.05 9.79883 1050.42 18.3291 c 1
 1063.43 11.9795 1070.77 8.39844 1083.78 2.04883 c 1
 1093.29 11.6924 1098.66 17.1289 1108.17 26.7725 c 1
 1169 0.666992 1265.6 3.79102 1298.85 55.3369 c 0
 1307.77 69.1582 1331.21 74.7871 1353.92 73.9941 c 0
 1497.96 68.9609 1697.02 60.1641 1760.13 150.666 c 0
 1796.28 202.51 1766.13 361.801 1721.3 387.54 c 1
 1551.99 437.4 1391.01 515.096 1175.49 584.343 c 0
 1141.59 595.234 1119.66 597.348 1084.38 592.183 c 0
823.456 -100.385 m 1
 821.674 -60.501 792.91 -39.6387 757.787 -39.8809 c 0
 715.507 -40.1699 663.499 -75.8311 669.326 -101.442 c 0
 672.815 -116.764 791.04 -134.5 823.456 -100.385 c 1
1825.2 474.796 m 1
 1793.57 452.477 1775.72 439.887 1744.09 417.571 c 1
 1790.28 409.132 l 1
 1834.35 392.028 1910.85 90.5078 1840.19 -91.3711 c 1
 1844.61 -94.3838 1847.1 -96.085 1851.52 -99.1006 c 1
 1989.62 -17.6104 1923.24 389.222 1825.2 474.796 c 1
EndSplineSet
Validated: 33
EndChar

StartChar: uni261E
Encoding: 9758 9758 350
GlifName: uni261E_
Width: 2241
Flags: HMW
LayerCount: 2
Fore
SplineSet
2162.17 488.98 m 1
 2167.68 331.849 2051.18 304.119 1893.36 317.119 c 1
 1864.29 309.172 1712.07 281.073 1661.28 298.763 c 0
 1637.57 307.018 1532.2 282.243 1449.69 271.683 c 1
 1482.03 185.467 1567.24 112.992 1539.66 48.1104 c 1
 1667.17 -112.538 1545.34 -206.512 1392.38 -172.483 c 1
 1335.82 -230.288 1228.18 -264.557 1155.32 -326.185 c 0
 1120.13 -355.95 1062.77 -330.418 1041.76 -267.69 c 1
 965.937 -288.312 924.688 -235.181 899.613 -171.926 c 1
 758.235 -206.779 612.779 -241.059 472.641 -149.172 c 1
 438.485 -165.358 413.094 -179.761 385.725 -190.43 c 1
 368.927 -226.126 352.131 -261.822 335.333 -297.519 c 1
 79.2285 -306.85 l 1
 51.9014 -29.6611 64.5586 255.056 117.149 547.303 c 1
 379.524 516.793 l 1
 434.047 507.924 488.01 483.052 531.394 430.638 c 1
 655.332 468.729 898.328 569.701 1121.58 648 c 1
 1241.12 616.839 1453.81 556.794 1621.65 570.229 c 1
 1650.07 547.037 1662.68 551.482 1684.67 561.332 c 1
 1692.92 534.515 1980.98 504.546 1988.94 514.306 c 1
 2055.71 495.579 2094.11 493.169 2162.17 488.98 c 1
2000.08 480.275 m 1
 1983.13 408.912 2133.71 413.082 2125.98 460.757 c 1
 2076.89 468.371 2049.18 472.663 2000.08 480.275 c 1
1143.19 592.183 m 0
 1107.92 597.348 1085.99 595.234 1052.09 584.343 c 0
 836.569 515.096 675.586 437.4 506.281 387.54 c 1
 461.443 361.801 431.295 202.51 467.448 150.666 c 0
 530.558 60.1641 729.622 68.9609 873.661 73.9941 c 0
 896.366 74.7871 919.808 69.1582 928.726 55.3369 c 0
 961.981 3.79102 1058.58 0.666992 1119.41 26.7725 c 1
 1128.92 17.1289 1134.29 11.6924 1143.8 2.04883 c 1
 1156.8 8.39844 1164.14 11.9795 1177.15 18.3291 c 1
 1189.53 9.79883 1196.51 4.98828 1208.89 -3.54395 c 1
 1221.83 2.13281 1229.14 5.33398 1242.09 11.0127 c 1
 1305.27 3.84277 1365.89 11.0107 1392.84 -28.0469 c 1
 1431.29 11.3975 1469.66 -1.57617 1533.14 -5.28809 c 1
 1522.54 54.8047 1351.32 142.62 1250.47 85.1396 c 1
 1238.09 93.6709 1231.11 98.4824 1218.74 107.013 c 1
 1104.54 118.563 1017.5 180.539 924.325 264.596 c 0
 882.445 302.372 840.035 273.576 838.518 296.334 c 0
 836.301 329.565 897.366 327.857 924.653 308.083 c 0
 1044.55 221.194 1063.02 289.234 1025.5 365.563 c 0
 1018.77 379.251 1055.38 388.706 1063.68 376.21 c 0
 1078.36 354.088 1097.19 317.154 1113.21 315.387 c 0
 1143.12 312.087 1176.25 362.256 1150.06 410.565 c 1
 1156.25 413.38 1156.63 421.779 1163.45 421.6 c 1
 1253.52 358.16 1419.97 356.047 1500.24 401.371 c 1
 1576.32 355.211 1623.12 372.626 1704 380.384 c 1
 1766.49 357.379 1819.95 368.682 1877.48 377.665 c 1
 1963.45 347.652 2113.17 376.567 2114.18 407.811 c 1
 2035.29 410.334 1976.58 394.928 1964.28 476.39 c 1
 1861.67 488.599 1793.48 489.321 1701.16 507.695 c 0
 1682.99 511.314 1677.03 485.4 1658.54 486.987 c 0
 1637.44 488.802 1641.88 519 1590.79 522.399 c 0
 1231.29 546.32 1402.18 554.269 1143.19 592.183 c 0
1404.12 -100.385 m 1
 1436.54 -134.5 1554.76 -116.764 1558.25 -101.442 c 0
 1564.08 -75.8311 1512.07 -40.1699 1469.79 -39.8809 c 0
 1434.67 -39.6387 1405.9 -60.501 1404.12 -100.385 c 1
402.373 474.796 m 1
 304.342 389.222 237.955 -17.6104 376.058 -99.1006 c 1
 380.473 -96.085 382.967 -94.3838 387.383 -91.3711 c 1
 316.725 90.5078 393.227 392.028 437.294 409.132 c 1
 483.483 417.571 l 1
 451.853 439.887 434.009 452.477 402.373 474.796 c 1
EndSplineSet
Validated: 33
EndChar

StartChar: uni211F
Encoding: 8479 8479 429
GlifName: uni211F_
Width: 831
UnlinkRmOvrlpSave: 1
Flags: HW
LayerCount: 2
Fore
SplineSet
500.264 -78.678 m 1
 594.339 98.8632021661 753.492857143 486.170108303 757.988 508.097 c 1
 654.62 544.281 l 1
 649.9475 559.859012048 675.693875602 580.573969758 692 596 c 1
 739.19 579.23 765.81 569.77 813 553 c 1
 773 475 572.146067416 -19.3583460949 537 -97 c 1
 500.264 -78.678 l 1
EndSplineSet
Refer: 43 82 N 1 0 0 1 0 0 2
EndChar

StartChar: uni2123
Encoding: 8483 8483 430
GlifName: uni2123
Width: 841
UnlinkRmOvrlpSave: 1
Flags: HW
LayerCount: 2
Fore
SplineSet
216.264 -78.678 m 1
 310.339 98.8632021661 469.492857143 486.170108303 473.988 508.097 c 1
 370.62 544.281 l 1
 365.9475 559.859012048 391.693875602 580.573969758 408 596 c 1
 455.19 579.23 481.81 569.77 529 553 c 1
 489 475 288.146067416 -19.3583460949 253 -97 c 1
 216.264 -78.678 l 1
EndSplineSet
Refer: 54 86 N 1 0 0 1 0 0 2
EndChar

StartChar: estimated
Encoding: 8494 8494 431
GlifName: estimated
Width: 752
VWidth: 0
Flags: W
HStem: -9 50.917<266.135 484.333> 310.923 51.15<191.384 562.454> 632.006 50.917<264.706 485.147>
VStem: 30.1973 161.187<217.349 310.923 362.073 455.702> 562.454 159.576<362.073 456.3>
LayerCount: 2
Fore
SplineSet
632.777 191.846 m 1
 676.861 166.441 l 1
 673.98 161.581 l 2
 613.377 59.3301 501.767 -9 376 -9 c 0
 189.553 -9 30.1973 142.604 30.1973 338.341 c 0
 30.1973 525.945 184.438 682.615 375.52 682.923 c 2
 376.044 682.923 l 2
 564.48 682.923 722.035 529.016 722.03 336.942 c 0
 722.03 329.967 721.813 323.039 721.4 316.168 c 2
 721.084 310.923 l 1
 191.384 310.923 l 1
 191.384 107.399 l 1
 242.467 66.2236 307.069 41.917 376 41.917 c 0
 483.087 41.917 578.216 100.053 629.964 187.113 c 2
 632.777 191.846 l 1
191.384 566.668 m 1
 191.384 362.073 l 1
 562.454 362.073 l 1
 562.454 565.158 l 1
 511.302 606.997 446.18 632.006 376.044 632.006 c 2
 375.598 632.006 l 2
 305.803 631.894 241.805 607.323 191.384 566.668 c 1
EndSplineSet
Validated: 33
EndChar

StartChar: uni2023
Encoding: 8227 8227 436
GlifName: uni2023
Width: 614
Flags: HW
LayerCount: 2
Back
Fore
SplineSet
549.276 305.209821125 m 1
 549.276 277.431 l 1
 515.282947 266.757928907 405.506702041 270.617137468 356 261.05422732 c 0
 128.505257661 240.127701299 159.206273 192.7990207 74.8074031 17.47108121 c 1
 52.0628123 28.1990169 l 1
 100.6492246 220.51934 119.01403 316.029604 37.5188923 556.9685 c 1
 65.20908 564.240983 l 1
 137.51932 387.895423 132.569007366 321.104382864 325.639832305 318.307821125 c 0
 413.406228117 316.642335125 512.614231509 312.694032125 549.276 305.209821125 c 1
EndSplineSet
EndChar

StartChar: dagger
Encoding: 8224 8224 437
GlifName: dagger
Width: 442
Flags: HW
LayerCount: 2
Fore
SplineSet
255.443 370 m 1
 240.799 262 240.276 250 234 -18 c 1
 209.477 -18 l 1
 202.155 266 201.862344727 282.899414062 188.034 370 c 1
 202.678 441.221352941 205.293 460.280588236 209.477 523.477 c 1
 136.862 518.247 l 2
 85.0545952881 513.017 88.0735454546 506.741 63.201 506.741 c 3
 39.2039527155 506.741 22.724 523.247 22.724 535.477 c 3
 22.724 547.377168776 40.2540380859 564.736 63.724 564.736 c 3
 87.7825526316 564.736 89.140992986 558.983 136.862 554.276 c 2
 209.477 549.046 l 1
 203.724 618.569 l 2
 200.063 653.897167805 192.741 679.214158537 192.741 700.092 c 3
 192.741 723.749764977 209.89058553 738.137997635 222 738.138 c 1
 234.164306079 738.138002406 251.259 723.750479584 251.259 701.138 c 3
 251.259 678.529821428 243.937 651.596029626 240.276 618.569 c 2
 234.523 549.046 l 1
 307.138 554.276 l 2
 359.637548951 559.506 355.255105263 565.259 380.276 565.259 c 3
 403.735377328 565.259 421.276 548.594516858 421.276 536.523 c 3
 421.276 524.127177835 404.090692114 507.264 379.753 507.264 c 3
 355.548 507.264 355.017956301 513.54 307.138 518.247 c 2
 234 523.477 l 1
 238.184 461.283705882 240.799 442.224470588 255.443 370 c 1
EndSplineSet
EndChar

StartChar: daggerdbl
Encoding: 8225 8225 438
GlifName: daggerdbl
Width: 442
Flags: HW
LayerCount: 2
Fore
SplineSet
192.218 369 m 1
 204.004634146 440.219915584 206.109390244 460.281863636 209.477 523.477 c 1
 134 518.247 l 2
 78.8766312128 513.017 83 506.741 57 506.741 c 3
 38.1956641602 506.741 22.724 524.374454546 22.724 535.477 c 3
 22.724 546.5304 39.0531874047 564.736 58 564.736 c 3
 83 564.736 83.9460495856 558.983 134 554.276 c 2
 209.477 549.046 l 1
 203.724 620 l 2
 200.063 658.48917899 192.741 681.709682927 192.741 702.954 c 3
 192.741 724.543461538 210.9466 738.138 222 738.138 c 3
 233.0534 738.138 251.259 724.072081081 251.259 704 c 3
 251.259 681 243.937 657.058204421 240.276 620 c 2
 234.523 549.046 l 1
 310 554.276 l 2
 365.065570443 559.506 360 565.259 386 565.259 c 3
 405.052680925 565.259 421.276 547.625545454 421.276 536.523 c 3
 421.276 525.4696 404.847181083 507.264 385 507.264 c 3
 360 507.264 360.166720481 513.54 310 518.247 c 2
 234 523.477 l 1
 237.367609756 461.284961039 239.472365854 441.223012987 251.259 369 c 1
 239.472365854 297.784286624 237.367609756 274.714407643 234 211.523 c 1
 309 216.753 l 2
 364.116094914 221.983 360 228.259 386 228.259 c 3
 405.28133584 228.259 420.276 210.625545454 420.276 199.523 c 3
 420.276 188.4696 403.806714296 170.264 385.477 170.264 c 3
 360.320092105 170.264 359.360402113 176.017 309 180.724 c 2
 234 185.954 l 1
 239.753 115 l 2
 243.414 76.8603746189 250.736 54 250.736 33 c 3
 250.736 10.2119230769 232.5304 -3.138 221.477 -3.138 c 3
 210.4236 -3.138 192.218 10.322 192.218 33.862 c 3
 192.218 56.0783571428 199.54 79.1855526395 203.201 115 c 2
 208.954 185.954 l 1
 133 180.724 l 2
 77.9237879453 175.494 83 169.741 57 169.741 c 3
 37.9473190739 169.741 21.724 187.374454546 21.724 198.477 c 3
 21.724 209.5304 38.1528189174 227.736 58 227.736 c 3
 83 227.736 82.8890401159 221.46 133 216.753 c 2
 209.477 211.523 l 1
 206.109390244 273.711369427 204.004634146 296.781248408 192.218 369 c 1
EndSplineSet
EndChar

StartChar: longs
Encoding: 383 383 445
GlifName: longs
Width: 357
VWidth: 1159
Flags: W
HStem: -6 36<34 97.3708 215.17 284.568> 1 32<191.619 282.018> 356 25<46 67.3182> 701 55<273.459 377.117>
VStem: 113 72<42.1466 356 403 602.768>
AnchorPoint: "Top" 262 748 basechar 0
AnchorPoint: "Bottom" 156 -15 basechar 0
LayerCount: 2
Fore
SplineSet
359 756 m 3x78
 391 756 441 745 466 723 c 1
 465 696 466 696 417 659 c 1
 378 677 347 701 309 701 c 3
 206 701 201 609 191 498 c 0
 187.339 461.394 185 339.326 185 293 c 3
 185 211 186 134 191 54 c 0
 192 39 198 34 214 33 c 0x78
 239 32 262 32 287 31 c 1
 284 -6 l 1xb8
 242 -1 182 1 140 1 c 3x78
 110 1 64 -2 34 -6 c 1
 33 30 l 1xb8
 44 31 58 31 69 33 c 0
 100 40 104 53 106 81 c 0
 111 133 114 201 114 266 c 3
 114 285.149 113 320.574 113 356 c 1
 46 356 l 1
 46 381 l 1
 113 403 l 1
 113 439.562 113 481.75 113 493 c 3
 113 601 156 657 224 704 c 0
 263 731 300 756 359 756 c 3x78
EndSplineSet
Validated: 1
Substitution2: "case-1" S
Substitution2: "pcap-1" s.pcap
Substitution2: "smcp-1" s.smcp
EndChar

StartChar: ohorn
Encoding: 417 417 448
GlifName: ohorn
Width: 505
VWidth: 0
UnlinkRmOvrlpSave: 1
Flags: HW
HStem: -11 39<199.926 327.747> 365.36 24.3843<349.604 421.731> 374 45<168.903 305.133> 382.741 20G<338.441 342.053>
VStem: 32 76<130.211 291.037> 395 78<107.641 276.826> 442.501 86.0273<403.736 481.559>
AnchorPoint: "Top" 251 465 basechar 0
AnchorPoint: "Bottom" 249 -15 basechar 0
AnchorPoint: "Middle" 255 206 basechar 0
LayerCount: 2
Fore
SplineSet
334.482421875 402.741210938 m 5x9a
 349.62424831 396.926343349 372.471667174 389.744140625 386.686523438 389.744140625 c 7
 411.796269819 389.744140625 442.501138157 408.271731058 442.501138157 441.560602678 c 7
 442.501138157 449.63955766 438.983530489 459.025418514 428.6640625 470.818359375 c 5
 444.576416165 489.781030223 464.379979468 500.219391987 482.796821553 500.219391987 c 7
 512.365850716 500.219391987 528.528388939 475.09191665 528.528388939 445.9790134 c 7
 528.528388939 396.089685559 450.426516037 365.359813167 388.72825766 365.359813167 c 7xca
 357.132622939 365.359813167 342.400200021 377.606700862 334.482421875 402.741210938 c 5x9a
EndSplineSet
Refer: 14 111 N 1 0 0 1 0 0 2
Substitution2: "smcp-1" ohorn.smcp
Substitution2: "case-1" Ohorn
Substitution2: "pcap-1" ohorn.pcap
EndChar

StartChar: uhorn
Encoding: 432 432 449
GlifName: uhorn
Width: 526
VWidth: 0
UnlinkRmOvrlpSave: 1
Flags: W
HStem: -11 55<175.733 263.795> 338 31<292 351.243> 402 20G<128 167>
VStem: 70 76<75.1633 330.249> 359 64<36.0058 52 76.9705 331.63> 493.501 86.0273<404.739 481.559>
AnchorPoint: "Top" 265 465 basechar 0
AnchorPoint: "Bottom" 256 -15 basechar 0
LayerCount: 2
Fore
SplineSet
410 375 m 5
 418.121414362 381.745491074 430.375771951 388.077148438 438 390.077148438 c 5
 462.968647592 396.077148438 493.500976562 408.485648026 493.500976562 441.560546875 c 7
 493.500976562 449.639517266 489.983409974 459.025396022 479.6640625 470.818359375 c 5
 495.576431876 489.781246013 515.380014732 500.219726562 533.796875 500.219726562 c 7
 563.365825233 500.219726562 579.528320312 475.092318034 579.528320312 445.979492188 c 7
 579.528320312 396.08959691 501.426629866 370.359375 439.728515625 365.359375 c 5
 422.413060772 365.359375 414.339204806 368.517835056 410 375 c 5
285 369 m 1
 339.422818792 375.199161305 395.899328859 382.557301496 438 390.077148438 c 1
 445 378 l 1
 431 335.584 423 173.632 423 137 c 3
 423 107 426.284077022 81.1592297825 429 54 c 0
 430 44 433 36 443 36 c 3
 447 36 473 43 493 48 c 1
 499 17 l 1
 463 8 419.410107664 -9.647473084 386 -18 c 0
 382 -19 381 -22 376 -22 c 3
 359 -22 359 0 354 52 c 1
 313 34 236 -11 178 -11 c 3
 140 -11 102.934188969 5.51320688895 86 44 c 0
 75 69 70 95 70 143 c 3
 70 198 73 255 73 312 c 0
 73 322 69 331 59 331 c 3
 49 331 28 319 22 317 c 1
 12 348 l 1
 53 359 107 394 149 422 c 1
 167 406 l 1
 152 336 146 254 146 177 c 3
 146 106 161 44 232 44 c 3
 269 44 322 69 353 85 c 1
 354 154 359 291 359 298 c 3
 359 337 329 337 292 338 c 1
 285 369 l 1
EndSplineSet
Substitution2: "smcp-1" uhorn.smcp
Substitution2: "case-1" Uhorn
Substitution2: "pcap-1" uhorn.pcap
EndChar

StartChar: yen
Encoding: 165 165 451
GlifName: yen
Width: 463
VWidth: 1159
UnlinkRmOvrlpSave: 1
Flags: HW
LayerCount: 2
Fore
SplineSet
274.890625 169.708984375 m 1
 274.314622807 115.248982948 272.283654214 50.1171047102 283.09765625 -128.499023438 c 0
 285.015173967 -160.170886375 292.119204273 -161.0586431 320.783203125 -167.310546875 c 1
 317.580078125 -195.142578125 l 1
 274.689595576 -186.83690152 222.038207283 -183.218788643 178.485351562 -198.678710938 c 1
 171.08984375 -171.665039062 l 1
 195.610467016 -162.26863286 206.390990071 -155.268664903 207.260742188 -117.220703125 c 0
 207.787638441 -104.621204106 205.843021338 150.767976016 205.118164062 143.750976562 c 1
 204.034116885 150.049303618 155.095264654 248.178623374 87.2695828038 343.999997223 c 0
 76.0701508093 359.82210075 59.2291043945 378.720580661 49 385 c 1
 139 433 l 1
 144.933661013 402.938576204 168.652866704 351.939024868 181.091541944 327.999991964 c 0
 221.31584563 250.585724695 252.239236655 211.848881796 255.486328125 207.837890625 c 1
 299.730787717 303.031969433 321.320964056 356.628741888 331 433 c 1
 345.5 424.066173481 396.25 400.848034565 418 391 c 1
 345.004852928 317.965777551 314.263107929 249.458544383 274.890625 169.708984375 c 1
EndSplineSet
Refer: 1970 58113 N 0.29 0 0 1.125 93 -2 2
Refer: 1970 58113 N 0.29 0 0 1.125 93 98 2
Position2: "'lnum-2' vertical adjustment" dx=0 dy=190 dh=0 dv=0
EndChar

StartChar: eth
Encoding: 240 240 453
GlifName: eth
Width: 471
VWidth: 1159
UnlinkRmOvrlpSave: 1
Flags: HW
LayerCount: 2
Fore
SplineSet
379.758 320.925 m 1
 343.595090909 349.59488 258.340249491 368.063 230.586 368.063 c 3
 200.047430769 368.063 72.92 328.345020808 72.92 199.765 c 3
 72.92 110.98482871 128.383758301 31.598 223.38 31.598 c 3
 339.065716104 31.598 387.465 130.991328471 387.465 218.218 c 3
 387.465 399.813467488 231.109 638.034 65.954 702.385 c 1
 69.731309326 708.395214944 77.2373046875 727.453125 77.2373046875 727.453125 c 1
 260.283740169 675.166289781 435 439.719447105 435 235 c 3
 435 113.962890625 360.284179688 -5 193 -5 c 3
 102.911132812 -5 28 65.923828125 28 171 c 3
 28 325.439380973 172.458881356 403.569 253.029 403.569 c 3
 279.763832491 403.569 333.611010941 391.750455753 360.959 378.644 c 1
 379.758 320.925 l 1
EndSplineSet
Refer: 1970 58113 N 0.284488 0.177084 -0.547233 0.872389 113.819 489.958 2
Substitution2: "pcap-1" eth.pcap
Substitution2: "case-1" Eth
Substitution2: "smcp-1" eth.smcp
EndChar

StartChar: quotereversed
Encoding: 8219 8219 462
GlifName: quotereversed
Width: 200
VWidth: 1159
Flags: HW
LayerCount: 2
Fore
SplineSet
145.645164062 467.695 m 1
 66.7591640625 518.862 41.0181640625 625.092 41.0181640625 632.523 c 1
 41.0181640625 637.569 42.5871640625 642.092 46.6331640625 643.615 c 0
 65.5197373047 652.002679687 79.570046875 665.368 90.4321640625 685.414 c 0
 92.0459990234 689.036103516 96.5241640625 691.552 101.570164062 691.552 c 3
 106.40421582 691.552 111.238267578 688.983 112.708164063 684.937 c 0
 121.067894531 665.156983399 135.892164063 653.184 154.507164063 643.615 c 0
 158.130665039 642.064516601 159.122164062 637.500990234 159.122164062 632.523 c 3
 159.122164062 627.397344726 158.076164062 621.749155274 154.030164063 619.908 c 0
 136.145104492 610.320367187 118.662164062 598.201 110.093164062 580.494 c 0
 100.242691406 559.58553125 128.599164062 516.557 162.599164062 488.402 c 1
 145.645164062 467.695 l 1
EndSplineSet
Position2: "cpsp-1" dx=0 dy=0 dh=7 dv=14
EndChar

StartChar: uni20B9
Encoding: 8377 8377 466
GlifName: uni20B_9
Width: 426
VWidth: 1159
UnlinkRmOvrlpSave: 1
Flags: W
HStem: -42 23<381.506 409> 283 31<32 113.386> 460.095 28.999<33.25 411.25>
VStem: 248 79<400.509 544.149>
LayerCount: 2
Fore
SplineSet
33.25 666.09375 m 1
 411.25 666.09375 l 1
 411.25 637.094726562 l 1
 33.25 637.094726562 l 1
 33.25 666.09375 l 1
33.25 489.09375 m 1
 411.25 489.09375 l 1
 411.25 460.094726562 l 1
 33.25 460.094726562 l 1
 33.25 489.09375 l 1
32.5 666 m 1
 57.25390625 666 67.658203125 666 96 666 c 0
 222.431640625 666 327 583 327 480 c 0
 327 393 262.599609375 334 189 304 c 1
 265.474609375 110.581054688 332.772460938 -13.0947265625 412 -19 c 1
 409 -42 l 1
 258 -39 178 134 114 284 c 1
 100.875 283 89.2080078125 283 79 283 c 0
 60.6474609375 283 50.3525390625 285.400390625 32 286 c 1
 32 316 l 1
 49.912109375 315.5 59.087890625 314 77 314 c 3
 219.663085938 314 248 410.737304688 248 469 c 3
 248 534.418945312 188.37890625 638 75 638 c 3
 61.8720703125 638 35.193359375 638 33.5 638 c 1
 32.5 666 l 1
EndSplineSet
EndChar

StartChar: eng
Encoding: 331 331 467
GlifName: eng
Width: 499
VWidth: 1159
Flags: W
HStem: -319 60<162.258 279.828> -5 33<20.3636 69> 335 29<32 79.6511> 338 61<245.574 353.747> 396 20G<129 175>
VStem: 95 75<72.7464 318.176 330 331.265> 379 69<-89.8607 313.154>
LayerCount: 2
Fore
SplineSet
329 -267 m 4xd6
 284.360294118 -296 253 -319 194 -319 c 7
 162 -319 112 -308 87 -286 c 5
 88 -259 87 -259 136 -222 c 5
 165.972222222 -237.857142857 189.796296296 -259 219 -259 c 7
 247.822033898 -259 296.27809609 -258.437912348 316 -237 c 4
 342.595265849 -208.090672547 360.595200234 -175.050461911 367 -146 c 4
 373.749647059 -115.385402827 379 -41.9109823322 379 143 c 7
 379 192.5 376.549026451 266.820841347 374 287 c 4
 369 328.328358209 348 358 293 358 c 7xd6
 245 358 203 344.4 170 324 c 5
 168 234.329113924 161 109.430379747 161 71 c 7
 161 27.80589946 195.795590225 30.6204409775 232 27 c 5
 228 -7 l 5
 189 -1 159 4 117 4 c 7
 87 4 51 -1 21 -5 c 5
 18 28 l 5
 55.449092135 34.8089258427 78.318284601 37.5524032329 87 76 c 4
 94 107 95 167 95 199 c 7
 95 219 92.9313485794 287.976104104 86 308 c 4
 77 334 72 336 54 336 c 7
 44 336 41 335 32 335 c 5
 30 364 l 5
 67 371 104 375 154 416 c 5xee
 175 401 l 5
 170 387.056338028 167 366.915492958 167 346 c 5
 215 377 267 415 330 415 c 7
 403 415 448 375 448 304 c 7
 448 213.433607383 445 119.425469455 445 -84 c 7
 445 -134 432.819094368 -164.880515375 419 -186 c 4
 396.752808989 -220 368.44138087 -241.377070309 329 -267 c 4xd6
EndSplineSet
Validated: 1
Substitution2: "smcp-1" eng.smcp
Substitution2: "case-1" Eng
Substitution2: "pcap-1" eng.pcap
EndChar

StartChar: Eng
Encoding: 330 330 468
GlifName: E_ng
Width: 836
VWidth: 1159
Flags: W
HStem: -241 62<483.653 578.44> -10 44<23.3182 86.8179 186.794 270.067> 655 39<771.217 833> 663 38<601.079 678.507>
VStem: 97 55<66.5393 314.07> 105 56<351.62 550> 676.266 70.7344<-86.2532 70.0219>
LayerCount: 2
Fore
SplineSet
628 -189 m 0xe6
 589 -216 552 -241 493 -241 c 3
 461 -241 411 -230 386 -208 c 1
 387.224489796 -178.046875 386 -178.046875 446 -137 c 1
 485 -155 508.349151158 -179 554 -179 c 3
 640.616503398 -179 676.265625 -76.9678502479 676.265625 -13.4755859375 c 3
 676.265625 48.2626834417 640.03404243 103.097021502 604 139.090820312 c 0
 459.896 279.614068929 313.026 416.065410818 161 550 c 1xe6
 152 154 l 2
 149.672574689 52.4216563039 186 44.674796748 277 35 c 1
 269 -11 l 1
 229.225006617 -2.55029543162 191.72886241 0.193359375 156.584960938 0.193359375 c 0
 107.789937357 0.193359375 63.5294692282 -6.59829339283 24 -10 c 1
 19 34 l 1
 77 34 94.2505340003 45.0370931165 97 93 c 0xea
 106 246.782786885 108.836453881 409.412965035 105 571 c 0
 104 614 69 649 12 648 c 1
 14 692 l 1
 53 688 104.987806691 684 146 684 c 0
 161 684 162.224003945 680.217054625 169 673 c 0
 318.792 516.927864326 473.300161891 367.004316767 636 223.227539062 c 0
 659.155 202.310678333 682.86 176.9488472 699 154 c 1
 708 281.98180798 710.135155394 409.964631854 709 545 c 0
 708 667 656 656 597 663 c 1
 602 701 l 1xd6
 658.737273127 693.806776525 706.285370634 691.3984375 751.0625 691.3984375 c 0
 778.931628397 691.3984375 805.747514379 692.483615703 833 694 c 1
 837 655 l 1
 788 649 766.708243919 651.026764413 763 609 c 0
 748 442.189493433 745 264.596148366 745 86 c 0
 745 63 747 43 747 0 c 3
 747 -86.94 692.388915009 -144.42305884 628 -189 c 0xe6
EndSplineSet
Validated: 33
Position2: "cpsp-1" dx=0 dy=0 dh=50 dv=100
Substitution2: "c2pc-1" eng.pcap
Substitution2: "c2sc-1" eng.smcp
EndChar

StartChar: circumcombhigh
Encoding: 58081 58081 471
GlifName: circumcombhigh
Width: 0
VWidth: 1159
Flags: HW
LayerCount: 2
Fore
SplineSet
-71.2197 465.56 m 5
 -91.4875037266 450.319160242 l 5
 -117.0568465 476.878837 -191.227923188 538.299161 -197.2615 538.299161 c 5
 -203.294158142 538.299161 -287.107048208 467.230240875 -303.988768953 450.319160242 c 5
 -323.78 465.56 l 5
 -215.364 583.681 l 5
 -179.636 583.681 l 5
 -71.2197 465.56 l 5
EndSplineSet
EndChar

StartChar: a.pcap
Encoding: 57347 57347 643
GlifName: a.pcap
Width: 472
VWidth: 1159
Flags: HW
AnchorPoint: "Top" 250 465 basechar 0
AnchorPoint: "Bottom" 239 -15 basechar 0
LayerCount: 2
Fore
SplineSet
168.799 167.046 m 1
 207.637529412 163.83475 264.600705882 164.477 300.85 164.477 c 1
 272.083666667 235.16989916 264.225 250.841789916 234.925 322.591 c 1
 204.61725 246.847347826 196.3515 231.969130435 168.799 167.046 c 1
328.39 -6.046 m 1
 328.39 -6.046 323.436 10.58024 320.959 17.046 c 1
 337.19878125 23.6237692308 353.965918416 30.6728521585 351.528 36.368 c 0
 335.83253125 79.5174318182 326.459875 97.6856136364 311.419 136.293 c 1
 285.844307087 139.954 194.50611811 142.046 156.753 139.908 c 1
 139.785 100.688413793 127.478578114 76.194824588 113.121 39.552 c 0
 109.966152277 29.8356869312 127.319709091 19.9935862069 159.058 19.615 c 1
 154.242 -7 l 1
 141.089530632 -2.9169921875 115.949495411 -0.875 92.8076171875 -0.875 c 3
 71.8214041203 -0.875 52.1281018194 -1.9169921875 40.201 -4 c 1
 40.201 -2.07338461539 37.55875 12.3762307692 36.678 21.046 c 1
 65.5955769231 24.7104 76.1087965871 35.5942223767 77.707 39.368 c 0
 135.3765 161.162486154 184.877856532 272.525900713 226 372 c 0
 233.115826359 389.171276219 232.31175 393.816 236.862 415 c 1
 261.661 415 l 1
 266.8535 395 263.588186113 395.84032753 272.046 373 c 0
 317.737134328 244 349.526065688 158.916352728 407 37 c 0
 412.399403071 26.0568955576 428.933571428 21 437.707 21 c 1
 437.707 19 435.799 5 432.891 -3 c 1
 421.034625111 -0.380859375 404.666815238 1.0947265625 388.015382812 1.0947265625 c 3
 365.453751878 1.0947265625 342.395272499 -1.075316894 328.39 -6.046 c 1
EndSplineSet
EndChar

StartChar: b.pcap
Encoding: 57348 57348 644
GlifName: b.pcap
Width: 444
VWidth: 1159
Flags: HW
AnchorPoint: "Bottom" 218 -15 basechar 0
AnchorPoint: "Top" 213 465 basechar 0
LayerCount: 2
Fore
SplineSet
61 22 m 1
 77.9423329161 23.6215454545 116.494 23.2310588966 117.54 44.029 c 0
 118.586 45.1260884956 119.632 99.9805132744 119.632 168 c 3
 119.632 262.315160121 116.997217714 344.2843254 117.017 345.402 c 0
 116.754923077 366.017454545 116.003045782 374.682534422 102.586 377.954 c 0
 96.2869411278 378.792558897 66.2626470589 381.954 60 382.954 c 1
 64 407 l 1
 72 407 104 401 136 401 c 3
 166 401 207 407 236 407 c 3
 311.033368421 407 344.276 342 344.276 305 c 3
 344.276 264.540240964 301.836457143 228.126457831 282.385 221.046 c 1
 341.084090909 208.82292324 390 166.041670423 390 109 c 1
 390 41.5927734375 330 -3 239 -3 c 3
 209 -3 171 1 138 1 c 3
 103 1 69 -2 63 -2 c 1
 61 22 l 1
226 226 m 0
 263.323565217 230.4471875 292.034 264.12390625 292.034 297.155 c 3
 292.034 321.5014 273.746107143 381.431 225.54 381.431 c 3
 219.9625 381.431 186.570969591 378.774614717 180.92 378.523 c 0
 170.529455543 376.757758652 170.828 365.178835561 169.782 357.678 c 0
 167.167 291.1005 167.167 226.636571429 166.644 224.523 c 1
 219.54826087 224.523 224.386000546 225.368698754 226 226 c 0
215 205 m 3
 211.159703071 205 160.811 205.523 166.121 205.523 c 1
 166.121 147.678792382 165.979642667 92.1946680779 167.167 56.782 c 0
 167.72425533 37.5698504346 169.569344567 32.0096229717 181.351 28.661 c 0
 185.819657895 27.138 226.037578948 22.569 237.954 22.569 c 3
 303.15928 22.569 337.758 55.6949905063 337.758 105.385 c 3
 337.758 155.696068474 303.588247423 205 215 205 c 3
EndSplineSet
EndChar

StartChar: c.pcap
Encoding: 57349 57349 645
GlifName: c.pcap
Width: 500
VWidth: 1159
Flags: HW
AnchorPoint: "Bottom" 287 -15 basechar 0
AnchorPoint: "Top" 298 465 basechar 0
LayerCount: 2
Fore
SplineSet
56 200 m 3
 56 304.921875 136 414 307 414 c 3
 333 414 362.645664417 412.322287539 387 405 c 0
 417.3155324 396.2434892 424.635235294 399.615 439.431 401.046 c 1
 457 391 l 1
 430 357 418 338 417 319 c 0
 416 300 412 301 393 301 c 1
 391 329.879 401.017 355.448 384.879 366.155 c 0
 356.923204968 381.954290015 334.51615 388.431 299.155 388.431 c 3
 194.58676 388.431 112.426 322.573088878 112.426 207.322 c 3
 112.426 91.9742198953 208.438222222 20.615 295.414 20.615 c 3
 385.987260466 20.615 405.586 67.971 422 111 c 1
 443 105 l 1
 438 73 435 60 429 27 c 1
 392 9 339 -6 286 -6 c 3
 174 -6 56 73 56 200 c 3
EndSplineSet
EndChar

StartChar: d.pcap
Encoding: 57350 57350 646
GlifName: d.pcap
Width: 560
VWidth: 1159
Flags: HW
AnchorPoint: "Bottom" 258 -15 basechar 0
AnchorPoint: "Top" 269 465 basechar 0
LayerCount: 2
Fore
SplineSet
244.862 21.615 m 3
 381.810156425 21.615 449.143 90.7037951183 449.143 203.477 c 3
 449.143 312.076609375 364.701966102 384.477 253.54 384.477 c 3
 233.1925 384.477 206.635150047 379.321659332 172.15 374.908 c 0
 158.219949269 372.321410034 157.285725969 367.19906863 157.15 352.908 c 0
 155.614461355 282.989031804 154.685959189 224.884744812 154.685959189 163.376067263 c 3
 154.685959189 129.590220604 155.206470381 94.8482246687 156.104 56.799 c 0
 156.104 39.644 159.347716628 33.2045292687 173.104 29.799 c 0
 191.823478261 26.661 215.216292301 21.615 244.862 21.615 c 3
60 404 m 1
 85 403 111 401 136 401 c 3
 186 401 213 409 263 409 c 3
 426 409 504 303.909179688 504 205 c 3
 504 42.3525390625 365 -5 249 -5 c 3
 207 -5 183 -1 140 -1 c 3
 96 -1 81 -4 62 -7 c 1
 61 18 l 1
 91.3174285714 21.961 103.544063173 18.396075304 104.908 46.368 c 0
 106.357499931 86.3328260123 106.984157786 134.325448136 106.984157786 181.330678414 c 3
 106.984157786 248.584835938 106.154677055 313.263943386 103.816 347 c 0
 101.594718619 379.140608659 101.6252 376.892451613 60 378.954 c 1
 60 404 l 1
EndSplineSet
EndChar

StartChar: e.pcap
Encoding: 57351 57351 647
GlifName: e.pcap
Width: 468
VWidth: 1159
Flags: HW
AnchorPoint: "Bottom" 243 -15 basechar 0
AnchorPoint: "Top" 243 465 basechar 0
LayerCount: 2
Fore
SplineSet
63 404 m 1
 103.716719432 402.132260577 156.294170747 401.38082533 207.075831097 401.38082533 c 3
 292.238349339 401.38082533 372.35031404 403.494191539 383 406 c 1
 390.208111566 399.821618658 392.821397686 394.350133538 392.821397686 386.87609291 c 3
 392.821397686 372.575379949 383.254052737 350.943231223 378 303 c 1
 358 301 l 1
 353.477 328.218 367.295831891 358.694970363 350.925 367.586 c 0
 318.949765017 373.028438842 286.035739945 375.938871798 241.11365239 375.938871798 c 3
 219.347341694 375.938871798 197.426756041 375.094023834 178.673 373.339 c 0
 169.646659956 372.846185055 162.673 361.510526316 162.673 352.908 c 0
 160.058 304.833722396 157.966 259.893948698 156.966 216 c 1
 202.71620339 216 291.017 217 306.925 218.569 c 0
 329.623236102 221.184 329.989630435 237.117042553 341 267 c 1
 362 263 l 1
 357.43132713 246.552777669 355.576114593 226.348456416 355.576114593 205.820027424 c 3
 355.576114593 181.41543193 358.198071009 156.552777669 362 137 c 1
 339 131 l 1
 327.9222 190.966072727 330.515759714 185.724 306.402 188.862 c 0
 273.194 192.523 223.382 192 156.966 192 c 1
 156.489 133.523396942 156.316852986 84.3697749779 162.765 45.276 c 0
 163.846043279 37.1587133376 169.661029077 31.4033124006 178.765 30.276 c 0
 217.061091554 27.1024255398 247.965869759 24.8654698599 277.913392582 24.8654698599 c 3
 300.741707217 24.8654698599 335.174303291 26.5481971664 350.218 38.937 c 0
 374.431 61.075 380.77 89.77 397 120 c 1
 416 115 l 1
 407 75 398 33 391 -4 c 1
 327.763113226 -2.83969015085 258.690885532 -0.384671863407 194.928927487 -0.384671863407 c 3
 147.722224945 -0.384671863407 103.918409428 -1.74165738677 69 -6 c 1
 63 17 l 1
 98.4508571429 23.523 105.265353317 23.8697841274 107.385 53 c 1
 109.324280778 77.8029804525 110.133582353 141.57388693 110.133582353 207.545044419 c 3
 110.133582353 267.721717716 110.09313128 326.005338313 108.908 347 c 0
 107.617663387 375.037829066 104.724 375.523 60 385 c 1
 63 404 l 1
EndSplineSet
EndChar

StartChar: f.pcap
Encoding: 57352 57352 648
GlifName: f.pcap
Width: 439
VWidth: 1159
Flags: HW
AnchorPoint: "Bottom" 168 -15 basechar 0
AnchorPoint: "Top" 231 465 basechar 0
LayerCount: 2
Fore
SplineSet
244.598 -9 m 1
 212.926141893 -1.08203547322 189.566512256 2.17928378577 158.729664803 2.17928378577 c 3
 131.148502471 2.17928378577 108.93806067 -0.334368540005 74 -6 c 1
 68 17 l 1
 96.5806956522 23.98876 113.35988047 29.8512590727 114.954 51.736 c 1
 115.743935715 71.8216105971 116.138438763 129.735245378 116.138438763 192.542328907 c 3
 116.138438763 260.775149297 115.665929922 333.417897875 114.431 356.586 c 0
 113.321757883 374.053086635 92.348 373.173454546 60 381 c 1
 64 402 l 1
 97.6728004421 400.426504652 139.664583252 399.546257835 181.498092776 399.546257835 c 3
 272.596369746 399.546257835 362.944097209 403.720486043 365 414 c 1
 380.774414062 406.60546875 385 398 385 383 c 3
 385 367 380.521484375 343.536132812 379 305 c 1
 358 303 l 1
 352.2862 323.2436 358.247 360.31 341.356 368.494 c 0
 318.189 379.816 264.352528027 375.569 176.627 373.385 c 0
 167.601028617 372.924162667 165.627 364.385 165.627 354.385 c 0
 163.535 306.863992382 163.012 259.342984766 163.012 216.046 c 1
 201.912088235 216.046 288.582784704 218.162701367 299.833 219.092 c 0
 319.565899613 221.999605428 321.477 245.138 332 271 c 1
 354 267 l 1
 348.852299546 247.953508322 346.619469288 223.342264451 346.619469288 198.895403866 c 3
 346.619469288 175.851426929 348.603390318 152.953508322 352 135 c 1
 329 129 l 1
 319.508651163 180.102034483 319.412186788 187.293 299.356 189.385 c 0
 263.478242719 192 235.573320388 191.477 162.489 189.954 c 1
 164.058 121.868 163.535 95.6887864108 166.15 53.782 c 0
 168.765 30.4521048182 177.886460938 31.247 248.598 20.276 c 1
 244.598 -9 l 1
EndSplineSet
EndChar

StartChar: g.pcap
Encoding: 57353 57353 649
GlifName: g.pcap
Width: 543
VWidth: 1159
Flags: HW
AnchorPoint: "Bottom" 288 -15 basechar 0
AnchorPoint: "Top" 285 465 basechar 0
LayerCount: 2
Fore
SplineSet
56 205 m 3
 56 368 235 412 318 412 c 1
 354 412 381.104628306 400.450842923 409 394 c 0
 417 392 424.908 391.23 428 407 c 1
 446 406 l 1
 458 301 l 1
 437 297 l 1
 417.494 375.787 330.709464616 385.908 306.494 385.908 c 3
 204.715016685 385.908 110.857 308.190793208 110.857 208.138 c 1
 110.857 101.552 197.262907515 20.092 300.075 20.092 c 1
 327.636966235 20.092 369.31 27.431 405.327 40.661 c 0
 412.007932759 43.1780098313 414.942 56.3379 414.942 65.414 c 0
 414.942 91.3969672131 417.896 121.678 418.419 148.833 c 0
 417.896 167.168883689 413.896 176.523 365 181 c 0
 345.970659139 182.660347356 333 183 314 183 c 1
 315 205 l 1
 374 199 458 200 487 204 c 1
 489 187 l 1
 472.092 181.569 469.323327004 175.822137116 468 151 c 0
 466.622839744 120.016986179 465.419664439 93.0322620565 464 68 c 0
 463 43.845 465.569 43.092 480 33 c 1
 478 19 l 1
 432 12 320 -6 288 -6 c 1
 158 -6 56 78 56 205 c 3
EndSplineSet
EndChar

StartChar: h.pcap
Encoding: 57354 57354 650
GlifName: h.pcap
Width: 603
VWidth: 1159
Flags: HW
AnchorPoint: "Bottom" 307 -15 basechar 0
AnchorPoint: "Top" 311 465 basechar 0
LayerCount: 2
Fore
SplineSet
65 409 m 1
 95.4003836872 406.137533443 122.225100241 403.275066886 150.917189182 403.275066886 c 3
 171.860963136 403.275066886 193.155430583 404.306039799 217.259 407 c 1
 219.259 383 l 1
 187.290638298 377.138 167.99477585 382.228993941 166.15 367.908 c 1
 163.161525735 347.046185786 162.512857143 275.625023222 161.058 216.523 c 1
 450.08 217.046 l 1
 451.034 255.338219875 451.034 299.015919852 449.988 354.448 c 0
 448.942 381.091946665 426.304934783 373.138 393.402 385 c 1
 396.402 408 l 1
 419.303957552 403.252038065 442.415715308 401.414347071 465.929466992 401.414347071 c 3
 489.714454041 401.414347071 513.980573377 404.739805687 539 412 c 1
 543 388 l 1
 511.598297297 379.42325 503.396127512 380.774008738 501.707 361.063 c 0
 497.964548332 305.008325083 494.907565532 212.78582504 494.907565532 142.805180582 c 3
 494.907565532 95.3687535604 494.6683452 58.4849312202 497.23 45.46 c 0
 500.818998605 24.1859270824 515.029 27.816 542 21 c 1
 542 21 539 5 539 -2 c 1
 519.724513879 2.39267660441 495.969209259 4.87966835384 471.34168912 4.87966835384 c 3
 446.618688158 4.87966835384 420.977253311 2.14339970183 398.402 -4 c 1
 398.402 -2 393.402 12 392.402 20 c 1
 427.321431818 30.385 442.680642788 26.9680264395 444.988 48.029 c 0
 448.625142857 101.56346582 449.352571428 133.684145312 450.08 190.431 c 1
 160.535 190.431 l 1
 159.3195 140.467372495 159.3195 89.4183879588 160.104 47.983 c 0
 160.627 24.5777662672 182.436852631 30.339 215.259 21 c 1
 215.259 21 212.259 4 212.259 -3 c 1
 186.962104145 2.24915766523 160.086510583 5.01864055317 134.09491797 5.01864055317 c 3
 108.798512672 5.01864055317 84.5916543889 2.75056888793 64 -2 c 1
 64 -2 61 15.046 60 23.569 c 1
 88.116 29.6212058823 105.64622662 26.9489272321 107.385 48.506 c 0
 111.360251092 110.433006206 114.144139522 203.950998593 114.144139522 272.663590411 c 3
 114.144139522 319.618703053 114.346644493 355.220457479 112.862 363.155 c 0
 110.202981348 382.121886869 93.4946595743 380.137730769 63 384.477 c 1
 65 409 l 1
EndSplineSet
EndChar

StartChar: i.pcap
Encoding: 57355 57355 651
GlifName: i.pcap
Width: 329
VWidth: 1159
Flags: HW
AnchorPoint: "Bottom" 167 -15 basechar 0
AnchorPoint: "Top" 170 465 basechar 0
LayerCount: 2
Fore
SplineSet
66 409 m 1
 99.7879540824 402.856735621 132.527583242 400.120527242 165.828921767 400.120527242 c 3
 197.577048425 400.120527242 229.835708875 402.607448284 264 407 c 1
 265 380.908 l 1
 215.489 375.138 198.875055481 384.028155757 194.736 355.201 c 0
 191.669462105 311.489435823 188.829391948 257.678788694 188.829391948 184.084764567 c 3
 188.829391948 144.878573506 189.355152539 97.6000530407 191.075 49.736 c 0
 192.644 26.4052442674 210.242 23.862 269 18.569 c 1
 268 -6 l 1
 239.001113587 -2.61679658516 202.293652553 -0.868745362637 166.232145135 -0.868745362637 c 3
 127.680772104 -0.868745362637 89.8676317755 -2.86651818838 63 -7 c 1
 60 19 l 1
 110.612043478 22.0511 138.233896342 26.0929106874 140.448 52.305 c 0
 142.749407577 93.5682009057 143.964669821 147.37249665 143.964669821 200.63193923 c 3
 143.964669821 259.57413251 142.439625629 314.759602453 139.879 354.678 c 0
 135.695 380.241688691 109.649 375.092 64 382.908 c 1
 66 409 l 1
EndSplineSet
EndChar

StartChar: j.pcap
Encoding: 57356 57356 652
GlifName: j.pcap
Width: 310
VWidth: 1355
Flags: HW
AnchorPoint: "Bottom" 166 -77 basechar 0
AnchorPoint: "Top" 159 465 basechar 0
LayerCount: 2
Fore
SplineSet
134.695 352.879 m 0
 131.145376174 383.485125915 106.773723643 373.818878701 63.155 382.954 c 1
 66.155 408 l 1
 94.2345936019 402.076942811 121.168490037 399.682905207 148.261695043 399.682905207 c 0
 183.453918107 399.682905207 218.893384864 403.100578054 257 408 c 1
 258 381.431 l 1
 210.738310321 376.903710526 192.167 384.125943506 189.552 354.402 c 0
 185.891 283.654092773 186.937 216.223301269 186.937 130 c 1
 186.937 56 191.506 27.0017521162 192.029 2 c 1
 192.029 -52 158.789952331 -89.1529793772 120.661 -115 c 0
 97.8041 -130 75.9029 -142 54 -151 c 1
 48.530375 -151 35.247 -128.339 35.247 -128.339 c 1
 46.2108921189 -120.678456288 67.2484242691 -110.957071049 81.2469997866 -103.056957122 c 0
 85.1956971184 -100.824995053 88.6446218271 -98.7415931062 91.247 -96.862 c 1
 137.053576037 -66.394374026 141.402 -15.3421393335 140.879 21.782 c 1
 140.879 48.902686656 136.708424458 265.339388538 134.695 352.879 c 0
EndSplineSet
EndChar

StartChar: k.pcap
Encoding: 57357 57357 653
GlifName: k.pcap
Width: 495
VWidth: 1159
Flags: HW
AnchorPoint: "Bottom" 268 -15 basechar 0
AnchorPoint: "Top" 255 465 basechar 0
LayerCount: 2
Fore
SplineSet
278 402 m 1
 291.774408961 400.510874707 309.568026048 399.714716332 328.491490478 399.714716332 c 0
 360.399113313 399.714716332 395.518971607 401.978250586 420 407 c 1
 425 383 l 1
 400.961693548 377.607090909 383.381560104 373.355398087 365.385 358.586 c 0
 299.7445 304.783402344 250.2045 265.015399414 189.518 215.891 c 1
 189.518 215.891 354.317 81.6724491018 399.632 51.213 c 1
 417.938674203 36.6961439833 438.569 29.908 461 18 c 1
 458 0.569 l 1
 442 2.2845 409 4 395 4 c 0
 376.59625 4 339.78875 2 321.385 -1 c 1
 318.385 16 l 1
 323.887042553 26.4292857143 359.090183882 23.5394792625 340.511 40.184 c 1
 293.429610008 76.9927497083 227.6834375 131.476070652 156.92 185.816 c 1
 156.92 131.3048673 157.966 83.8508053834 159.012 47.167 c 0
 160.058 20.31950646 179.815112245 29.293 227.799 13 c 1
 225.799 -7 l 1
 200.387237207 -2.78159804316 167.488697722 -0.0158422144385 133.460844124 -0.0158422144385 c 0
 109.516187757 -0.0158422144385 85.0475266433 -1.21840195684 62 -4 c 1
 60 19 l 1
 91.1518 24.2533846154 106.232561314 21.5621593657 108.339 47.029 c 0
 110.973695421 98.2166934215 112.18163074 151.416746059 112.18163074 205.521569478 c 0
 112.18163074 251.997270368 111.832119767 299.211855099 109.908 346.218 c 0
 107.656042401 377.080391315 99.6158462245 372.942044671 61 384 c 1
 65 404 l 1
 85.8460981586 400.895261976 111.413534209 399.561025662 137.426907279 399.561025662 c 0
 166.66369023 399.561025662 196.529281317 401.66120402 219.46 405 c 1
 221.46 383 l 1
 175.350842105 374.23 163.196 383.059569313 160.581 350.54 c 1
 158.489 303.238841005 156.92 268.872942978 156.92 217.293 c 1
 214.225508065 266.330994331 260.809526584 305.554208805 308.109 346.971 c 0
 313.252745731 352.4505933 317.109 353.5894 317.109 363.155 c 1
 317.109 376.385 300.293 375.707 277 383 c 1
 278 402 l 1
EndSplineSet
EndChar

StartChar: l.pcap
Encoding: 57358 57358 654
GlifName: l.pcap
Width: 456
VWidth: 1159
Flags: HW
AnchorPoint: "Top" 159 465 basechar 0
AnchorPoint: "Bottom" 232 -15 basechar 0
LayerCount: 2
Fore
SplineSet
224.259 406 m 1
 226.259 380.477 l 1
 165.7616 371.258 163.38 382.286737761 159.719 342.126 c 0
 158.560412429 319.844068531 157.627 74.7861407849 157.627 71.61 c 1
 158.15 44.652198655 161.031668432 30.6816538877 182.886 30.276 c 0
 222.456948137 31.6329511403 303.916393798 29.9100198239 327.298 28.368 c 0
 360.252591761 28.5119166347 389.084291262 75.5753846154 395 114 c 1
 418 110 l 1
 417 68 409 64 391 -19 c 1
 370 -9 368.036638189 -4.046 342 -3 c 0
 336 -3 286 1 228 1 c 1
 103 1 76 -5 67 -5 c 1
 64 21.092 l 1
 100.951142857 26.0430681818 105.385 28.8040890738 106.954 52.213 c 0
 107.195439569 57.9994708988 108 102.351 108 173 c 1
 108.523 265.174834394 106.470600221 352.849927549 106.431 353.971 c 0
 105.3214 379.775114286 96.113 375.005114286 60 381.339 c 1
 63 408 l 1
 85.7670138771 402.156719048 115.850912402 399.870103265 145.478117488 399.870103265 c 1
 175.095055442 399.870103265 204.230970789 402.408593319 224.259 406 c 1
EndSplineSet
EndChar

StartChar: m.pcap
Encoding: 57359 57359 655
GlifName: m.pcap
Width: 654
VWidth: 1159
Flags: HW
AnchorPoint: "Top" 344 465 basechar 0
AnchorPoint: "Bottom" 316 -15 basechar 0
LayerCount: 2
Fore
SplineSet
597 0 m 1
 575.094169811 3.89436981129 546.316193208 6.12994566024 515.857107168 6.12994566024 c 0
 485.982767996 6.12994566024 454.370147502 3.64524150948 426.678 -2 c 1
 422.678 23 l 1
 494.1788 31.8659186047 500.164624172 29.6015118937 497.942 77.041 c 0
 493.172 169.398015497 494.126 224.811969919 490.942 315.85 c 1
 441.11688785 235.773540628 401.551138385 169.605704955 356.276 77.334 c 0
 345.480627507 54.5396320504 334.739818182 25.0562970297 329.954 4 c 1
 303.77 4 l 1
 302.062193548 30.118 292.192639373 55.9632446014 280.402 80.903 c 1
 258.912333333 131.9781266 175.862 288.703391602 166.276 309.804 c 1
 155.0852 215.43590207 148.478135901 163.389225643 142.46 60.673 c 0
 141.920526243 25.0308092827 166.744262295 25.0059076923 213 20 c 1
 209 -6 l 1
 187.386048398 -2.39767473296 159.680970498 -0.119507356688 130.791100797 -0.119507356688 c 0
 103.542484128 -0.119507356688 75.2398694448 -2.14617895292 50 -7 c 1
 48 18.092 l 1
 94.32665625 25.8221355932 105.936518593 25.3747711043 109.138 56.581 c 1
 115.797653846 112.93962181 128.073142789 261.76428002 135.339 321.637 c 1
 136.18 341.06275 135.258096325 356.200941405 122.724 365.971 c 0
 110.785507906 374.200021035 93.510421875 378.56763 53.477 382.385 c 1
 58 408 l 1
 87.4027716535 404 135.830866142 400 167.828 401 c 1
 181.828 401 183.870595903 389.016818521 187.828 379 c 0
 233.993557252 266.807345919 280.855320611 188.863529592 328.845 92.024 c 1
 342.247 113.665995117 497.929112433 394.472310803 498.218 394.523 c 0
 501.218 400.523 507.16992863 403.250396172 511.218 402.523 c 0
 535.51478 400 570.70322 400.523 595 404 c 1
 598 378.477 l 1
 552.138 376.953384615 539.475729808 375.15254768 539 339.712 c 0
 540.021062927 239.207912667 537.341407372 144.599710681 544.954 72.995 c 0
 548.881358518 29.4928655103 562.636 31.0084210526 598 25.615 c 1
 597 0 l 1
EndSplineSet
EndChar

StartChar: n.pcap
Encoding: 57360 57360 656
GlifName: n.pcap
Width: 587
VWidth: 1159
Flags: HW
AnchorPoint: "Top" 311 465 basechar 0
AnchorPoint: "Bottom" 295 -15 basechar 0
LayerCount: 2
Fore
SplineSet
63 406 m 1
 91.1741165049 401 124.299081583 399.954 148.351 401 c 0
 157.351 401 159.366448638 398.015324555 163.351 394 c 0
 271.707 280.827767578 356.431 190.127905273 455.247 90.794 c 1
 459.369409301 167.18288649 458.096949983 218.807401386 460.292430168 294.373 c 0
 460.600737426 305.161532264 460.989889701 316.471945278 461.201 328.482 c 0
 461.201 382.1005 446.08 379.661 392 385 c 1
 394 410 l 1
 426.30942523 405.123105626 456.389091204 403.590850136 484.465545845 403.590850136 c 0
 502.445376185 403.590850136 519.603695466 404.219223594 536 405 c 1
 539 380.477 l 1
 502.960268293 377.830541177 497.44510545 377.062658668 495.138 348.356 c 0
 488.651288461 257.362969072 484.477 141.271223563 485 44 c 0
 485 29.582625 489.105625 7.9565625 491.569 -5.431 c 1
 469 -11 l 1
 460.628243903 14 448.170122799 26.4176792837 430.862 46 c 0
 341.6714 144.340125732 247.2122 240.495742131 150.845 333.373 c 1
 150.845 341.071608887 146.9438 78.9283911127 146.799 78.041 c 1
 146.799 29.556 162.598 31.816 224 16.661 c 1
 219 -10 l 1
 196.614088118 -2.12347544897 173.197046502 0.425545475769 150.529953807 0.425545475769 c 0
 118.518773309 0.425545475769 88.0032891267 -4.65821569495 64 -7 c 1
 60 19.138 l 1
 105.54 23.954 113.279197935 25.2886956501 113.908 56.874 c 0
 116.093284122 118.431602956 116.999503588 176.797912056 116.999503588 241.159312309 c 0
 116.999503588 274.069552095 117.388239334 309.812977525 116.954 344.942 c 0
 114.786606792 368.788400746 93.109 371.908 62 379.862 c 1
 63 406 l 1
EndSplineSet
EndChar

StartChar: o.pcap
Encoding: 57361 57361 657
GlifName: o.pcap
Width: 568
VWidth: 1159
Flags: HW
AnchorPoint: "Middle" 282 206 basechar 0
AnchorPoint: "Bottom" 288 -15 basechar 0
AnchorPoint: "Top" 286 465 basechar 0
LayerCount: 2
Fore
SplineSet
274.218 383.247 m 3
 177.844838709 383.247 108.242 309.350866667 108.242 222.966 c 3
 108.242 122.980838862 192.60016185 25.799 297.46 25.799 c 3
 400.059008265 25.799 456.62 100.135873239 456.62 185.925 c 3
 456.62 300.062235294 366.491952941 383.247 274.218 383.247 c 3
292 413 m 3
 415.046 413 512 314 512 200 c 3
 512 87 421 -5 287 -5 c 3
 144 -5 56 109 56 200 c 3
 56 314 165 413 292 413 c 3
EndSplineSet
EndChar

StartChar: p.pcap
Encoding: 57362 57362 658
GlifName: p.pcap
Width: 450
VWidth: 1159
Flags: HW
AnchorPoint: "Top" 234 465 basechar 0
AnchorPoint: "Bottom" 172 -15 basechar 0
LayerCount: 2
Fore
SplineSet
215 161 m 1
 275.577280374 161 347.281 186.094362745 347.281 263.385 c 1
 347.281 313.293564788 315.728985284 351.440191909 296.942 362.184 c 0
 273.910993954 375.591960943 246.735060241 380.431 216.804 380.431 c 1
 197.878811881 380.431 174.546333969 372.411623417 174.644 366.632 c 0
 175.167 320.442184262 173.075 246.323899955 174.598 167.908 c 1
 187.584357143 164.267214286 203.852265594 161 215 161 c 1
62 402 m 1
 78 401 107 400 130 400 c 1
 171 400 203 406 243 406 c 1
 338 406 399 328.576171875 399 266 c 1
 399 175 311 137 213 137 c 1
 200.492485217 137 191.78776 138.795 175.121 142.385 c 1
 175.644 100.728341176 175.878221053 61.4010422845 177.213 44.029 c 0
 179.828 19.9003782904 196.10431579 31.862 249 19.661 c 1
 247 -7 l 1
 218.678845466 -1.80778833541 193.031316912 1.15640167878 167.007573975 1.15640167878 c 1
 137.89851594 1.15640167878 108.318749255 -2.55230787577 74 -11 c 1
 65.477 12.046 l 1
 115.971403846 29.343 125.68482009 25.5440335042 126.54 46.69 c 0
 127.332773271 79.9993356795 127.886405056 119.178672708 127.886405056 160.807494955 c 3
 127.886405056 224.421319536 126.792688305 294.34088785 123.971 355.971 c 0
 122.946287821 373.652214622 110.283051724 373.364 60.477 376.431 c 1
 62 402 l 1
EndSplineSet
EndChar

